<svg width="91" height="24" viewBox="0 0 91 24" fill="none" xmlns="http://www.w3.org/2000/svg">
<g opacity="0.8">
<path d="M6.71118 6.16919C7.08757 6.16919 9.53322 7.26323 9.53322 11.1898C9.53322 13.0653 8.91053 14.63 8.54108 14.63C8.37804 14.63 8.31733 14.4667 8.31733 14.1506C8.31733 13.4482 8.55843 12.8405 8.55843 11.3584C8.55843 8.49424 7.39457 7.33874 6.87249 6.68899C6.71811 6.49582 6.60364 6.37114 6.60364 6.25699C6.60364 6.21134 6.63486 6.16919 6.71118 6.16919ZM12.8756 6.25699C12.8756 6.37114 12.7594 6.49582 12.605 6.68899C12.0847 7.33874 10.9191 8.49424 10.9191 11.3584C10.9191 12.8405 11.1602 13.4552 11.1602 14.1506C11.1602 14.4667 11.0995 14.63 10.9364 14.63C10.5687 14.63 9.9443 13.0653 9.9443 11.1898C9.9443 7.26323 12.3917 6.16919 12.7681 6.16919C12.8427 6.16919 12.8756 6.21134 12.8756 6.25699Z" fill="#7D7D7D"/>
<path d="M8.84577 6.95585C8.85055 7.13389 8.90716 7.30654 9.00848 7.45213C9.1098 7.59773 9.25133 7.7098 9.41531 7.77428C9.5793 7.83875 9.75844 7.85278 9.93026 7.81458C10.1021 7.77638 10.2589 7.68767 10.3812 7.55957C10.5034 7.43147 10.5855 7.26968 10.6173 7.0945C10.649 6.91932 10.629 6.73855 10.5597 6.57485C10.4904 6.41116 10.3748 6.27183 10.2276 6.17435C10.0804 6.07686 9.908 6.02556 9.73209 6.02688C9.61319 6.02848 9.49576 6.05379 9.38652 6.10134C9.27727 6.14889 9.17835 6.21777 9.09541 6.30404C9.01246 6.3903 8.9471 6.49226 8.90308 6.6041C8.85906 6.71594 8.83722 6.83547 8.83883 6.95585" fill="#7D7D7D"/>
<path d="M5.09904 5.48951C4.63246 5.27527 4.28209 4.84679 4.23179 4.43586C4.57869 4.20582 5.12679 4.18826 5.59337 4.40074C5.77788 4.47364 5.93536 4.60298 6.04386 4.77074C6.15236 4.93851 6.20649 5.13636 6.19871 5.33673C6.05548 5.47496 5.87321 5.56448 5.67732 5.59281C5.48144 5.62114 5.2817 5.58687 5.10598 5.49478L5.09904 5.48951ZM6.43633 2.99763C6.13627 2.53051 6.06515 1.94398 6.25248 1.52955C6.69651 1.52955 7.20298 1.82808 7.50305 2.2952C7.62774 2.4698 7.69586 2.67926 7.69804 2.8947C7.70021 3.11015 7.63633 3.32097 7.51519 3.49811C7.30627 3.53907 7.08992 3.51284 6.89646 3.4231C6.703 3.33335 6.54211 3.18458 6.43633 2.99763ZM7.13013 5.47195C6.955 5.32989 6.81627 5.14719 6.72569 4.93932C6.63511 4.73145 6.59535 4.50454 6.60978 4.27782C6.82871 4.22741 7.05639 4.23092 7.27369 4.28806C7.491 4.34521 7.69159 4.45431 7.85862 4.6062C8.00712 4.72018 8.11695 4.87808 8.17288 5.05805C8.22882 5.23802 8.2281 5.43115 8.17083 5.61068C8.00406 5.69949 7.81401 5.7332 7.62736 5.70705C7.4407 5.68091 7.26682 5.59624 7.13013 5.46493V5.47195ZM8.26449 4.26904C8.10492 3.74221 8.19511 3.16973 8.47957 2.83432C8.89932 2.94846 9.29478 3.37519 9.45609 3.88797C9.52825 4.08612 9.53746 4.30215 9.48241 4.50586C9.42737 4.70957 9.31083 4.89078 9.14908 5.02415C8.94135 5.00619 8.74436 4.92289 8.58573 4.7859C8.4271 4.64891 8.31477 4.46511 8.26449 4.26025V4.26904ZM6.31492 8.07798C6.14498 8.11701 5.96826 8.11392 5.79975 8.06898C5.63125 8.02403 5.47596 7.93856 5.34707 7.81983C5.42285 7.66067 5.5354 7.52234 5.6752 7.41657C5.81499 7.3108 5.97791 7.24071 6.15014 7.21223C6.29094 7.1757 6.43952 7.18487 6.5749 7.23843C6.71028 7.292 6.82562 7.38726 6.90465 7.51076C6.8775 7.6558 6.80592 7.78849 6.70005 7.88999C6.59419 7.9915 6.45944 8.05666 6.31492 8.07622V8.07798ZM5.3384 6.96989C5.14351 6.95452 4.95516 6.89173 4.78938 6.78686C4.62359 6.68199 4.48527 6.53815 4.38616 6.36755C4.51902 6.22158 4.68481 6.11036 4.86936 6.04339C5.05392 5.97641 5.25175 5.95568 5.44594 5.98297C5.60903 5.99247 5.76519 6.05298 5.89288 6.15615C6.02057 6.25932 6.11349 6.40006 6.15881 6.55897C6.08129 6.70518 5.96046 6.82312 5.81329 6.8962C5.66613 6.96928 5.50005 6.99382 5.3384 6.96638V6.96989ZM5.30197 3.80543C5.14714 3.68004 5.02417 3.51898 4.94331 3.3357C4.86245 3.15241 4.82604 2.9522 4.83713 2.75178C5.03167 2.70631 5.23418 2.70907 5.42745 2.75982C5.62071 2.81057 5.79902 2.90782 5.94721 3.04329C6.08013 3.14528 6.17831 3.28672 6.22805 3.44789C6.2778 3.60906 6.27664 3.78193 6.22473 3.9424C6.07683 4.02078 5.9085 4.05055 5.74312 4.02758C5.57774 4.0046 5.42355 3.93002 5.30197 3.81421V3.80543ZM7.55682 1.56818C7.48875 1.3691 7.46898 1.15637 7.49916 0.947924C7.52935 0.739482 7.60861 0.541449 7.73027 0.370533C7.92528 0.440784 8.10095 0.557076 8.24272 0.709771C8.38449 0.862467 8.48828 1.04717 8.54548 1.24857C8.60587 1.41355 8.61375 1.59352 8.56802 1.76326C8.5223 1.93301 8.42526 2.08401 8.29051 2.1951C8.11751 2.1802 7.95344 2.1109 7.82126 1.99691C7.68908 1.88293 7.59541 1.72995 7.55335 1.5594L7.55682 1.56818ZM2.02725 12.8475C2.02725 12.858 2.02725 12.8668 2.0498 12.8668C2.07177 12.8626 2.09328 12.8561 2.11397 12.8475C4.0454 12.1422 6.06728 11.7228 8.11706 11.6024C8.12802 11.5221 8.13439 11.4412 8.13614 11.3601C8.13531 11.211 8.12604 11.0621 8.10839 10.914C5.30544 11.1722 3.37148 11.9958 2.1001 12.786C2.04806 12.8176 2.02551 12.8264 2.02551 12.8475H2.02725ZM13.2824 5.33146C13.2766 5.13144 13.3324 4.93454 13.4421 4.76808C13.5518 4.60162 13.71 4.47386 13.8947 4.4025C14.1079 4.29778 14.3428 4.24633 14.5797 4.25244C14.8166 4.25855 15.0486 4.32205 15.2562 4.43762C15.2051 4.67053 15.0998 4.88769 14.9489 5.07098C14.798 5.25427 14.6061 5.39837 14.389 5.49127C14.213 5.5835 14.013 5.61785 13.8168 5.58952C13.6206 5.56119 13.438 5.47159 13.2945 5.33322L13.2824 5.33146ZM11.9607 3.49109C11.8402 3.31503 11.7766 3.10541 11.7787 2.89119C11.7809 2.67697 11.8487 2.46872 11.9728 2.2952C12.2729 1.82808 12.7776 1.52428 13.2234 1.52955C13.409 1.93871 13.3396 2.53051 13.0396 2.99763C12.9336 3.1844 12.7727 3.33301 12.5793 3.42273C12.3859 3.51245 12.1696 3.53881 11.9607 3.49811V3.49109ZM11.3051 5.61068C11.247 5.43013 11.2458 5.23575 11.3018 5.05451C11.3577 4.87326 11.468 4.71413 11.6173 4.59918C11.7846 4.44726 11.9855 4.33816 12.2031 4.28103C12.4207 4.22389 12.6486 4.22038 12.8678 4.27079C12.882 4.49749 12.8421 4.7243 12.7515 4.93212C12.661 5.13994 12.5224 5.32267 12.3475 5.46493C12.2108 5.59624 12.0369 5.68091 11.8503 5.70705C11.6636 5.7332 11.4736 5.69949 11.3068 5.61068H11.3051ZM10.3268 5.03293C10.1654 4.89934 10.0492 4.71804 9.99443 4.51434C9.9397 4.31064 9.94918 4.09473 10.0215 3.89675C10.1794 3.36992 10.5766 2.94846 10.9981 2.8431C11.2808 3.17851 11.371 3.75626 11.2114 4.27782C11.1614 4.4828 11.0491 4.66674 10.8904 4.80377C10.7317 4.94079 10.5346 5.02401 10.3268 5.04171V5.03293ZM12.5817 7.5213C12.6587 7.39757 12.772 7.30129 12.9057 7.24589C13.0394 7.19048 13.1869 7.17871 13.3275 7.21223C13.4993 7.24051 13.6619 7.31035 13.8014 7.41582C13.9409 7.52129 14.0532 7.65928 14.1288 7.81808C14 7.93693 13.8447 8.02249 13.6762 8.06744C13.5077 8.11239 13.3309 8.1154 13.161 8.07622C13.0165 8.05666 12.8817 7.9915 12.7758 7.88999C12.67 7.78849 12.5984 7.6558 12.5712 7.51076L12.5817 7.5213ZM13.3171 6.56248C13.3621 6.40278 13.4551 6.26122 13.5831 6.15739C13.7112 6.05356 13.8679 5.99261 14.0317 5.98297C14.2253 5.95555 14.4226 5.97587 14.6068 6.04222C14.791 6.10856 14.9567 6.21897 15.0897 6.36404C14.9905 6.53487 14.8519 6.67886 14.6858 6.78374C14.5196 6.88862 14.331 6.95128 14.1358 6.96638C13.9744 6.9937 13.8086 6.96909 13.6617 6.896C13.5148 6.82292 13.3943 6.70504 13.3171 6.55897V6.56248ZM13.2512 3.93538C13.1993 3.77491 13.1981 3.60204 13.2478 3.44087C13.2976 3.2797 13.3958 3.13826 13.5287 3.03627C13.6772 2.90077 13.8558 2.80353 14.0494 2.75279C14.2429 2.70204 14.4457 2.69929 14.6405 2.74476C14.6517 2.94537 14.6151 3.14576 14.5339 3.3291C14.4527 3.51245 14.3293 3.67339 14.1739 3.79841C14.0523 3.91422 13.8981 3.9888 13.7328 4.01177C13.5674 4.03475 13.3991 4.00498 13.2512 3.9266V3.93538ZM11.1889 2.20213C11.0541 2.09103 10.9571 1.94003 10.9113 1.77029C10.8656 1.60055 10.8735 1.42058 10.9339 1.2556C10.991 1.05445 11.0946 0.869931 11.236 0.717269C11.3775 0.564606 11.5527 0.448168 11.7474 0.377558C11.8694 0.54828 11.9489 0.746329 11.9791 0.954851C12.0093 1.16337 11.9893 1.37619 11.9208 1.57521C11.8785 1.74563 11.7848 1.89847 11.6526 2.01241C11.5205 2.12636 11.3566 2.19575 11.1836 2.21091L11.1889 2.20213ZM17.3689 12.7948C16.0992 12.0046 14.1652 11.181 11.364 10.9211C11.3445 11.0689 11.3347 11.2179 11.3345 11.3671C11.3345 11.4602 11.3502 11.5849 11.3519 11.6095C13.4043 11.7267 15.4291 12.1437 17.3637 12.8475C17.3844 12.8561 17.4059 12.8626 17.4278 12.8668C17.4434 12.8668 17.4504 12.8668 17.4504 12.8475C17.4504 12.8282 17.4278 12.8176 17.3758 12.786L17.3689 12.7948ZM9.73187 2.66046C9.50844 2.56845 9.31888 2.40823 9.18957 2.20208C9.06025 1.99593 8.9976 1.7541 9.01032 1.51023C9.01032 0.879797 9.30519 0.280973 9.73187 0C10.1586 0.272193 10.4517 0.878041 10.4517 1.51023C10.4643 1.75385 10.4018 1.99541 10.2728 2.20148C10.1439 2.40756 9.95483 2.56795 9.73187 2.66046Z" fill="#7D7D7D"/>
<path d="M4.84271 16.2559C4.8403 16.3746 4.87287 16.4913 4.93626 16.5911C4.99965 16.691 5.09099 16.7694 5.19862 16.8164C5.30625 16.8634 5.42527 16.8769 5.54051 16.8552C5.65574 16.8334 5.76195 16.7773 5.84558 16.6942C5.9292 16.611 5.98645 16.5045 6.01001 16.3882C6.03357 16.272 6.02237 16.1512 5.97785 16.0415C5.93333 15.9317 5.8575 15.8378 5.76004 15.7718C5.66259 15.7059 5.54793 15.6708 5.43071 15.6712C5.35417 15.6705 5.27825 15.685 5.20728 15.7141C5.13631 15.7431 5.07168 15.786 5.01708 15.8403C4.96248 15.8946 4.91898 15.9592 4.88906 16.0305C4.85914 16.1019 4.84339 16.1785 4.84271 16.2559ZM9.43392 19.3291C9.43392 20.251 9.08702 20.6356 8.56667 20.6356C8.04632 20.6356 7.75493 20.1896 7.75493 19.4064C7.75493 18.6231 8.20763 17.9435 9.04539 17.9435C9.17781 17.9421 9.30993 17.9563 9.43912 17.9857L9.43392 19.3291ZM9.48422 20.8428V21.1431C9.48422 21.965 8.98469 22.2863 8.362 22.2863C7.98555 22.2823 7.61294 22.2092 7.26233 22.0703V22.8834C7.65666 23.0005 8.06555 23.0596 8.47648 23.059C9.62472 23.059 10.3844 22.5778 10.3844 20.9324V17.3869C9.95742 17.2734 9.51808 17.2144 9.07662 17.2112C7.46527 17.2112 6.77147 18.3053 6.77147 19.4942C6.77147 20.5812 7.31263 21.4258 8.34813 21.4258C8.56696 21.4324 8.78395 21.3835 8.97934 21.2835C9.17473 21.1835 9.34232 21.0356 9.46688 20.8534L9.48422 20.8428ZM4.00842 20.3459C3.66723 20.4896 3.30082 20.5619 2.9313 20.5583C1.8403 20.5583 1.03549 19.7663 1.03549 18.5617C1.03549 17.357 1.83336 16.5633 2.9313 16.5633C3.29981 16.5518 3.66664 16.6182 4.00842 16.7582V15.8959C3.6301 15.7686 3.2327 15.7091 2.83417 15.7203C1.13956 15.7203 0 16.9057 0 18.5564C0 20.1176 1.04937 21.3925 2.83417 21.3925C3.23269 21.4035 3.63006 21.3441 4.00842 21.2169V20.3459ZM18.4047 19.3344C18.4047 20.2563 18.0492 20.6409 17.5375 20.6409C17.0258 20.6409 16.724 20.1948 16.724 19.4116C16.724 18.6284 17.1784 17.9488 18.0145 17.9488C18.1474 17.9476 18.2801 17.9618 18.4099 17.9909L18.4047 19.3344ZM19.4749 21.331C19.4071 20.8909 19.3672 20.4469 19.3552 20.0017V17.3869C18.9288 17.2736 18.49 17.2146 18.0492 17.2112C16.4361 17.2112 15.744 18.3053 15.744 19.4942C15.744 20.5812 16.2834 21.4258 17.3189 21.4258C17.5725 21.4325 17.8224 21.3641 18.0381 21.2291C18.2537 21.094 18.4258 20.8981 18.5331 20.6655H18.5591C18.5591 20.7919 18.6025 21.2169 18.6129 21.3363L19.4749 21.331ZM5.91636 17.3061H4.95545V21.331H5.91636V17.3061ZM11.4667 21.331V18.5476C11.4667 18.1736 11.4338 17.4571 11.4234 17.2938H12.2785L12.3184 17.861H12.334C12.4523 17.6562 12.6227 17.4873 12.8274 17.3718C13.0321 17.2563 13.2636 17.1984 13.4978 17.2042C14.398 17.2042 14.8976 17.8733 14.8976 18.7074V21.331H13.9453V18.8988C13.9453 18.3843 13.6644 17.998 13.1787 17.998C12.693 17.998 12.4138 18.4071 12.4138 18.8988V21.331H11.4667Z" fill="#7D7D7D"/>
<path d="M20.8591 20.6391C20.822 20.6225 20.7816 20.6153 20.7412 20.618H20.6596V20.82H20.7481C20.7792 20.8216 20.8104 20.8174 20.84 20.8077C20.8576 20.8012 20.8727 20.7892 20.8831 20.7734C20.8934 20.7576 20.8984 20.7388 20.8973 20.7199C20.899 20.7043 20.8965 20.6886 20.8901 20.6743C20.8837 20.6601 20.8736 20.6479 20.8608 20.6391H20.8591ZM20.755 20.5513C20.806 20.5491 20.8571 20.5556 20.9059 20.5706C20.9331 20.5817 20.956 20.6014 20.9712 20.6267C20.9865 20.652 20.9934 20.6815 20.9909 20.7111C20.9927 20.7327 20.9887 20.7545 20.9792 20.774C20.9698 20.7935 20.9552 20.81 20.9371 20.8217C20.9128 20.8366 20.8856 20.8462 20.8574 20.8498C20.8762 20.8513 20.8945 20.857 20.911 20.8664C20.9275 20.8758 20.9417 20.8887 20.9528 20.9042C20.9706 20.9294 20.9809 20.9593 20.9822 20.9903V21.0307C20.9814 21.0447 20.9814 21.0588 20.9822 21.0728C20.9816 21.0822 20.9816 21.0916 20.9822 21.1009H20.8921V21.0342C20.8921 20.9692 20.8747 20.9253 20.8383 20.906C20.8046 20.8907 20.7676 20.884 20.7307 20.8867H20.6596V21.1062H20.5625V20.5583L20.755 20.5513ZM20.4602 20.5232C20.42 20.5638 20.3881 20.612 20.3663 20.665C20.3445 20.7181 20.3332 20.775 20.3331 20.8325C20.333 20.89 20.3441 20.9469 20.3658 21.0001C20.3874 21.0532 20.4192 21.1015 20.4593 21.1422C20.4994 21.1829 20.547 21.2152 20.5994 21.2373C20.6519 21.2594 20.7081 21.2708 20.7648 21.2708C20.8216 21.2709 20.8778 21.2597 20.9303 21.2378C20.9828 21.2158 21.0305 21.1837 21.0707 21.1431C21.1517 21.0608 21.1972 20.9493 21.1972 20.8331C21.1972 20.7169 21.1517 20.6055 21.0707 20.5232C21.031 20.482 20.9835 20.4492 20.9311 20.4269C20.8786 20.4045 20.8223 20.393 20.7654 20.393C20.7086 20.393 20.6522 20.4045 20.5998 20.4269C20.5474 20.4492 20.4999 20.482 20.4602 20.5232ZM21.121 21.1922C21.0267 21.2877 20.8988 21.3413 20.7654 21.3413C20.6321 21.3413 20.5042 21.2877 20.4099 21.1922C20.3632 21.1451 20.3262 21.0889 20.3012 21.0271C20.2762 20.9653 20.2636 20.899 20.2642 20.8322C20.2635 20.7653 20.2763 20.6989 20.3016 20.637C20.3269 20.5751 20.3643 20.5191 20.4116 20.4722C20.5075 20.3855 20.6326 20.3392 20.7612 20.343C20.8897 20.3467 21.012 20.4002 21.1028 20.4924C21.1936 20.5846 21.2461 20.7085 21.2495 20.8386C21.2529 20.9688 21.2069 21.0953 21.121 21.1922Z" fill="#7D7D7D"/>
<path d="M49.9863 21.331V8.45713C49.9863 8.0743 49.825 7.96191 49.4417 7.96191H48.1668V21.331H49.9863Z" fill="#7D7D7D"/>
<path d="M62.312 21.331V13.0405H64.298V11.5601H62.312V8.45713C62.312 8.0743 62.1524 7.96191 61.7691 7.96191H60.4942V14.8212C59.6847 14.9767 58.8621 15.052 58.0382 15.0459H54.6559C54.6175 15.0485 54.579 15.0428 54.543 15.0291C54.5069 15.0155 54.4742 14.9943 54.4468 14.967C54.4194 14.9396 54.3981 14.9066 54.3842 14.8703C54.3703 14.834 54.3642 14.7951 54.3663 14.7562V8.33069H52.5624V15.2707C52.5659 15.4415 52.6031 15.6097 52.6717 15.7658C52.7403 15.9218 52.8389 16.0623 52.9618 16.1793C53.0847 16.2962 53.2295 16.3871 53.3875 16.4467C53.5456 16.5063 53.7138 16.5334 53.8823 16.5263H58.0451C58.8741 16.5216 59.6991 16.4119 60.5012 16.1997V21.331H62.312Z" fill="#7D7D7D"/>
<path d="M44.7138 12.8492C44.7138 14.2418 43.8275 15.2147 42.5596 15.2147C41.2916 15.2147 40.407 14.2365 40.407 12.8492C40.407 10.9369 41.9386 9.66897 42.5596 9.66897C43.1805 9.66897 44.7138 10.9369 44.7138 12.8492ZM42.5578 8.20264C41.1702 8.20264 38.506 10.0114 38.506 12.8457C38.506 15.104 40.1729 16.681 42.5578 16.681C44.9427 16.681 46.6113 15.1005 46.6113 12.8457C46.6113 10.0114 43.9506 8.20264 42.5578 8.20264Z" fill="#7D7D7D"/>
<path d="M86.2355 16.8495C86.9726 16.8495 88.4261 17.5115 88.4261 18.797C88.4261 19.7347 87.5468 20.3651 86.2355 20.3651C84.9242 20.3651 84.0448 19.7347 84.0448 18.797C84.0448 17.5115 85.5191 16.8495 86.2355 16.8495ZM86.2355 15.4165C84.9363 15.4165 82.1525 16.5878 82.1525 18.8549C82.1525 20.611 83.7933 21.7981 86.2355 21.7981C88.6776 21.7981 90.3185 20.6163 90.3185 18.8549C90.3185 16.5878 87.5277 15.4165 86.2355 15.4165Z" fill="#7D7D7D"/>
<path d="M35.1756 21.331V13.0405H37.1599V11.5601H35.1756V8.45713C35.1756 8.0743 35.0161 7.96191 34.6327 7.96191H33.3562V15.5675C32.6203 15.6822 31.877 15.7409 31.1325 15.7431H26.9697C26.9323 15.7453 26.8948 15.7393 26.8599 15.7254C26.8249 15.7116 26.7934 15.6903 26.7673 15.6629C26.7413 15.6355 26.7214 15.6028 26.709 15.5669C26.6967 15.5311 26.6921 15.4929 26.6957 15.4551V13.5234H31.2401V8.33069H24.8693V9.81107H29.4241V12.0378H24.8693V15.9591C24.8728 16.1298 24.91 16.2981 24.9786 16.4541C25.0471 16.6101 25.1458 16.7507 25.2687 16.8677C25.3916 16.9846 25.5364 17.0755 25.6944 17.1351C25.8525 17.1947 26.0207 17.2218 26.1892 17.2147H30.9521C31.76 17.2147 32.5656 17.1299 33.3562 16.9618V21.331H35.1756Z" fill="#7D7D7D"/>
<path d="M73.0412 16.8493C73.7766 16.8493 75.2301 17.5114 75.2301 18.7968C75.2301 19.7346 74.3507 20.365 73.0412 20.365C71.7317 20.365 70.8557 19.7346 70.8557 18.8021C70.8557 17.5166 72.3301 16.8546 73.0481 16.8546L73.0412 16.8493ZM73.0481 15.4216C71.749 15.4216 68.9651 16.5929 68.9651 18.86C68.9651 20.6161 70.606 21.8032 73.0481 21.8032C75.4903 21.8032 77.1311 20.6214 77.1311 18.86C77.1311 16.5929 74.3403 15.4216 73.0481 15.4216Z" fill="#7D7D7D"/>
<path d="M86.3534 10.6297H88.6724V12.0785H86.3534V10.6297ZM84.5495 13.2427H81.7136C81.6754 13.2453 81.637 13.2396 81.6011 13.2261C81.5652 13.2125 81.5325 13.1915 81.5051 13.1643C81.4778 13.1371 81.4564 13.1044 81.4424 13.0683C81.4285 13.0322 81.4221 12.9935 81.4239 12.9547V9.69018H84.546L84.5495 13.2427ZM89.9264 7.9622H88.662V9.14404H86.3534V8.20805H79.6322V13.4658C79.6358 13.6366 79.6729 13.8049 79.7415 13.961C79.81 14.1171 79.9087 14.2578 80.0315 14.3749C80.1544 14.492 80.2992 14.5831 80.4572 14.6428C80.6153 14.7026 80.7835 14.7299 80.9521 14.7231H86.362V13.5588H88.6793V14.9391H90.4728V8.44161C90.4728 8.06405 90.3132 7.95166 89.9351 7.95166" fill="#7D7D7D"/>
<path d="M76.9509 7.9622H75.6882V10.5647H74.4289V8.45741C74.4289 8.07985 74.2694 7.96746 73.8912 7.96746H72.6251V14.9391H74.4289V12.0468H75.6917V14.9391H77.4921V8.44161C77.4921 8.06405 77.3325 7.95166 76.9544 7.95166" fill="#7D7D7D"/>
<path d="M69.0207 9.55635C69.1941 9.55635 69.2427 9.67752 69.293 9.88474L70.5765 14.9458H72.4428L71.0864 9.72669C70.8003 8.61334 70.2383 8.07422 69.0276 8.07422H69.0137C67.7996 8.07422 67.2411 8.61334 66.9549 9.72669L65.5985 14.9387H67.4666L68.7483 9.87771C68.7986 9.6705 68.8559 9.54933 69.0207 9.54933" fill="#7D7D7D"/>
</g>
</svg>
