<svg width="121" height="31" viewBox="0 0 121 31" fill="none" xmlns="http://www.w3.org/2000/svg">
<path d="M9.10394 8.08301C9.60316 8.08301 12.847 9.50632 12.847 14.6147C12.847 17.0547 12.0211 19.0903 11.531 19.0903C11.3148 19.0903 11.2343 18.8778 11.2343 18.4666C11.2343 17.5527 11.554 16.7623 11.554 14.834C11.554 11.1078 10.0104 9.60456 9.31789 8.75925C9.11314 8.50795 8.9613 8.34574 8.9613 8.19724C8.9613 8.13784 9.00271 8.08301 9.10394 8.08301V8.08301ZM17.2802 8.19724C17.2802 8.34574 17.126 8.50795 16.9213 8.75925C16.2311 9.60456 14.6851 11.1078 14.6851 14.834C14.6851 16.7623 15.0049 17.5619 15.0049 18.4666C15.0049 18.8778 14.9244 19.0903 14.7081 19.0903C14.2204 19.0903 13.3922 17.0547 13.3922 14.6147C13.3922 9.50632 16.6383 8.08301 17.1375 8.08301C17.2365 8.08301 17.2802 8.13784 17.2802 8.19724" fill="#D3DADF"/>
<path d="M11.9359 9.10605C11.9423 9.33768 12.0174 9.56229 12.1518 9.75171C12.2862 9.94112 12.4739 10.0869 12.6914 10.1708C12.9089 10.2547 13.1465 10.2729 13.3744 10.2232C13.6023 10.1735 13.8103 10.0581 13.9725 9.89148C14.1346 9.72482 14.2435 9.51434 14.2856 9.28644C14.3278 9.05853 14.3012 8.82335 14.2092 8.61039C14.1173 8.39743 13.9641 8.21617 13.7688 8.08934C13.5735 7.96252 13.3449 7.89578 13.1115 7.89749C12.9538 7.89958 12.7981 7.9325 12.6532 7.99436C12.5083 8.05623 12.3771 8.14584 12.2671 8.25807C12.157 8.37029 12.0704 8.50294 12.012 8.64844C11.9536 8.79394 11.9246 8.94944 11.9267 9.10605" fill="#D3DADF"/>
<path d="M6.9665 7.19834C6.34765 6.91961 5.88293 6.36217 5.81622 5.82757C6.27633 5.52829 7.00331 5.50544 7.62216 5.78188C7.8669 5.87672 8.07576 6.04498 8.21967 6.26324C8.36358 6.4815 8.43538 6.73889 8.42506 6.99958C8.23509 7.1794 7.99333 7.29586 7.73352 7.33272C7.4737 7.36958 7.20878 7.325 6.9757 7.20519L6.9665 7.19834ZM8.74024 3.95647C8.34224 3.34877 8.24792 2.58571 8.49638 2.04654C9.08532 2.04654 9.75709 2.43492 10.1551 3.04263C10.3205 3.26978 10.4108 3.54228 10.4137 3.82256C10.4166 4.10285 10.3319 4.37713 10.1712 4.60759C9.89409 4.66087 9.60714 4.62675 9.35054 4.50999C9.09394 4.39323 8.88054 4.19969 8.74024 3.95647V3.95647ZM9.66047 7.17549C9.42818 6.99068 9.24417 6.75299 9.12403 6.48256C9.00389 6.21213 8.95116 5.91692 8.9703 5.62196C9.26067 5.55638 9.56265 5.56095 9.85088 5.63529C10.1391 5.70963 10.4052 5.85156 10.6267 6.04918C10.8237 6.19746 10.9693 6.40289 11.0435 6.63702C11.1177 6.87115 11.1168 7.1224 11.0408 7.35598C10.8196 7.47152 10.5675 7.51536 10.32 7.48135C10.0724 7.44734 9.84177 7.33719 9.66047 7.16635V7.17549ZM11.165 5.61053C10.9534 4.92515 11.073 4.18036 11.4503 3.744C12.007 3.8925 12.5316 4.44766 12.7455 5.11477C12.8412 5.37257 12.8535 5.65362 12.7804 5.91864C12.7074 6.18366 12.5529 6.4194 12.3383 6.59292C12.0628 6.56955 11.8015 6.46117 11.5911 6.28296C11.3807 6.10474 11.2317 5.86562 11.165 5.59911V5.61053ZM8.5792 10.5659C8.35381 10.6166 8.1194 10.6126 7.8959 10.5541C7.67241 10.4957 7.46643 10.3845 7.29548 10.23C7.39599 10.0229 7.54528 9.84299 7.7307 9.70539C7.91611 9.56779 8.1322 9.47659 8.36065 9.43954C8.5474 9.39202 8.74446 9.40394 8.92403 9.47363C9.10359 9.54332 9.25658 9.66725 9.36139 9.82793C9.32539 10.0166 9.23044 10.1892 9.09003 10.3213C8.94962 10.4534 8.77088 10.5381 8.5792 10.5636V10.5659ZM7.28398 9.12426C7.02548 9.10427 6.77567 9.02258 6.55578 8.88615C6.33589 8.74972 6.15242 8.56258 6.02097 8.34064C6.19718 8.15074 6.41708 8.00604 6.66187 7.91891C6.90665 7.83178 7.16905 7.80481 7.42662 7.84031C7.64294 7.85267 7.85007 7.93139 8.01943 8.06561C8.18878 8.19983 8.31203 8.38294 8.37215 8.58967C8.26933 8.77989 8.10905 8.93332 7.91386 9.0284C7.71868 9.12347 7.49839 9.1554 7.28398 9.1197V9.12426ZM7.23567 5.00739C7.03031 4.84426 6.8672 4.63473 6.75995 4.39628C6.6527 4.15783 6.60441 3.89737 6.61911 3.63663C6.87715 3.57747 7.14575 3.58106 7.40209 3.64709C7.65843 3.71312 7.89493 3.83963 8.09148 4.01587C8.26778 4.14856 8.398 4.33257 8.46398 4.54225C8.52997 4.75193 8.52842 4.97683 8.45957 5.18559C8.26341 5.28756 8.04014 5.32629 7.82079 5.2964C7.60144 5.26651 7.39692 5.16949 7.23567 5.01882V5.00739ZM10.2264 2.0968C10.1361 1.8378 10.1099 1.56104 10.1499 1.28986C10.19 1.01869 10.2951 0.76105 10.4565 0.538694C10.7151 0.630088 10.9481 0.78138 11.1362 0.980033C11.3242 1.17869 11.4619 1.41898 11.5377 1.681C11.6178 1.89563 11.6283 2.12977 11.5676 2.3506C11.507 2.57143 11.3783 2.76787 11.1995 2.91241C10.9701 2.89301 10.7525 2.80286 10.5772 2.65457C10.4018 2.50627 10.2776 2.30726 10.2218 2.08538L10.2264 2.0968ZM2.89219 16.7709C2.89219 16.7846 2.89219 16.796 2.9221 16.796C2.95125 16.7905 2.97977 16.7821 3.00722 16.7709C5.56899 15.8533 8.25074 15.3077 10.9695 15.1511C10.984 15.0465 10.9925 14.9413 10.9948 14.8358C10.9937 14.6418 10.9814 14.4481 10.958 14.2555C7.24027 14.5913 4.67513 15.6628 2.98882 16.6909C2.9198 16.732 2.88989 16.7434 2.88989 16.7709H2.89219ZM17.8206 6.99272C17.8129 6.73249 17.887 6.47633 18.0325 6.25978C18.178 6.04322 18.3878 5.877 18.6327 5.78416C18.9155 5.64793 19.227 5.58099 19.5413 5.58894C19.8555 5.59689 20.1632 5.6795 20.4386 5.82985C20.3708 6.13287 20.2311 6.41539 20.031 6.65384C19.8309 6.89229 19.5763 7.07977 19.2883 7.20062C19.0549 7.32062 18.7896 7.3653 18.5294 7.32844C18.2692 7.29158 18.027 7.17502 17.8367 6.99501L17.8206 6.99272ZM16.0676 4.59845C15.9077 4.36939 15.8233 4.09669 15.8262 3.81799C15.8291 3.5393 15.9191 3.26837 16.0837 3.04263C16.4817 2.43492 17.1511 2.03968 17.7424 2.04654C17.9885 2.57885 17.8965 3.34877 17.4985 3.95647C17.358 4.19945 17.1445 4.39279 16.888 4.50951C16.6315 4.62624 16.3446 4.66053 16.0676 4.60759V4.59845ZM15.1979 7.35598C15.1209 7.12108 15.1194 6.8682 15.1936 6.63241C15.2678 6.39661 15.414 6.18959 15.612 6.04004C15.834 5.8424 16.1005 5.70047 16.3891 5.62614C16.6777 5.5518 16.98 5.54724 17.2708 5.61282C17.2895 5.90774 17.2366 6.20282 17.1165 6.47318C16.9964 6.74355 16.8126 6.98128 16.5806 7.16635C16.3993 7.33719 16.1687 7.44734 15.9211 7.48135C15.6735 7.51536 15.4214 7.47152 15.2002 7.35598H15.1979ZM13.9004 6.60434C13.6863 6.43054 13.5322 6.19467 13.4596 5.92967C13.387 5.66466 13.3995 5.38376 13.4955 5.12619C13.7049 4.44081 14.2317 3.8925 14.7907 3.75543C15.1657 4.19179 15.2854 4.94343 15.0737 5.62196C15.0073 5.88863 14.8584 6.12794 14.648 6.3062C14.4375 6.48447 14.1761 6.59273 13.9004 6.61576V6.60434ZM16.8912 9.84163C16.9934 9.68067 17.1436 9.55541 17.321 9.48333C17.4983 9.41125 17.6939 9.39594 17.8804 9.43954C18.1083 9.47634 18.324 9.5672 18.509 9.70441C18.694 9.84163 18.843 10.0211 18.9433 10.2277C18.7724 10.3824 18.5665 10.4937 18.3429 10.5521C18.1194 10.6106 17.8849 10.6145 17.6595 10.5636C17.4679 10.5381 17.2891 10.4534 17.1487 10.3213C17.0083 10.1892 16.9134 10.0166 16.8774 9.82793L16.8912 9.84163ZM17.8666 8.59423C17.9264 8.38647 18.0497 8.20231 18.2195 8.06723C18.3893 7.93215 18.5972 7.85285 18.8144 7.84031C19.0713 7.80463 19.333 7.83107 19.5773 7.91739C19.8216 8.0037 20.0413 8.14733 20.2178 8.33607C20.0861 8.55831 19.9023 8.74564 19.682 8.88209C19.4616 9.01853 19.2114 9.10005 18.9525 9.1197C18.7384 9.15524 18.5185 9.12322 18.3237 9.02814C18.1289 8.93306 17.969 8.7797 17.8666 8.58967V8.59423ZM17.7792 5.17646C17.7103 4.96769 17.7088 4.74279 17.7748 4.53311C17.8407 4.32343 17.971 4.13942 18.1473 4.00673C18.3443 3.83046 18.5812 3.70396 18.8379 3.63794C19.0946 3.57192 19.3635 3.56834 19.6219 3.62749C19.6368 3.88848 19.5883 4.14918 19.4806 4.38771C19.3729 4.62624 19.2092 4.83561 19.0031 4.99826C18.8418 5.14893 18.6373 5.24595 18.418 5.27584C18.1986 5.30573 17.9753 5.267 17.7792 5.16503V5.17646ZM15.0438 2.92154C14.8651 2.77701 14.7364 2.58056 14.6757 2.35974C14.6151 2.13891 14.6255 1.90477 14.7056 1.69014C14.7814 1.42844 14.9188 1.1884 15.1064 0.989786C15.294 0.791176 15.5264 0.639695 15.7846 0.547832C15.9465 0.769937 16.0519 1.02759 16.092 1.29887C16.132 1.57015 16.1055 1.84703 16.0146 2.10594C15.9585 2.32766 15.8342 2.52649 15.659 2.67473C15.4837 2.82297 15.2663 2.91324 15.0369 2.93297L15.0438 2.92154ZM23.2407 16.7023C21.5567 15.6742 18.9916 14.6028 15.2762 14.2646C15.2503 14.457 15.2372 14.6509 15.237 14.8449C15.237 14.966 15.2578 15.1282 15.2601 15.1602C17.9822 15.3128 20.6679 15.8553 23.2338 16.7709C23.2613 16.7821 23.2898 16.7905 23.3189 16.796C23.3397 16.796 23.3489 16.796 23.3489 16.7709C23.3489 16.7457 23.3189 16.732 23.2499 16.6909L23.2407 16.7023ZM13.1113 3.51783C12.815 3.39812 12.5635 3.18967 12.392 2.92148C12.2205 2.65329 12.1374 2.33868 12.1543 2.02141C12.1543 1.20123 12.5454 0.422179 13.1113 0.0566406C13.6773 0.410755 14.0661 1.19895 14.0661 2.02141C14.0828 2.33835 13.9999 2.65261 13.8288 2.92071C13.6578 3.1888 13.407 3.39747 13.1113 3.51783" fill="#D3DADF"/>
<path d="M6.62595 21.2061C6.62275 21.3605 6.66595 21.5123 6.75003 21.6422C6.83411 21.7721 6.95526 21.8741 7.09801 21.9353C7.24076 21.9965 7.39864 22.014 7.55148 21.9857C7.70432 21.9574 7.84519 21.8844 7.95611 21.7762C8.06703 21.668 8.14296 21.5295 8.17421 21.3782C8.20546 21.227 8.19061 21.0699 8.13155 20.9271C8.0725 20.7842 7.97192 20.6621 7.84266 20.5763C7.7134 20.4905 7.56132 20.4449 7.40584 20.4453C7.30433 20.4444 7.20363 20.4634 7.1095 20.5011C7.01537 20.5389 6.92965 20.5947 6.85722 20.6653C6.7848 20.736 6.7271 20.8201 6.68742 20.9129C6.64774 21.0057 6.62685 21.1053 6.62595 21.2061V21.2061ZM12.7156 25.2042C12.7156 26.4036 12.2554 26.9039 11.5653 26.9039C10.8751 26.9039 10.4886 26.3236 10.4886 25.3047C10.4886 24.2858 11.0891 23.4016 12.2002 23.4016C12.3759 23.3998 12.5511 23.4182 12.7225 23.4565L12.7156 25.2042ZM12.7823 27.1735V27.5642C12.7823 28.6334 12.1197 29.0515 11.2938 29.0515C10.7945 29.0463 10.3003 28.9511 9.83524 28.7705V29.8282C10.3583 29.9805 10.9006 30.0575 11.4456 30.0567C12.9686 30.0567 13.9763 29.4307 13.9763 27.29V22.6774C13.4099 22.5298 12.8272 22.453 12.2416 22.4489C10.1044 22.4489 9.18418 23.8723 9.18418 25.4189C9.18418 26.8331 9.90196 27.932 11.2754 27.932C11.5657 27.9406 11.8535 27.8769 12.1126 27.7468C12.3718 27.6167 12.5941 27.4244 12.7593 27.1872L12.7823 27.1735ZM5.51938 26.527C5.06683 26.714 4.58085 26.808 4.09072 26.8034C2.64366 26.8034 1.5762 25.7731 1.5762 24.2058C1.5762 22.6386 2.63446 21.6059 4.09072 21.6059C4.5795 21.5911 5.06605 21.6774 5.51938 21.8595V20.7378C5.01759 20.5721 4.49049 20.4947 3.96189 20.5093C1.71423 20.5093 0.202759 22.0514 0.202759 24.199C0.202759 26.23 1.5946 27.8886 3.96189 27.8886C4.49048 27.9029 5.01753 27.8256 5.51938 27.6601V26.527ZM24.6141 25.211C24.6141 26.4105 24.1425 26.9108 23.4638 26.9108C22.7851 26.9108 22.3849 26.3305 22.3849 25.3116C22.3849 24.2926 22.9876 23.4085 24.0965 23.4085C24.2728 23.407 24.4488 23.4253 24.621 23.4633L24.6141 25.211ZM26.0336 27.8086C25.9436 27.2361 25.8906 26.6584 25.8748 26.0792V22.6774C25.3092 22.5301 24.7272 22.4534 24.1425 22.4489C22.003 22.4489 21.085 23.8723 21.085 25.4189C21.085 26.8331 21.8005 27.932 23.1739 27.932C23.5102 27.9407 23.8417 27.8517 24.1278 27.676C24.4138 27.5003 24.642 27.2454 24.7843 26.9428H24.8189C24.8189 27.1073 24.8764 27.6601 24.8902 27.8155L26.0336 27.8086ZM8.05 22.5723H6.77549V27.8086H8.05V22.5723ZM15.4118 27.8086V24.1875C15.4118 23.7009 15.3681 22.7688 15.3543 22.5563H16.4885L16.5414 23.2943H16.5621C16.7191 23.0278 16.945 22.8081 17.2165 22.6578C17.488 22.5075 17.7951 22.4323 18.1058 22.4398C19.2998 22.4398 19.9624 23.3102 19.9624 24.3954V27.8086H18.6993V24.6445C18.6993 23.9751 18.3266 23.4725 17.6825 23.4725C17.0383 23.4725 16.6679 24.0048 16.6679 24.6445V27.8086H15.4118Z" fill="#D3DADF"/>
<path d="M27.8693 26.907C27.8202 26.8854 27.7665 26.876 27.7129 26.8795H27.6048V27.1423H27.7221C27.7634 27.1444 27.8047 27.139 27.844 27.1263C27.8674 27.1179 27.8874 27.1023 27.9011 27.0817C27.9148 27.0611 27.9214 27.0367 27.9199 27.0121C27.9223 26.9918 27.919 26.9714 27.9105 26.9528C27.902 26.9343 27.8885 26.9185 27.8716 26.907H27.8693ZM27.7313 26.7927C27.799 26.7899 27.8666 26.7984 27.9314 26.8179C27.9674 26.8324 27.9978 26.8579 28.0181 26.8908C28.0384 26.9237 28.0475 26.9622 28.0442 27.0006C28.0466 27.0288 28.0412 27.0571 28.0287 27.0824C28.0161 27.1078 27.9968 27.1293 27.9729 27.1446C27.9405 27.164 27.9045 27.1764 27.867 27.1811C27.892 27.1831 27.9163 27.1904 27.9382 27.2027C27.96 27.2149 27.9789 27.2317 27.9936 27.2519C28.0173 27.2847 28.0308 27.3236 28.0327 27.3639V27.4164C28.0315 27.4347 28.0315 27.453 28.0327 27.4713C28.0318 27.4834 28.0318 27.4956 28.0327 27.5078V27.5078H27.913V27.421C27.913 27.3365 27.89 27.2794 27.8417 27.2542C27.797 27.2343 27.748 27.2256 27.6991 27.2291H27.6048V27.5147H27.4759V26.8019L27.7313 26.7927ZM27.3402 26.7562C27.2869 26.809 27.2445 26.8717 27.2156 26.9407C27.1867 27.0098 27.1718 27.0838 27.1717 27.1586C27.1716 27.2334 27.1863 27.3075 27.215 27.3766C27.2437 27.4457 27.2859 27.5086 27.339 27.5615C27.3922 27.6145 27.4554 27.6565 27.5249 27.6852C27.5944 27.7139 27.669 27.7288 27.7443 27.7289C27.8196 27.729 27.8942 27.7143 27.9638 27.6858C28.0334 27.6573 28.0967 27.6155 28.15 27.5626C28.2575 27.4556 28.3178 27.3106 28.3178 27.1594C28.3178 27.0082 28.2575 26.8632 28.15 26.7562C28.0973 26.7026 28.0343 26.66 27.9648 26.6309C27.8952 26.6018 27.8205 26.5868 27.7451 26.5868C27.6696 26.5868 27.595 26.6018 27.5254 26.6309C27.4559 26.66 27.3929 26.7026 27.3402 26.7562V26.7562ZM28.2167 27.6266C28.0916 27.7508 27.922 27.8205 27.7451 27.8205C27.5682 27.8205 27.3986 27.7508 27.2735 27.6266C27.2115 27.5652 27.1625 27.4922 27.1293 27.4118C27.0962 27.3314 27.0795 27.2452 27.0802 27.1583C27.0794 27.0711 27.0962 26.9848 27.1298 26.9043C27.1635 26.8238 27.2131 26.7509 27.2758 26.6899C27.403 26.5771 27.5689 26.5169 27.7394 26.5218C27.9099 26.5266 28.0721 26.5962 28.1926 26.7161C28.3131 26.836 28.3827 26.9972 28.3872 27.1666C28.3917 27.3359 28.3307 27.5006 28.2167 27.6266" fill="#D3DADF"/>
<path d="M66.5029 27.8073V11.0588C66.5029 10.5608 66.289 10.4146 65.7805 10.4146H64.0896V27.8073H66.5029Z" fill="#D3DADF"/>
<path d="M82.8507 27.8073V17.0216H85.4848V15.0957H82.8507V11.0588C82.8507 10.5608 82.639 10.4146 82.1306 10.4146H80.4397V19.3382C79.366 19.5406 78.275 19.6386 77.1821 19.6307H72.696C72.6451 19.634 72.594 19.6265 72.5462 19.6088C72.4984 19.5911 72.4549 19.5635 72.4186 19.5279C72.3823 19.4923 72.354 19.4494 72.3356 19.4022C72.3172 19.3549 72.3091 19.3043 72.3118 19.2537V10.8943H69.9192V19.9231C69.9239 20.1452 69.9732 20.3642 70.0642 20.5671C70.1551 20.7701 70.286 20.953 70.449 21.1051C70.612 21.2572 70.804 21.3755 71.0136 21.453C71.2233 21.5306 71.4464 21.5658 71.6699 21.5566H77.1913C78.2908 21.5505 79.3851 21.4077 80.4489 21.1317V27.8073H82.8507Z" fill="#D3DADF"/>
<path d="M59.5091 16.7721C59.5091 18.5838 58.3336 19.8495 56.6518 19.8495C54.9701 19.8495 53.7968 18.577 53.7968 16.7721C53.7968 14.2842 55.8282 12.6347 56.6518 12.6347C57.4754 12.6347 59.5091 14.2842 59.5091 16.7721ZM56.6495 10.7271C54.8091 10.7271 51.2754 13.0802 51.2754 16.7676C51.2754 19.7056 53.4862 21.7572 56.6495 21.7572C59.8128 21.7572 62.026 19.701 62.026 16.7676C62.026 13.0802 58.4969 10.7271 56.6495 10.7271Z" fill="#D3DADF"/>
<path d="M114.583 21.977C115.561 21.977 117.488 22.8383 117.488 24.5107C117.488 25.7307 116.322 26.5508 114.583 26.5508C112.844 26.5508 111.677 25.7307 111.677 24.5107C111.677 22.8383 113.633 21.977 114.583 21.977ZM114.583 20.1128C112.86 20.1128 109.167 21.6366 109.167 24.5861C109.167 26.8707 111.344 28.4151 114.583 28.4151C117.822 28.4151 119.998 26.8775 119.998 24.5861C119.998 21.6366 116.297 20.1128 114.583 20.1128Z" fill="#D3DADF"/>
<path d="M46.8583 27.8073V17.0216H49.4902V15.0957H46.8583V11.0588C46.8583 10.5608 46.6467 10.4146 46.1383 10.4146H44.445V20.3092C43.4691 20.4585 42.4832 20.5348 41.4957 20.5377H35.9743C35.9247 20.5405 35.8749 20.5327 35.8286 20.5147C35.7823 20.4967 35.7404 20.4689 35.7059 20.4333C35.6713 20.3977 35.645 20.3551 35.6286 20.3085C35.6122 20.2618 35.6061 20.2122 35.6109 20.163V17.6499H41.6383V10.8943H33.1884V12.8202H39.2296V15.7171H33.1884V20.8187C33.1931 21.0408 33.2423 21.2597 33.3333 21.4627C33.4243 21.6656 33.5551 21.8485 33.7182 22.0007C33.8812 22.1528 34.0732 22.2711 34.2828 22.3486C34.4925 22.4261 34.7156 22.4613 34.9391 22.4522H41.2565C42.3279 22.4521 43.3965 22.3419 44.445 22.1232V27.8073H46.8583V27.8073Z" fill="#D3DADF"/>
<path d="M97.0819 21.978C98.0573 21.978 99.9852 22.8393 99.9852 24.5116C99.9852 25.7316 98.8188 26.5518 97.0819 26.5518C95.3449 26.5518 94.1832 25.7316 94.1832 24.5185C94.1832 22.8461 96.1386 21.9848 97.0911 21.9848L97.0819 21.978ZM97.0911 20.1206C95.368 20.1206 91.6755 21.6444 91.6755 24.5939C91.6755 26.8785 93.8519 28.4229 97.0911 28.4229C100.33 28.4229 102.507 26.8853 102.507 24.5939C102.507 21.6444 98.805 20.1206 97.0911 20.1206Z" fill="#D3DADF"/>
<path d="M114.739 13.8854H117.815V15.7702H114.739V13.8854ZM112.346 17.2849H108.585C108.534 17.2882 108.483 17.2808 108.436 17.2632C108.388 17.2456 108.345 17.2183 108.308 17.1829C108.272 17.1475 108.244 17.105 108.225 17.058C108.207 17.011 108.198 16.9606 108.201 16.9102V12.6631H112.342L112.346 17.2849ZM119.478 10.4151H117.801V11.9526H114.739V10.7349H105.824V17.575C105.829 17.7973 105.878 18.0163 105.969 18.2194C106.06 18.4225 106.191 18.6055 106.354 18.7578C106.517 18.9101 106.709 19.0286 106.918 19.1064C107.128 19.1842 107.351 19.2197 107.575 19.2108H114.75V17.6961H117.824V19.4918H120.203V11.0388C120.203 10.5476 119.991 10.4014 119.49 10.4014" fill="#D3DADF"/>
<path d="M102.268 10.4151H100.593V13.8009H98.9226V11.0593C98.9226 10.5681 98.711 10.4219 98.2094 10.4219H96.53V19.4918H98.9226V15.7291H100.597V19.4918H102.985V11.0388C102.985 10.5476 102.774 10.4014 102.272 10.4014" fill="#D3DADF"/>
<path d="M91.7492 12.4892C91.9793 12.4892 92.0437 12.6469 92.1104 12.9165L93.8128 19.5007H96.2883L94.4892 12.7109C94.1096 11.2624 93.3642 10.561 91.7584 10.561H91.74C90.1296 10.561 89.3888 11.2624 89.0093 12.7109L87.2102 19.4916H89.6879L91.388 12.9073C91.4548 12.6377 91.5307 12.4801 91.7492 12.4801" fill="#D3DADF"/>
</svg>
