<svg width="19" height="20" viewBox="0 0 19 20" fill="none" xmlns="http://www.w3.org/2000/svg">
<path fill-rule="evenodd" clip-rule="evenodd" d="M2.56066 0.93934C1.97488 0.353553 1.02513 0.353553 0.439341 0.93934C-0.146445 1.52513 -0.146445 2.47487 0.439341 3.06066L7.37868 10L0.43934 16.9393C-0.146447 17.5251 -0.146447 18.4749 0.43934 19.0607C1.02513 19.6464 1.97487 19.6464 2.56066 19.0607L9.5 12.1213L16.4393 19.0607C17.0251 19.6464 17.9749 19.6464 18.5607 19.0607C19.1465 18.4749 19.1465 17.5251 18.5607 16.9393L11.6213 10L18.5607 3.06066C19.1464 2.47487 19.1464 1.52513 18.5607 0.93934C17.9749 0.353553 17.0251 0.353553 16.4393 0.93934L9.5 7.87868L2.56066 0.93934Z" fill="white"/>
</svg>
