<svg width="23" height="23" viewBox="0 0 23 23" fill="none" xmlns="http://www.w3.org/2000/svg">
<circle cx="11.5" cy="11.5" r="11.5" fill="#DDDDDD"/>
<path fill-rule="evenodd" clip-rule="evenodd" d="M8.70713 7.29291C8.31661 6.90238 7.68345 6.90236 7.29291 7.29287C6.90238 7.68339 6.90236 8.31655 7.29287 8.70709L10.085 11.4994L7.29287 14.2917C6.90236 14.6823 6.90238 15.3154 7.29291 15.7059C7.68345 16.0965 8.31661 16.0964 8.70713 15.7059L11.4997 12.9132L14.2923 15.7059C14.6828 16.0964 15.316 16.0965 15.7065 15.7059C16.097 15.3154 16.097 14.6823 15.7065 14.2917L12.9144 11.4994L15.7065 8.70709C16.097 8.31655 16.097 7.68339 15.7065 7.29287C15.316 6.90236 14.6828 6.90238 14.2923 7.29291L11.4997 10.0856L8.70713 7.29291Z" fill="white"/>
</svg>
