<svg width="186" height="42" viewBox="0 0 186 42" fill="none" xmlns="http://www.w3.org/2000/svg">
<path d="M6.71118 13.5531C7.08757 13.5531 9.53322 14.6471 9.53322 18.5737C9.53322 20.4492 8.91053 22.0139 8.54108 22.0139C8.37804 22.0139 8.31733 21.8506 8.31733 21.5345C8.31733 20.8321 8.55843 20.2245 8.55843 18.7423C8.55843 15.8782 7.39457 14.7227 6.87249 14.0729C6.71811 13.8797 6.60364 13.7551 6.60364 13.6409C6.60364 13.5952 6.63486 13.5531 6.71118 13.5531V13.5531ZM12.8756 13.6409C12.8756 13.7551 12.7594 13.8797 12.605 14.0729C12.0847 14.7227 10.9191 15.8782 10.9191 18.7423C10.9191 20.2245 11.1602 20.8391 11.1602 21.5345C11.1602 21.8506 11.0995 22.0139 10.9364 22.0139C10.5687 22.0139 9.9443 20.4492 9.9443 18.5737C9.9443 14.6471 12.3917 13.5531 12.7681 13.5531C12.8427 13.5531 12.8756 13.5952 12.8756 13.6409" fill="#007BC6"/>
<path d="M8.84577 14.3399C8.85055 14.518 8.90716 14.6906 9.00848 14.8362C9.1098 14.9818 9.25133 15.0939 9.41531 15.1584C9.5793 15.2228 9.75844 15.2369 9.93026 15.1987C10.1021 15.1605 10.2589 15.0718 10.3812 14.9437C10.5034 14.8156 10.5855 14.6538 10.6173 14.4786C10.649 14.3034 10.629 14.1226 10.5597 13.9589C10.4904 13.7953 10.3748 13.6559 10.2276 13.5584C10.0804 13.461 9.908 13.4097 9.73209 13.411C9.61319 13.4126 9.49576 13.4379 9.38652 13.4854C9.27727 13.533 9.17835 13.6019 9.09541 13.6881C9.01246 13.7744 8.9471 13.8764 8.90308 13.9882C8.85906 14.1 8.83722 14.2196 8.83883 14.3399" fill="#F49C00"/>
<path d="M5.09904 12.8735C4.63246 12.6592 4.28209 12.2308 4.23179 11.8198C4.57869 11.5898 5.12679 11.5722 5.59337 11.7847C5.77788 11.8576 5.93536 11.9869 6.04386 12.1547C6.15236 12.3225 6.20649 12.5203 6.19871 12.7207C6.05548 12.8589 5.87321 12.9484 5.67732 12.9768C5.48144 13.0051 5.28171 12.9708 5.10598 12.8788L5.09904 12.8735ZM6.43633 10.3816C6.13627 9.91449 6.06515 9.32795 6.25248 8.91352C6.69651 8.91352 7.20298 9.21205 7.50305 9.67917C7.62774 9.85377 7.69586 10.0632 7.69804 10.2787C7.70021 10.4941 7.63633 10.7049 7.51519 10.8821C7.30627 10.923 7.08992 10.8968 6.89646 10.8071C6.703 10.7173 6.54211 10.5686 6.43633 10.3816V10.3816ZM7.13013 12.8559C6.955 12.7139 6.81627 12.5312 6.72569 12.3233C6.63511 12.1154 6.59535 11.8885 6.60978 11.6618C6.82871 11.6114 7.05639 11.6149 7.27369 11.672C7.491 11.7292 7.69159 11.8383 7.85862 11.9902C8.00712 12.1042 8.11695 12.2621 8.17288 12.442C8.22882 12.622 8.2281 12.8151 8.17083 12.9947C8.00406 13.0835 7.81401 13.1172 7.62736 13.091C7.4407 13.0649 7.26682 12.9802 7.13013 12.8489V12.8559ZM8.26449 11.653C8.10492 11.1262 8.19511 10.5537 8.47957 10.2183C8.89932 10.3324 9.29478 10.7592 9.45609 11.2719C9.52825 11.4701 9.53746 11.6861 9.48241 11.8898C9.42737 12.0935 9.31083 12.2748 9.14908 12.4081C8.94135 12.3902 8.74436 12.3069 8.58573 12.1699C8.4271 12.0329 8.31477 11.8491 8.26449 11.6442V11.653ZM6.31492 15.4619C6.14498 15.501 5.96825 15.4979 5.79975 15.4529C5.63125 15.408 5.47596 15.3225 5.34707 15.2038C5.42285 15.0446 5.5354 14.9063 5.6752 14.8005C5.81499 14.6948 5.97791 14.6247 6.15014 14.5962C6.29094 14.5597 6.43952 14.5688 6.5749 14.6224C6.71028 14.676 6.82562 14.7712 6.90465 14.8947C6.8775 15.0398 6.80592 15.1725 6.70005 15.274C6.59419 15.3755 6.45944 15.4406 6.31492 15.4602V15.4619ZM5.3384 14.3539C5.14351 14.3385 4.95516 14.2757 4.78938 14.1708C4.62359 14.066 4.48527 13.9221 4.38616 13.7515C4.51902 13.6056 4.68481 13.4943 4.86936 13.4274C5.05392 13.3604 5.25175 13.3397 5.44594 13.3669C5.60903 13.3764 5.76519 13.437 5.89288 13.5401C6.02057 13.6433 6.11349 13.784 6.15881 13.9429C6.08129 14.0892 5.96046 14.2071 5.81329 14.2802C5.66613 14.3532 5.50005 14.3778 5.3384 14.3503V14.3539ZM5.30197 11.1894C5.14714 11.064 5.02417 10.903 4.94331 10.7197C4.86245 10.5364 4.82604 10.3362 4.83713 10.1358C5.03167 10.0903 5.23418 10.093 5.42745 10.1438C5.62071 10.1945 5.79902 10.2918 5.94721 10.4273C6.08013 10.5293 6.17831 10.6707 6.22805 10.8319C6.2778 10.993 6.27664 11.1659 6.22473 11.3264C6.07683 11.4048 5.9085 11.4345 5.74312 11.4116C5.57774 11.3886 5.42355 11.314 5.30197 11.1982V11.1894ZM7.55682 8.95215C7.48875 8.75307 7.46898 8.54034 7.49916 8.3319C7.52935 8.12345 7.60861 7.92542 7.73027 7.75451C7.92528 7.82476 8.10095 7.94105 8.24272 8.09374C8.38449 8.24644 8.48828 8.43114 8.54548 8.63255C8.60587 8.79752 8.61375 8.9775 8.56802 9.14724C8.5223 9.31698 8.42526 9.46798 8.29051 9.57907C8.11751 9.56417 7.95344 9.49487 7.82126 9.38089C7.68908 9.2669 7.59541 9.11393 7.55335 8.94337L7.55682 8.95215ZM2.02725 20.2315C2.02725 20.242 2.02725 20.2508 2.0498 20.2508C2.07177 20.2465 2.09328 20.2401 2.11397 20.2315C4.0454 19.5261 6.06728 19.1068 8.11706 18.9864C8.12802 18.9061 8.13439 18.8252 8.13614 18.7441C8.13531 18.595 8.12604 18.446 8.10839 18.298C5.30544 18.5562 3.37148 19.3798 2.1001 20.17C2.04806 20.2016 2.02551 20.2104 2.02551 20.2315H2.02725ZM13.2824 12.7154C13.2766 12.5154 13.3324 12.3185 13.4421 12.1521C13.5518 11.9856 13.71 11.8578 13.8947 11.7865C14.1079 11.6818 14.3428 11.6303 14.5797 11.6364C14.8166 11.6425 15.0486 11.706 15.2562 11.8216C15.2051 12.0545 15.0998 12.2717 14.9489 12.455C14.798 12.6382 14.6061 12.7823 14.389 12.8752C14.213 12.9675 14.013 13.0018 13.8168 12.9735C13.6206 12.9452 13.438 12.8556 13.2945 12.7172L13.2824 12.7154ZM11.9607 10.8751C11.8402 10.699 11.7766 10.4894 11.7787 10.2752C11.7809 10.0609 11.8487 9.85269 11.9728 9.67917C12.2729 9.21205 12.7776 8.90825 13.2234 8.91352C13.409 9.32269 13.3396 9.91449 13.0396 10.3816C12.9336 10.5684 12.7727 10.717 12.5793 10.8067C12.3859 10.8964 12.1696 10.9228 11.9607 10.8821V10.8751ZM11.3051 12.9947C11.247 12.8141 11.2458 12.6197 11.3018 12.4385C11.3577 12.2572 11.468 12.0981 11.6173 11.9832C11.7846 11.8312 11.9855 11.7221 12.2031 11.665C12.4207 11.6079 12.6486 11.6044 12.8678 11.6548C12.882 11.8815 12.8421 12.1083 12.7515 12.3161C12.661 12.5239 12.5224 12.7066 12.3475 12.8489C12.2108 12.9802 12.0369 13.0649 11.8503 13.091C11.6636 13.1172 11.4736 13.0835 11.3068 12.9947H11.3051ZM10.3268 12.4169C10.1654 12.2833 10.0492 12.102 9.99443 11.8983C9.9397 11.6946 9.94918 11.4787 10.0215 11.2807C10.1794 10.7539 10.5766 10.3324 10.9981 10.2271C11.2808 10.5625 11.371 11.1402 11.2114 11.6618C11.1614 11.8668 11.0491 12.0507 10.8904 12.1877C10.7317 12.3248 10.5346 12.408 10.3268 12.4257V12.4169ZM12.5817 14.9053C12.6587 14.7815 12.772 14.6853 12.9057 14.6299C13.0394 14.5745 13.1869 14.5627 13.3275 14.5962C13.4993 14.6245 13.6619 14.6943 13.8014 14.7998C13.9409 14.9053 14.0532 15.0433 14.1288 15.202C14 15.3209 13.8447 15.4065 13.6762 15.4514C13.5077 15.4964 13.3309 15.4994 13.161 15.4602C13.0165 15.4406 12.8817 15.3755 12.7758 15.274C12.67 15.1725 12.5984 15.0398 12.5712 14.8947L12.5817 14.9053ZM13.3171 13.9464C13.3621 13.7868 13.4551 13.6452 13.5831 13.5414C13.7112 13.4375 13.8679 13.3766 14.0317 13.3669C14.2253 13.3395 14.4226 13.3598 14.6068 13.4262C14.791 13.4925 14.9567 13.6029 15.0897 13.748C14.9905 13.9188 14.8519 14.0628 14.6858 14.1677C14.5196 14.2726 14.331 14.3353 14.1358 14.3503C13.9744 14.3777 13.8086 14.3531 13.6617 14.28C13.5148 14.2069 13.3943 14.089 13.3171 13.9429V13.9464ZM13.2512 11.3194C13.1993 11.1589 13.1981 10.986 13.2478 10.8248C13.2976 10.6637 13.3958 10.5222 13.5287 10.4202C13.6772 10.2847 13.8558 10.1875 14.0494 10.1368C14.2429 10.086 14.4457 10.0833 14.6405 10.1287C14.6517 10.3293 14.6151 10.5297 14.5339 10.7131C14.4527 10.8964 14.3293 11.0574 14.1739 11.1824C14.0523 11.2982 13.8981 11.3728 13.7328 11.3957C13.5674 11.4187 13.3991 11.3889 13.2512 11.3106V11.3194ZM11.1889 9.5861C11.0541 9.475 10.9571 9.324 10.9113 9.15426C10.8656 8.98452 10.8735 8.80455 10.9339 8.63957C10.991 8.43842 11.0946 8.2539 11.236 8.10124C11.3775 7.94858 11.5527 7.83214 11.7474 7.76153C11.8694 7.93225 11.9489 8.1303 11.9791 8.33882C12.0093 8.54734 11.9893 8.76017 11.9208 8.95918C11.8785 9.12961 11.7848 9.28244 11.6526 9.39638C11.5205 9.51033 11.3566 9.57972 11.1836 9.59488L11.1889 9.5861ZM17.3689 20.1788C16.0992 19.3885 14.1652 18.5649 11.364 18.305C11.3445 18.4529 11.3347 18.6019 11.3345 18.7511C11.3345 18.8442 11.3502 18.9688 11.3519 18.9934C13.4043 19.1107 15.4291 19.5277 17.3637 20.2315C17.3844 20.2401 17.4059 20.2465 17.4278 20.2508C17.4434 20.2508 17.4504 20.2508 17.4504 20.2315C17.4504 20.2121 17.4278 20.2016 17.3758 20.17L17.3689 20.1788ZM9.73187 10.0444C9.50844 9.95242 9.31888 9.7922 9.18957 9.58605C9.06025 9.3799 8.9976 9.13807 9.01032 8.8942C9.01032 8.26377 9.30519 7.66495 9.73187 7.38397C10.1586 7.65616 10.4517 8.26201 10.4517 8.8942C10.4643 9.13782 10.4018 9.37938 10.2728 9.58546C10.1439 9.79153 9.95483 9.95192 9.73187 10.0444" fill="#4AB134"/>
<path d="M4.84271 23.64C4.8403 23.7587 4.87287 23.8754 4.93626 23.9752C4.99965 24.075 5.09099 24.1535 5.19862 24.2005C5.30625 24.2475 5.42527 24.261 5.54051 24.2393C5.65574 24.2175 5.76195 24.1614 5.84558 24.0783C5.9292 23.9951 5.98645 23.8886 6.01001 23.7723C6.03357 23.6561 6.02237 23.5353 5.97785 23.4255C5.93333 23.3158 5.8575 23.2219 5.76004 23.1559C5.66259 23.09 5.54793 23.0549 5.43071 23.0553C5.35417 23.0546 5.27825 23.0691 5.20728 23.0982C5.13631 23.1272 5.07168 23.17 5.01708 23.2243C4.96248 23.2786 4.91898 23.3433 4.88906 23.4146C4.85914 23.486 4.84339 23.5625 4.84271 23.64V23.64ZM9.43392 26.7132C9.43392 27.6351 9.08702 28.0197 8.56667 28.0197C8.04632 28.0197 7.75493 27.5737 7.75493 26.7904C7.75493 26.0072 8.20763 25.3276 9.04539 25.3276C9.17781 25.3262 9.30993 25.3404 9.43912 25.3698L9.43392 26.7132ZM9.48422 28.2269V28.5272C9.48422 29.3491 8.98469 29.6704 8.362 29.6704C7.98555 29.6664 7.61294 29.5932 7.26233 29.4544V30.2675C7.65666 30.3846 8.06555 30.4437 8.47648 30.4431C9.62472 30.4431 10.3844 29.9619 10.3844 28.3165V24.771C9.95742 24.6575 9.51808 24.5985 9.07662 24.5953C7.46527 24.5953 6.77147 25.6894 6.77147 26.8782C6.77147 27.9653 7.31263 28.8099 8.34813 28.8099C8.56696 28.8165 8.78395 28.7676 8.97934 28.6676C9.17473 28.5676 9.34232 28.4197 9.46688 28.2375L9.48422 28.2269ZM4.00842 27.7299C3.66723 27.8737 3.30082 27.9459 2.9313 27.9424C1.8403 27.9424 1.03549 27.1504 1.03549 25.9458C1.03549 24.7411 1.83336 23.9473 2.9313 23.9473C3.29981 23.9359 3.66664 24.0023 4.00842 24.1423V23.28C3.6301 23.1527 3.2327 23.0932 2.83417 23.1044C1.13956 23.1044 0 24.2898 0 25.9405C0 27.5017 1.04937 28.7766 2.83417 28.7766C3.23269 28.7876 3.63006 28.7282 4.00842 28.601V27.7299ZM18.4047 26.7184C18.4047 27.6404 18.0492 28.025 17.5375 28.025C17.0258 28.025 16.724 27.5789 16.724 26.7957C16.724 26.0125 17.1784 25.3329 18.0145 25.3329C18.1474 25.3317 18.2801 25.3459 18.4099 25.375L18.4047 26.7184ZM19.4749 28.7151C19.4071 28.275 19.3672 27.831 19.3552 27.3858V24.771C18.9288 24.6577 18.49 24.5987 18.0492 24.5953C16.4361 24.5953 15.744 25.6894 15.744 26.8782C15.744 27.9653 16.2834 28.8099 17.3189 28.8099C17.5725 28.8166 17.8224 28.7482 18.0381 28.6131C18.2537 28.4781 18.4258 28.2822 18.5331 28.0496H18.5591C18.5591 28.176 18.6025 28.601 18.6129 28.7204L19.4749 28.7151ZM5.91636 24.6902H4.95545V28.7151H5.91636V24.6902ZM11.4667 28.7151V25.9317C11.4667 25.5577 11.4338 24.8412 11.4234 24.6779H12.2785L12.3184 25.2451H12.334C12.4523 25.0403 12.6227 24.8714 12.8274 24.7559C13.0321 24.6404 13.2636 24.5825 13.4978 24.5883C14.398 24.5883 14.8976 25.2574 14.8976 26.0915V28.7151H13.9453V26.2829C13.9453 25.7684 13.6644 25.3821 13.1787 25.3821C12.693 25.3821 12.4138 25.7912 12.4138 26.2829V28.7151H11.4667Z" fill="#007BC6"/>
<path d="M20.8591 28.0232C20.822 28.0066 20.7816 27.9994 20.7412 28.0021H20.6596V28.204H20.7481C20.7792 28.2057 20.8104 28.2015 20.84 28.1918C20.8576 28.1853 20.8727 28.1733 20.8831 28.1575C20.8934 28.1417 20.8984 28.1229 20.8973 28.1039C20.899 28.0884 20.8965 28.0727 20.8901 28.0584C20.8837 28.0442 20.8736 28.032 20.8608 28.0232H20.8591ZM20.755 27.9354C20.806 27.9332 20.8571 27.9397 20.9059 27.9547C20.9331 27.9658 20.956 27.9855 20.9712 28.0108C20.9865 28.0361 20.9934 28.0656 20.9909 28.0952C20.9927 28.1168 20.9887 28.1386 20.9792 28.1581C20.9698 28.1775 20.9552 28.1941 20.9371 28.2058C20.9128 28.2207 20.8856 28.2303 20.8574 28.2339C20.8762 28.2354 20.8945 28.2411 20.911 28.2505C20.9275 28.2599 20.9417 28.2728 20.9528 28.2883C20.9706 28.3135 20.9809 28.3434 20.9822 28.3744V28.4148C20.9814 28.4288 20.9814 28.4429 20.9822 28.4569C20.9816 28.4663 20.9816 28.4757 20.9822 28.485V28.485H20.8921V28.4183C20.8921 28.3533 20.8747 28.3094 20.8383 28.2901C20.8046 28.2748 20.7676 28.2681 20.7307 28.2708H20.6596V28.4903H20.5625V27.9424L20.755 27.9354ZM20.4602 27.9073C20.42 27.9479 20.3881 27.9961 20.3663 28.0491C20.3445 28.1022 20.3332 28.1591 20.3331 28.2166C20.333 28.2741 20.3441 28.331 20.3658 28.3841C20.3874 28.4373 20.4192 28.4856 20.4593 28.5263C20.4994 28.567 20.547 28.5993 20.5994 28.6214C20.6519 28.6434 20.7081 28.6549 20.7648 28.6549C20.8216 28.655 20.8778 28.6438 20.9303 28.6218C20.9828 28.5999 21.0305 28.5678 21.0707 28.5272C21.1517 28.4449 21.1972 28.3334 21.1972 28.2172C21.1972 28.101 21.1517 27.9896 21.0707 27.9073C21.031 27.8661 20.9835 27.8333 20.9311 27.811C20.8786 27.7886 20.8223 27.7771 20.7654 27.7771C20.7086 27.7771 20.6522 27.7886 20.5998 27.811C20.5474 27.8333 20.4999 27.8661 20.4602 27.9073V27.9073ZM21.121 28.5763C21.0267 28.6718 20.8988 28.7254 20.7654 28.7254C20.6321 28.7254 20.5042 28.6718 20.4099 28.5763C20.3632 28.5292 20.3262 28.473 20.3012 28.4112C20.2762 28.3494 20.2636 28.2831 20.2642 28.2163C20.2635 28.1494 20.2763 28.083 20.3016 28.0211C20.3269 27.9592 20.3643 27.9032 20.4116 27.8563C20.5075 27.7696 20.6326 27.7233 20.7612 27.7271C20.8897 27.7308 21.012 27.7843 21.1028 27.8765C21.1936 27.9687 21.2461 28.0926 21.2495 28.2227C21.2529 28.3529 21.2069 28.4794 21.121 28.5763" fill="#007BC6"/>
<path d="M49.9863 28.7149V15.8411C49.9863 15.4583 49.825 15.3459 49.4416 15.3459H48.1667V28.7149H49.9863Z" fill="#007BC6"/>
<path d="M62.312 28.7149V20.4245H64.298V18.9441H62.312V15.8411C62.312 15.4583 62.1524 15.3459 61.7691 15.3459H60.4942V22.2051C59.6847 22.3607 58.8621 22.436 58.0382 22.4299H54.6559C54.6175 22.4325 54.579 22.4267 54.543 22.4131C54.5069 22.3995 54.4742 22.3783 54.4468 22.3509C54.4194 22.3235 54.3981 22.2906 54.3842 22.2543C54.3703 22.218 54.3642 22.1791 54.3663 22.1402V15.7147H52.5624V22.6547C52.5659 22.8254 52.6031 22.9937 52.6717 23.1497C52.7403 23.3057 52.8389 23.4463 52.9618 23.5632C53.0847 23.6802 53.2295 23.7711 53.3875 23.8307C53.5456 23.8903 53.7138 23.9173 53.8823 23.9103H58.0451C58.8741 23.9056 59.6991 23.7959 60.5012 23.5837V28.7149H62.312Z" fill="#007BC6"/>
<path d="M44.7139 20.2332C44.7139 21.6258 43.8275 22.5986 42.5596 22.5986C41.2917 22.5986 40.4071 21.6205 40.4071 20.2332C40.4071 18.3208 41.9387 17.0529 42.5596 17.0529C43.1806 17.0529 44.7139 18.3208 44.7139 20.2332ZM42.5579 15.5866C41.1703 15.5866 38.5061 17.3954 38.5061 20.2297C38.5061 22.488 40.173 24.065 42.5579 24.065C44.9428 24.065 46.6114 22.4845 46.6114 20.2297C46.6114 17.3954 43.9507 15.5866 42.5579 15.5866Z" fill="#007BC6"/>
<path d="M86.2355 24.2334C86.9726 24.2334 88.4261 24.8954 88.4261 26.1809C88.4261 27.1186 87.5468 27.7491 86.2355 27.7491C84.9242 27.7491 84.0448 27.1186 84.0448 26.1809C84.0448 24.8954 85.5191 24.2334 86.2355 24.2334ZM86.2355 22.8004C84.9363 22.8004 82.1525 23.9717 82.1525 26.2388C82.1525 27.9949 83.7933 29.182 86.2355 29.182C88.6776 29.182 90.3185 28.0002 90.3185 26.2388C90.3185 23.9717 87.5277 22.8004 86.2355 22.8004Z" fill="#007BC6"/>
<path d="M35.1756 28.7149V20.4245H37.1599V18.9441H35.1756V15.8411C35.1756 15.4583 35.0161 15.3459 34.6327 15.3459H33.3562V22.9515C32.6203 23.0662 31.877 23.1249 31.1325 23.1271H26.9697C26.9323 23.1293 26.8948 23.1233 26.8599 23.1094C26.8249 23.0956 26.7934 23.0742 26.7673 23.0469C26.7413 23.0195 26.7214 22.9868 26.709 22.9509C26.6967 22.9151 26.6921 22.8769 26.6957 22.8391V20.9074H31.2401V15.7147H24.8693V17.195H29.4241V19.4218H24.8693V23.3431C24.8728 23.5138 24.91 23.6821 24.9786 23.8381C25.0471 23.9941 25.1458 24.1347 25.2687 24.2516C25.3916 24.3686 25.5364 24.4595 25.6944 24.5191C25.8525 24.5787 26.0207 24.6057 26.1892 24.5987H30.9521C31.76 24.5986 32.5656 24.5139 33.3562 24.3458V28.7149H35.1756V28.7149Z" fill="#007BC6"/>
<path d="M73.0411 24.2334C73.7766 24.2334 75.23 24.8955 75.23 26.1809C75.23 27.1187 74.3507 27.7491 73.0411 27.7491C71.7316 27.7491 70.8557 27.1187 70.8557 26.1862C70.8557 24.9007 72.33 24.2387 73.0481 24.2387L73.0411 24.2334ZM73.0481 22.8057C71.7489 22.8057 68.9651 23.977 68.9651 26.2441C68.9651 28.0002 70.6059 29.1873 73.0481 29.1873C75.4902 29.1873 77.131 28.0055 77.131 26.2441C77.131 23.977 74.3403 22.8057 73.0481 22.8057Z" fill="#007BC6"/>
<path d="M86.3534 18.0137H88.6724V19.4624H86.3534V18.0137ZM84.5495 20.6267H81.7136C81.6754 20.6292 81.637 20.6235 81.6011 20.61C81.5652 20.5965 81.5325 20.5755 81.5051 20.5483C81.4778 20.5211 81.4564 20.4884 81.4424 20.4523C81.4285 20.4162 81.4221 20.3775 81.4239 20.3387V17.0742H84.546L84.5495 20.6267ZM89.9264 15.3462H88.662V16.528H86.3534V15.592H79.6322V20.8497C79.6358 21.0205 79.6729 21.1889 79.7415 21.345C79.81 21.5011 79.9087 21.6418 80.0315 21.7589C80.1544 21.8759 80.2992 21.967 80.4572 22.0268C80.6153 22.0866 80.7835 22.1139 80.9521 22.1071H86.362V20.9428H88.6793V22.3231H90.4728V15.8256C90.4728 15.448 90.3132 15.3356 89.9351 15.3356" fill="#007BC6"/>
<path d="M76.9508 15.3462H75.6881V17.9487H74.4289V15.8414C74.4289 15.4638 74.2693 15.3514 73.8912 15.3514H72.625V22.3231H74.4289V19.4308H75.6916V22.3231H77.492V15.8256C77.492 15.448 77.3324 15.3356 76.9543 15.3356" fill="#007BC6"/>
<path d="M69.0207 16.9404C69.1941 16.9404 69.2427 17.0616 69.293 17.2688L70.5765 22.3298H72.4428L71.0864 17.1107C70.8003 15.9974 70.2383 15.4583 69.0276 15.4583H69.0137C67.7996 15.4583 67.2411 15.9974 66.9549 17.1107L65.5985 22.3228H67.4666L68.7483 17.2617C68.7986 17.0545 68.8559 16.9334 69.0207 16.9334" fill="#007BC6"/>
<path d="M107 17L116 26" stroke="#019AF9" stroke-width="2" stroke-linecap="round" stroke-linejoin="round"/>
<path d="M116 17L107 26" stroke="#019AF9" stroke-width="2" stroke-linecap="round" stroke-linejoin="round"/>
<path d="M138.962 22.7598C138.862 23.8216 138.47 24.651 137.786 25.248C137.103 25.8405 136.193 26.1367 135.059 26.1367C134.266 26.1367 133.566 25.9499 132.96 25.5762C132.358 25.1979 131.894 24.6624 131.565 23.9697C131.237 23.277 131.066 22.4727 131.053 21.5566V20.627C131.053 19.6882 131.219 18.861 131.552 18.1455C131.884 17.43 132.361 16.8786 132.98 16.4912C133.605 16.1038 134.325 15.9102 135.141 15.9102C136.239 15.9102 137.123 16.2087 137.793 16.8057C138.463 17.4027 138.853 18.2458 138.962 19.335H137.239C137.157 18.6195 136.948 18.1045 136.61 17.79C136.278 17.471 135.788 17.3115 135.141 17.3115C134.389 17.3115 133.81 17.5872 133.404 18.1387C133.003 18.6855 132.798 19.4899 132.789 20.5518V21.4336C132.789 22.5091 132.98 23.3294 133.363 23.8945C133.751 24.4596 134.316 24.7422 135.059 24.7422C135.738 24.7422 136.248 24.5895 136.59 24.2842C136.932 23.9788 137.148 23.4707 137.239 22.7598H138.962ZM144.772 26C144.7 25.8587 144.636 25.6286 144.581 25.3096C144.052 25.861 143.405 26.1367 142.64 26.1367C141.897 26.1367 141.291 25.9248 140.821 25.501C140.352 25.0771 140.117 24.5531 140.117 23.9287C140.117 23.1403 140.409 22.5365 140.992 22.1172C141.58 21.6934 142.419 21.4814 143.508 21.4814H144.526V20.9961C144.526 20.6133 144.419 20.3079 144.205 20.0801C143.991 19.8477 143.665 19.7314 143.228 19.7314C142.849 19.7314 142.539 19.8271 142.298 20.0186C142.056 20.2054 141.936 20.4447 141.936 20.7363H140.274C140.274 20.3307 140.409 19.9525 140.678 19.6016C140.947 19.2461 141.311 18.9681 141.771 18.7676C142.236 18.5671 142.754 18.4668 143.323 18.4668C144.189 18.4668 144.88 18.6855 145.395 19.123C145.91 19.556 146.174 20.1667 146.188 20.9551V24.291C146.188 24.9564 146.281 25.4873 146.468 25.8838V26H144.772ZM142.947 24.8037C143.275 24.8037 143.583 24.724 143.87 24.5645C144.162 24.4049 144.381 24.1908 144.526 23.9219V22.5273H143.631C143.016 22.5273 142.553 22.6344 142.243 22.8486C141.933 23.0628 141.778 23.3659 141.778 23.7578C141.778 24.0768 141.883 24.332 142.093 24.5234C142.307 24.7103 142.592 24.8037 142.947 24.8037ZM151.8 20.1211C151.581 20.0846 151.355 20.0664 151.123 20.0664C150.362 20.0664 149.849 20.3581 149.585 20.9414V26H147.924V18.6035H149.51L149.551 19.4307C149.952 18.7881 150.508 18.4668 151.219 18.4668C151.456 18.4668 151.652 18.4987 151.807 18.5625L151.8 20.1211ZM155.97 26.1367C154.917 26.1367 154.062 25.8063 153.406 25.1455C152.755 24.4801 152.429 23.596 152.429 22.4932V22.2881C152.429 21.5498 152.57 20.8913 152.853 20.3125C153.14 19.7292 153.541 19.2757 154.056 18.9521C154.571 18.6286 155.145 18.4668 155.778 18.4668C156.785 18.4668 157.562 18.7881 158.109 19.4307C158.661 20.0732 158.937 20.9824 158.937 22.1582V22.8281H154.104C154.154 23.4388 154.356 23.9219 154.712 24.2773C155.072 24.6328 155.523 24.8105 156.065 24.8105C156.826 24.8105 157.446 24.5029 157.925 23.8877L158.82 24.7422C158.524 25.1842 158.128 25.5283 157.631 25.7744C157.139 26.016 156.585 26.1367 155.97 26.1367ZM155.771 19.7998C155.316 19.7998 154.947 19.9593 154.664 20.2783C154.386 20.5973 154.208 21.0417 154.131 21.6113H157.296V21.4883C157.259 20.9323 157.111 20.513 156.852 20.2305C156.592 19.9434 156.232 19.7998 155.771 19.7998ZM162.122 24.6191H166.641V26H160.393V16.0469H162.122V24.6191ZM169.573 26H167.912V18.6035H169.573V26ZM167.81 16.6826C167.81 16.4274 167.889 16.2155 168.049 16.0469C168.213 15.8783 168.445 15.7939 168.746 15.7939C169.047 15.7939 169.279 15.8783 169.443 16.0469C169.607 16.2155 169.689 16.4274 169.689 16.6826C169.689 16.9333 169.607 17.1429 169.443 17.3115C169.279 17.4756 169.047 17.5576 168.746 17.5576C168.445 17.5576 168.213 17.4756 168.049 17.3115C167.889 17.1429 167.81 16.9333 167.81 16.6826ZM172.93 18.6035L172.978 19.458C173.524 18.7972 174.242 18.4668 175.131 18.4668C176.671 18.4668 177.455 19.3486 177.482 21.1123V26H175.821V21.208C175.821 20.7386 175.719 20.3923 175.514 20.1689C175.313 19.9411 174.983 19.8271 174.522 19.8271C173.853 19.8271 173.354 20.1302 173.025 20.7363V26H171.364V18.6035H172.93ZM181.584 22.8281L180.846 23.5869V26H179.185V15.5H180.846V21.5566L181.365 20.9072L183.409 18.6035H185.405L182.657 21.6865L185.699 26H183.778L181.584 22.8281Z" fill="#019AF9"/>
</svg>
