<svg width="171" height="42" viewBox="0 0 171 42" fill="none" xmlns="http://www.w3.org/2000/svg">
<path d="M92 17L101 26" stroke="#019AF9" stroke-width="2" stroke-linecap="round" stroke-linejoin="round"/>
<path d="M101 17L92 26" stroke="#019AF9" stroke-width="2" stroke-linecap="round" stroke-linejoin="round"/>
<path d="M5.59255 13.2953C5.9062 13.2953 7.94423 14.207 7.94423 17.4792C7.94423 19.0421 7.42533 20.346 7.11746 20.346C6.98159 20.346 6.931 20.2099 6.931 19.9465C6.931 19.3611 7.13191 18.8548 7.13191 17.6196C7.13191 15.2328 6.16204 14.2699 5.72697 13.7285C5.59833 13.5675 5.50293 13.4636 5.50293 13.3685C5.50293 13.3304 5.52895 13.2953 5.59255 13.2953V13.2953ZM10.7295 13.3685C10.7295 13.4636 10.6327 13.5675 10.5041 13.7285C10.0704 14.2699 9.09912 15.2328 9.09912 17.6196C9.09912 18.8548 9.30003 19.3669 9.30003 19.9465C9.30003 20.2099 9.24944 20.346 9.11357 20.346C8.80714 20.346 8.28679 19.0421 8.28679 17.4792C8.28679 14.207 10.3263 13.2953 10.6399 13.2953C10.7021 13.2953 10.7295 13.3304 10.7295 13.3685" fill="#007BC6"/>
<path d="M7.37157 13.9509C7.37556 14.0993 7.42273 14.2432 7.50717 14.3645C7.5916 14.4858 7.70955 14.5792 7.8462 14.6329C7.98285 14.6867 8.13214 14.6984 8.27532 14.6665C8.41851 14.6347 8.54923 14.5608 8.65108 14.454C8.75293 14.3473 8.82138 14.2124 8.84784 14.0665C8.87431 13.9205 8.85761 13.7698 8.79984 13.6334C8.74207 13.497 8.6458 13.3809 8.52311 13.2997C8.40042 13.2184 8.25677 13.1757 8.11018 13.1768C8.01109 13.1781 7.91324 13.1992 7.8222 13.2388C7.73117 13.2785 7.64873 13.3359 7.57961 13.4077C7.51048 13.4796 7.45602 13.5646 7.41933 13.6578C7.38265 13.751 7.36445 13.8506 7.36579 13.9509" fill="#F49C00"/>
<path d="M4.24926 12.7289C3.86044 12.5504 3.56847 12.1933 3.52655 11.8508C3.81564 11.6591 4.27239 11.6445 4.6612 11.8216C4.81496 11.8823 4.94619 11.9901 5.03661 12.1299C5.12702 12.2697 5.17213 12.4346 5.16565 12.6016C5.04629 12.7168 4.8944 12.7914 4.73116 12.815C4.56793 12.8386 4.40148 12.81 4.25504 12.7333L4.24926 12.7289ZM5.36367 10.6523C5.11362 10.2631 5.05435 9.77428 5.21046 9.42892C5.58048 9.42892 6.00254 9.6777 6.2526 10.067C6.35651 10.2125 6.41328 10.387 6.41509 10.5665C6.4169 10.7461 6.36367 10.9218 6.26272 11.0694C6.08862 11.1035 5.90833 11.0817 5.74711 11.0069C5.58589 10.9321 5.45182 10.8081 5.36367 10.6523V10.6523ZM5.94184 12.7143C5.79589 12.5959 5.68029 12.4436 5.6048 12.2704C5.52932 12.0972 5.49619 11.9081 5.50821 11.7191C5.69065 11.6771 5.88038 11.6801 6.06147 11.7277C6.24256 11.7753 6.40972 11.8662 6.54891 11.9928C6.67266 12.0878 6.76418 12.2194 6.8108 12.3693C6.85741 12.5193 6.85681 12.6803 6.80908 12.8299C6.67011 12.9039 6.51173 12.932 6.35619 12.9102C6.20065 12.8884 6.05575 12.8178 5.94184 12.7084V12.7143ZM6.88714 11.7118C6.75416 11.2728 6.82932 10.7957 7.06637 10.5162C7.41616 10.6113 7.74571 10.967 7.88014 11.3943C7.94027 11.5594 7.94794 11.7394 7.90207 11.9092C7.8562 12.0789 7.75908 12.2299 7.6243 12.3411C7.45118 12.3261 7.28703 12.2567 7.15483 12.1425C7.02264 12.0284 6.92904 11.8752 6.88714 11.7045V11.7118ZM5.26249 14.8859C5.12088 14.9185 4.97361 14.9159 4.83319 14.8784C4.69277 14.841 4.56336 14.7698 4.45595 14.6708C4.5191 14.5382 4.6129 14.4229 4.72939 14.3348C4.84589 14.2466 4.98165 14.1882 5.12518 14.1645C5.24251 14.134 5.36633 14.1417 5.47914 14.1863C5.59196 14.231 5.68808 14.3103 5.75393 14.4133C5.73131 14.5341 5.67166 14.6447 5.58344 14.7293C5.49522 14.8139 5.38292 14.8682 5.26249 14.8845V14.8859ZM4.44873 13.9625C4.28632 13.9497 4.12936 13.8974 3.99121 13.81C3.85305 13.7226 3.73778 13.6028 3.65519 13.4606C3.76591 13.339 3.90407 13.2463 4.05786 13.1905C4.21166 13.1346 4.37652 13.1174 4.53834 13.1401C4.67425 13.148 4.80439 13.1984 4.9108 13.2844C5.0172 13.3704 5.09463 13.4877 5.13241 13.6201C5.0678 13.7419 4.96711 13.8402 4.84447 13.9011C4.72184 13.962 4.58344 13.9825 4.44873 13.9596V13.9625ZM4.41837 11.3255C4.28935 11.221 4.18687 11.0868 4.11948 10.934C4.0521 10.7813 4.02176 10.6145 4.031 10.4474C4.19312 10.4096 4.36188 10.4119 4.52293 10.4541C4.68399 10.4964 4.83258 10.5775 4.95607 10.6904C5.06683 10.7754 5.14865 10.8932 5.1901 11.0275C5.23156 11.1619 5.23059 11.3059 5.18733 11.4396C5.06409 11.5049 4.92381 11.5298 4.78599 11.5106C4.64818 11.4915 4.51968 11.4293 4.41837 11.3328V11.3255ZM6.29741 9.46111C6.24068 9.29521 6.22421 9.11794 6.24936 8.94423C6.27452 8.77053 6.34057 8.6055 6.44195 8.46307C6.60446 8.52162 6.75085 8.61853 6.86899 8.74577C6.98713 8.87302 7.07362 9.02694 7.12129 9.19478C7.17162 9.33226 7.17818 9.48223 7.14008 9.62368C7.10198 9.76514 7.02111 9.89097 6.90882 9.98355C6.76465 9.97113 6.62792 9.91338 6.51778 9.81839C6.40763 9.7234 6.32957 9.59593 6.29452 9.4538L6.29741 9.46111ZM1.68943 18.8605C1.68943 18.8693 1.68943 18.8766 1.70822 18.8766C1.72654 18.8731 1.74446 18.8677 1.7617 18.8605C3.37123 18.2728 5.05613 17.9233 6.76428 17.823C6.77341 17.756 6.77872 17.6886 6.78018 17.621C6.77948 17.4968 6.77176 17.3727 6.75705 17.2493C4.42126 17.4645 2.80963 18.1508 1.75014 18.8093C1.70678 18.8357 1.68799 18.843 1.68799 18.8605H1.68943ZM11.0687 12.5972C11.0639 12.4305 11.1104 12.2664 11.2018 12.1277C11.2933 11.989 11.4251 11.8825 11.5789 11.823C11.7566 11.7358 11.9524 11.6929 12.1498 11.698C12.3472 11.7031 12.5405 11.756 12.7136 11.8523C12.671 12.0464 12.5832 12.2274 12.4575 12.3801C12.3317 12.5329 12.1718 12.6529 11.9909 12.7304C11.8442 12.8072 11.6775 12.8358 11.514 12.8122C11.3506 12.7886 11.1984 12.714 11.0788 12.5986L11.0687 12.5972ZM9.96731 11.0635C9.86685 10.9168 9.81387 10.7421 9.81568 10.5636C9.81749 10.3851 9.87401 10.2116 9.97743 10.067C10.2275 9.6777 10.6481 9.42453 11.0196 9.42892C11.1742 9.76989 11.1164 10.2631 10.8664 10.6523C10.778 10.808 10.644 10.9318 10.4828 11.0066C10.3216 11.0813 10.1414 11.1033 9.96731 11.0694V11.0635ZM9.42094 12.8299C9.37255 12.6794 9.3716 12.5174 9.41822 12.3664C9.46484 12.2153 9.55672 12.0827 9.68112 11.9869C9.82059 11.8603 9.988 11.7694 10.1693 11.7218C10.3506 11.6742 10.5406 11.6713 10.7233 11.7133C10.735 11.9022 10.7018 12.0912 10.6263 12.2644C10.5509 12.4376 10.4354 12.5899 10.2896 12.7084C10.1757 12.8178 10.0308 12.8884 9.87528 12.9102C9.71974 12.932 9.56136 12.9039 9.42239 12.8299H9.42094ZM8.60573 12.3484C8.4712 12.2371 8.37436 12.086 8.32875 11.9162C8.28315 11.7465 8.29104 11.5666 8.35134 11.4016C8.48287 10.9626 8.81387 10.6113 9.16511 10.5235C9.40071 10.8031 9.47587 11.2845 9.34289 11.7191C9.30119 11.89 9.20764 12.0432 9.07541 12.1574C8.94318 12.2716 8.77892 12.341 8.60573 12.3557V12.3484ZM10.4848 14.422C10.549 14.3189 10.6434 14.2387 10.7548 14.1925C10.8662 14.1464 10.9891 14.1366 11.1063 14.1645C11.2495 14.1881 11.385 14.2463 11.5012 14.3342C11.6175 14.422 11.7111 14.537 11.7741 14.6694C11.6667 14.7684 11.5373 14.8397 11.3969 14.8772C11.2564 14.9146 11.1091 14.9171 10.9675 14.8845C10.8471 14.8682 10.7348 14.8139 10.6466 14.7293C10.5584 14.6447 10.4987 14.5341 10.4761 14.4133L10.4848 14.422ZM11.0976 13.623C11.1352 13.4899 11.2126 13.372 11.3193 13.2855C11.426 13.1989 11.5567 13.1481 11.6931 13.1401C11.8545 13.1173 12.0189 13.1342 12.1724 13.1895C12.3259 13.2448 12.464 13.3368 12.5748 13.4577C12.4921 13.6 12.3766 13.72 12.2382 13.8074C12.0998 13.8948 11.9425 13.947 11.7799 13.9596C11.6454 13.9824 11.5072 13.9619 11.3848 13.901C11.2624 13.8401 11.162 13.7418 11.0976 13.6201V13.623ZM11.0427 11.4338C10.9994 11.3001 10.9985 11.156 11.0399 11.0217C11.0814 10.8874 11.1632 10.7695 11.274 10.6845C11.3977 10.5716 11.5466 10.4906 11.7079 10.4483C11.8691 10.406 12.0381 10.4037 12.2005 10.4416C12.2098 10.6088 12.1793 10.7758 12.1117 10.9286C12.044 11.0813 11.9411 11.2155 11.8117 11.3196C11.7103 11.4161 11.5818 11.4783 11.444 11.4974C11.3062 11.5166 11.1659 11.4918 11.0427 11.4265V11.4338ZM9.3241 9.9894C9.21181 9.89682 9.13094 9.77099 9.09284 9.62954C9.05474 9.48809 9.0613 9.33811 9.11163 9.20063C9.15926 9.033 9.24557 8.87924 9.36343 8.75202C9.4813 8.6248 9.62734 8.52777 9.78952 8.46893C9.89124 8.6112 9.95749 8.77624 9.98266 8.95001C10.0078 9.12377 9.99115 9.30113 9.93407 9.46697C9.89882 9.60899 9.8207 9.73635 9.71059 9.83131C9.60048 9.92626 9.46387 9.98408 9.31977 9.99672L9.3241 9.9894ZM14.4741 18.8166C13.4161 18.1581 11.8044 17.4718 9.47009 17.2552C9.45383 17.3784 9.44562 17.5026 9.44552 17.6269C9.44552 17.7045 9.45852 17.8084 9.45997 17.8288C11.1703 17.9266 12.8577 18.2741 14.4698 18.8605C14.487 18.8677 14.5049 18.8731 14.5233 18.8766C14.5363 18.8766 14.542 18.8766 14.542 18.8605C14.542 18.8444 14.5232 18.8357 14.4799 18.8093L14.4741 18.8166ZM8.10996 10.3714C7.92376 10.2947 7.7658 10.1612 7.65803 9.98936C7.55027 9.81757 7.49806 9.61605 7.50866 9.41282C7.50866 8.88746 7.75438 8.38844 8.10996 8.1543C8.46553 8.38112 8.7098 8.886 8.7098 9.41282C8.72031 9.61584 8.66822 9.81714 8.56075 9.98887C8.45329 10.1606 8.29575 10.2943 8.10996 10.3714" fill="#4AB134"/>
<path d="M4.03559 21.701C4.03358 21.7998 4.06072 21.8971 4.11355 21.9803C4.16638 22.0635 4.24249 22.1288 4.33218 22.168C4.42187 22.2072 4.52106 22.2185 4.61709 22.2003C4.71312 22.1822 4.80162 22.1355 4.87131 22.0662C4.941 21.9968 4.98871 21.9081 5.00834 21.8112C5.02797 21.7143 5.01864 21.6137 4.98154 21.5222C4.94444 21.4307 4.88125 21.3525 4.80003 21.2975C4.71882 21.2426 4.62327 21.2134 4.52559 21.2136C4.46181 21.2131 4.39854 21.2252 4.3394 21.2494C4.28026 21.2736 4.2264 21.3093 4.1809 21.3545C4.1354 21.3998 4.09915 21.4537 4.07421 21.5131C4.04928 21.5726 4.03616 21.6364 4.03559 21.701V21.701ZM7.8616 24.2619C7.8616 25.0302 7.57252 25.3507 7.13889 25.3507C6.70527 25.3507 6.46244 24.979 6.46244 24.3263C6.46244 23.6736 6.83969 23.1073 7.53783 23.1073C7.64817 23.1061 7.75827 23.1179 7.86593 23.1424L7.8616 24.2619ZM7.90352 25.5234V25.7736C7.90352 26.4585 7.48724 26.7263 6.96833 26.7263C6.65462 26.723 6.34412 26.662 6.05194 26.5463V27.2238C6.38055 27.3214 6.72129 27.3707 7.06373 27.3702C8.02059 27.3702 8.65368 26.9692 8.65368 25.598V22.6434C8.29785 22.5488 7.93173 22.4997 7.56384 22.497C6.22106 22.497 5.64289 23.4087 5.64289 24.3995C5.64289 25.3053 6.09386 26.0092 6.95677 26.0092C7.13913 26.0147 7.31995 25.9739 7.48278 25.8906C7.6456 25.8073 7.78527 25.684 7.88906 25.5321L7.90352 25.5234ZM3.34035 25.1092C3.05602 25.229 2.75069 25.2892 2.44275 25.2863C1.53358 25.2863 0.862911 24.6263 0.862911 23.6224C0.862911 22.6185 1.5278 21.9571 2.44275 21.9571C2.74984 21.9475 3.05553 22.0028 3.34035 22.1195V21.401C3.02508 21.2948 2.69392 21.2453 2.3618 21.2546C0.949636 21.2546 0 22.2424 0 23.618C0 24.919 0.874475 25.9814 2.3618 25.9814C2.69391 25.9906 3.02505 25.9411 3.34035 25.8351V25.1092ZM15.3373 24.2663C15.3373 25.0346 15.041 25.3551 14.6146 25.3551C14.1882 25.3551 13.9367 24.9834 13.9367 24.3307C13.9367 23.678 14.3154 23.1117 15.0121 23.1117C15.1229 23.1107 15.2334 23.1225 15.3416 23.1468L15.3373 24.2663ZM16.2291 25.9302C16.1726 25.5634 16.1393 25.1934 16.1294 24.8224V22.6434C15.774 22.549 15.4084 22.4999 15.041 22.497C13.6967 22.497 13.12 23.4087 13.12 24.3995C13.12 25.3053 13.5695 26.0092 14.4324 26.0092C14.6437 26.0148 14.852 25.9578 15.0317 25.8452C15.2114 25.7327 15.3548 25.5694 15.4442 25.3756H15.4659C15.4659 25.4809 15.502 25.8351 15.5107 25.9346L16.2291 25.9302ZM4.9303 22.5761H4.12954V25.9302H4.9303V22.5761ZM9.55562 25.9302V23.6107C9.55562 23.299 9.52816 22.7019 9.51949 22.5658H10.2321L10.2653 23.0385H10.2783C10.3769 22.8679 10.5189 22.7271 10.6895 22.6308C10.8601 22.5346 11.053 22.4864 11.2482 22.4912C11.9984 22.4912 12.4146 23.0487 12.4146 23.7439V25.9302H11.6211V23.9034C11.6211 23.4746 11.387 23.1526 10.9822 23.1526C10.5775 23.1526 10.3448 23.4936 10.3448 23.9034V25.9302H9.55562Z" fill="#007BC6"/>
<path d="M17.3825 25.3536C17.3516 25.3398 17.3179 25.3338 17.2842 25.336H17.2163V25.5043H17.29C17.3159 25.5057 17.3419 25.5022 17.3666 25.4941C17.3813 25.4887 17.3939 25.4787 17.4025 25.4655C17.4111 25.4524 17.4152 25.4367 17.4143 25.4209C17.4158 25.408 17.4137 25.3949 17.4084 25.383C17.403 25.3711 17.3946 25.361 17.384 25.3536H17.3825ZM17.2958 25.2804C17.3383 25.2786 17.3808 25.2841 17.4215 25.2965C17.4442 25.3058 17.4632 25.3222 17.476 25.3433C17.4887 25.3643 17.4945 25.389 17.4924 25.4136C17.4939 25.4316 17.4905 25.4498 17.4826 25.466C17.4747 25.4823 17.4626 25.496 17.4476 25.5058C17.4273 25.5182 17.4046 25.5262 17.3811 25.5292C17.3968 25.5305 17.412 25.5352 17.4258 25.543C17.4395 25.5509 17.4514 25.5616 17.4606 25.5746C17.4755 25.5956 17.484 25.6205 17.4851 25.6463V25.6799C17.4844 25.6916 17.4844 25.7034 17.4851 25.7151C17.4846 25.7229 17.4846 25.7307 17.4851 25.7385V25.7385H17.41V25.6829C17.41 25.6287 17.3955 25.5921 17.3652 25.576C17.3371 25.5633 17.3063 25.5577 17.2756 25.5599H17.2163V25.7429H17.1353V25.2863L17.2958 25.2804ZM17.0501 25.257C17.0166 25.2908 16.99 25.331 16.9718 25.3752C16.9536 25.4195 16.9443 25.4669 16.9442 25.5148C16.9441 25.5627 16.9534 25.6101 16.9714 25.6544C16.9895 25.6987 17.0159 25.739 17.0493 25.7729C17.0828 25.8068 17.1224 25.8337 17.1661 25.8521C17.2098 25.8705 17.2566 25.88 17.304 25.8801C17.3513 25.8801 17.3981 25.8708 17.4419 25.8525C17.4856 25.8342 17.5254 25.8074 17.5589 25.7736C17.6264 25.705 17.6643 25.6121 17.6643 25.5153C17.6643 25.4185 17.6264 25.3256 17.5589 25.257C17.5257 25.2227 17.4862 25.1954 17.4425 25.1768C17.3988 25.1581 17.3519 25.1485 17.3045 25.1485C17.2571 25.1485 17.2101 25.1581 17.1664 25.1768C17.1228 25.1954 17.0832 25.2227 17.0501 25.257V25.257ZM17.6008 25.8146C17.5222 25.8941 17.4156 25.9388 17.3045 25.9388C17.1933 25.9388 17.0868 25.8941 17.0082 25.8146C16.9692 25.7753 16.9384 25.7285 16.9176 25.677C16.8967 25.6255 16.8863 25.5702 16.8867 25.5146C16.8862 25.4588 16.8968 25.4034 16.9179 25.3519C16.939 25.3003 16.9702 25.2536 17.0096 25.2146C17.0895 25.1423 17.1938 25.1037 17.3009 25.1069C17.408 25.11 17.5099 25.1545 17.5856 25.2314C17.6613 25.3082 17.7051 25.4114 17.7079 25.5199C17.7107 25.6284 17.6724 25.7338 17.6008 25.8146" fill="#007BC6"/>
<path d="M41.6554 25.9302V15.202C41.6554 14.883 41.521 14.7893 41.2015 14.7893H40.1392V25.9302H41.6554Z" fill="#007BC6"/>
<path d="M51.9264 25.9302V19.0215H53.5814V17.7878H51.9264V15.202C51.9264 14.883 51.7934 14.7893 51.474 14.7893H50.4116V20.5054C49.737 20.635 49.0516 20.6977 48.3649 20.6927H45.5464C45.5144 20.6948 45.4823 20.69 45.4523 20.6787C45.4222 20.6673 45.3949 20.6497 45.3721 20.6268C45.3493 20.604 45.3315 20.5766 45.32 20.5463C45.3084 20.516 45.3033 20.4836 45.305 20.4512V15.0966H43.8018V20.88C43.8047 21.0223 43.8357 21.1625 43.8928 21.2925C43.95 21.4225 44.0322 21.5397 44.1346 21.6371C44.2371 21.7345 44.3577 21.8103 44.4894 21.86C44.6211 21.9096 44.7613 21.9322 44.9017 21.9263H48.3707C49.0615 21.9224 49.7491 21.8309 50.4174 21.6541V25.9302H51.9264Z" fill="#007BC6"/>
<path d="M37.2615 18.8619C37.2615 20.0224 36.5229 20.8331 35.4663 20.8331C34.4097 20.8331 33.6726 20.018 33.6726 18.8619C33.6726 17.2683 34.9489 16.2117 35.4663 16.2117C35.9838 16.2117 37.2615 17.2683 37.2615 18.8619ZM35.4649 14.9897C34.3085 14.9897 32.0884 16.4971 32.0884 18.859C32.0884 20.7409 33.4774 22.0551 35.4649 22.0551C37.4523 22.0551 38.8428 20.738 38.8428 18.859C38.8428 16.4971 36.6255 14.9897 35.4649 14.9897Z" fill="#007BC6"/>
<path d="M71.863 22.1955C72.4773 22.1955 73.6885 22.7472 73.6885 23.8184C73.6885 24.5998 72.9557 25.1252 71.863 25.1252C70.7702 25.1252 70.0374 24.5998 70.0374 23.8184C70.0374 22.7472 71.266 22.1955 71.863 22.1955ZM71.863 21.0013C70.7803 21.0013 68.4604 21.9774 68.4604 23.8667C68.4604 25.3301 69.8278 26.3193 71.863 26.3193C73.8981 26.3193 75.2655 25.3345 75.2655 23.8667C75.2655 21.9774 72.9398 21.0013 71.863 21.0013Z" fill="#007BC6"/>
<path d="M29.3133 25.9302V19.0215H30.9668V17.7878H29.3133V15.202C29.3133 14.883 29.1803 14.7893 28.8608 14.7893H27.797V21.1273C27.1838 21.2229 26.5644 21.2718 25.944 21.2736H22.475C22.4438 21.2755 22.4126 21.2704 22.3834 21.2589C22.3543 21.2474 22.328 21.2296 22.3063 21.2068C22.2846 21.184 22.2681 21.1567 22.2578 21.1268C22.2475 21.0969 22.2437 21.0652 22.2466 21.0336V19.4239H26.0336V15.0966H20.7246V16.3303H24.5203V18.1859H20.7246V21.4536C20.7276 21.5959 20.7585 21.7362 20.8157 21.8662C20.8728 21.9962 20.955 22.1133 21.0575 22.2108C21.1599 22.3082 21.2805 22.384 21.4122 22.4336C21.544 22.4833 21.6841 22.5058 21.8246 22.5H25.7937C26.4668 22.4999 27.1382 22.4293 27.797 22.2892V25.9302H29.3133V25.9302Z" fill="#007BC6"/>
<path d="M60.8674 22.1955C61.4803 22.1955 62.6915 22.7472 62.6915 23.8184C62.6915 24.5999 61.9587 25.1252 60.8674 25.1252C59.7761 25.1252 59.0462 24.5999 59.0462 23.8228C59.0462 22.7516 60.2748 22.1999 60.8732 22.1999L60.8674 22.1955ZM60.8732 21.0057C59.7906 21.0057 57.4707 21.9818 57.4707 23.8711C57.4707 25.3345 58.8381 26.3237 60.8732 26.3237C62.9083 26.3237 64.2757 25.3389 64.2757 23.8711C64.2757 21.9818 61.95 21.0057 60.8732 21.0057Z" fill="#007BC6"/>
<path d="M71.9613 17.0124H73.8938V18.2198H71.9613V17.0124ZM70.4581 19.19H68.0948C68.063 19.1921 68.031 19.1873 68.0011 19.1761C67.9712 19.1648 67.9439 19.1473 67.9211 19.1246C67.8984 19.102 67.8806 19.0747 67.8689 19.0446C67.8572 19.0145 67.852 18.9823 67.8535 18.95V16.2295H70.4552L70.4581 19.19ZM74.9389 14.7895H73.8852V15.7744H71.9613V14.9944H66.3604V19.3758C66.3633 19.5182 66.3943 19.6585 66.4514 19.7886C66.5085 19.9187 66.5907 20.0359 66.6931 20.1335C66.7956 20.231 66.9161 20.3069 67.0479 20.3567C67.1796 20.4066 67.3198 20.4293 67.4603 20.4236H71.9686V19.4534H73.8996V20.6036H75.3942V15.1891C75.3942 14.8744 75.2612 14.7808 74.9461 14.7808" fill="#007BC6"/>
<path d="M64.1259 14.7895H63.0736V16.9583H62.0242V15.2022C62.0242 14.8876 61.8912 14.7939 61.5761 14.7939H60.521V20.6036H62.0242V18.1934H63.0765V20.6036H64.5768V15.1891C64.5768 14.8744 64.4438 14.7808 64.1287 14.7808" fill="#007BC6"/>
<path d="M57.5173 16.118C57.6619 16.118 57.7023 16.219 57.7443 16.3917L58.8139 20.6092H60.3691L59.2388 16.26C59.0003 15.3322 58.532 14.8829 57.5231 14.8829H57.5115C56.4998 14.8829 56.0343 15.3322 55.7958 16.26L54.6655 20.6034H56.2222L57.2904 16.3858C57.3323 16.2132 57.38 16.1122 57.5173 16.1122" fill="#007BC6"/>
<path d="M123.962 22.7598C123.862 23.8216 123.47 24.651 122.786 25.248C122.103 25.8405 121.193 26.1367 120.059 26.1367C119.266 26.1367 118.566 25.9499 117.96 25.5762C117.358 25.1979 116.894 24.6624 116.565 23.9697C116.237 23.277 116.066 22.4727 116.053 21.5566V20.627C116.053 19.6882 116.219 18.861 116.552 18.1455C116.884 17.43 117.361 16.8786 117.98 16.4912C118.605 16.1038 119.325 15.9102 120.141 15.9102C121.239 15.9102 122.123 16.2087 122.793 16.8057C123.463 17.4027 123.853 18.2458 123.962 19.335H122.239C122.157 18.6195 121.948 18.1045 121.61 17.79C121.278 17.471 120.788 17.3115 120.141 17.3115C119.389 17.3115 118.81 17.5872 118.404 18.1387C118.003 18.6855 117.798 19.4899 117.789 20.5518V21.4336C117.789 22.5091 117.98 23.3294 118.363 23.8945C118.751 24.4596 119.316 24.7422 120.059 24.7422C120.738 24.7422 121.248 24.5895 121.59 24.2842C121.932 23.9788 122.148 23.4707 122.239 22.7598H123.962ZM129.772 26C129.7 25.8587 129.636 25.6286 129.581 25.3096C129.052 25.861 128.405 26.1367 127.64 26.1367C126.897 26.1367 126.291 25.9248 125.821 25.501C125.352 25.0771 125.117 24.5531 125.117 23.9287C125.117 23.1403 125.409 22.5365 125.992 22.1172C126.58 21.6934 127.419 21.4814 128.508 21.4814H129.526V20.9961C129.526 20.6133 129.419 20.3079 129.205 20.0801C128.991 19.8477 128.665 19.7314 128.228 19.7314C127.849 19.7314 127.539 19.8271 127.298 20.0186C127.056 20.2054 126.936 20.4447 126.936 20.7363H125.274C125.274 20.3307 125.409 19.9525 125.678 19.6016C125.947 19.2461 126.311 18.9681 126.771 18.7676C127.236 18.5671 127.754 18.4668 128.323 18.4668C129.189 18.4668 129.88 18.6855 130.395 19.123C130.91 19.556 131.174 20.1667 131.188 20.9551V24.291C131.188 24.9564 131.281 25.4873 131.468 25.8838V26H129.772ZM127.947 24.8037C128.275 24.8037 128.583 24.724 128.87 24.5645C129.162 24.4049 129.381 24.1908 129.526 23.9219V22.5273H128.631C128.016 22.5273 127.553 22.6344 127.243 22.8486C126.933 23.0628 126.778 23.3659 126.778 23.7578C126.778 24.0768 126.883 24.332 127.093 24.5234C127.307 24.7103 127.592 24.8037 127.947 24.8037ZM136.8 20.1211C136.581 20.0846 136.355 20.0664 136.123 20.0664C135.362 20.0664 134.849 20.3581 134.585 20.9414V26H132.924V18.6035H134.51L134.551 19.4307C134.952 18.7881 135.508 18.4668 136.219 18.4668C136.456 18.4668 136.652 18.4987 136.807 18.5625L136.8 20.1211ZM140.97 26.1367C139.917 26.1367 139.062 25.8063 138.406 25.1455C137.755 24.4801 137.429 23.596 137.429 22.4932V22.2881C137.429 21.5498 137.57 20.8913 137.853 20.3125C138.14 19.7292 138.541 19.2757 139.056 18.9521C139.571 18.6286 140.145 18.4668 140.778 18.4668C141.785 18.4668 142.562 18.7881 143.109 19.4307C143.661 20.0732 143.937 20.9824 143.937 22.1582V22.8281H139.104C139.154 23.4388 139.356 23.9219 139.712 24.2773C140.072 24.6328 140.523 24.8105 141.065 24.8105C141.826 24.8105 142.446 24.5029 142.925 23.8877L143.82 24.7422C143.524 25.1842 143.128 25.5283 142.631 25.7744C142.139 26.016 141.585 26.1367 140.97 26.1367ZM140.771 19.7998C140.316 19.7998 139.947 19.9593 139.664 20.2783C139.386 20.5973 139.208 21.0417 139.131 21.6113H142.296V21.4883C142.259 20.9323 142.111 20.513 141.852 20.2305C141.592 19.9434 141.232 19.7998 140.771 19.7998ZM147.122 24.6191H151.641V26H145.393V16.0469H147.122V24.6191ZM154.573 26H152.912V18.6035H154.573V26ZM152.81 16.6826C152.81 16.4274 152.889 16.2155 153.049 16.0469C153.213 15.8783 153.445 15.7939 153.746 15.7939C154.047 15.7939 154.279 15.8783 154.443 16.0469C154.607 16.2155 154.689 16.4274 154.689 16.6826C154.689 16.9333 154.607 17.1429 154.443 17.3115C154.279 17.4756 154.047 17.5576 153.746 17.5576C153.445 17.5576 153.213 17.4756 153.049 17.3115C152.889 17.1429 152.81 16.9333 152.81 16.6826ZM157.93 18.6035L157.978 19.458C158.524 18.7972 159.242 18.4668 160.131 18.4668C161.671 18.4668 162.455 19.3486 162.482 21.1123V26H160.821V21.208C160.821 20.7386 160.719 20.3923 160.514 20.1689C160.313 19.9411 159.983 19.8271 159.522 19.8271C158.853 19.8271 158.354 20.1302 158.025 20.7363V26H156.364V18.6035H157.93ZM166.584 22.8281L165.846 23.5869V26H164.185V15.5H165.846V21.5566L166.365 20.9072L168.409 18.6035H170.405L167.657 21.6865L170.699 26H168.778L166.584 22.8281Z" fill="#019AF9"/>
</svg>
