<svg width="84" height="22" viewBox="0 0 84 22" fill="none" xmlns="http://www.w3.org/2000/svg">
<g clip-path="url(#clip0_316_35)">
<path d="M6.22122 5.63745C6.56997 5.63745 8.83601 6.63721 8.83601 10.2254C8.83601 11.9393 8.25906 13.3691 7.91674 13.3691C7.76567 13.3691 7.70942 13.2199 7.70942 12.931C7.70942 12.2891 7.93281 11.7339 7.93281 10.3795C7.93281 7.76214 6.85443 6.70621 6.37069 6.11246C6.22765 5.93593 6.12158 5.822 6.12158 5.71769C6.12158 5.67597 6.15051 5.63745 6.22122 5.63745ZM11.9329 5.71769C11.9329 5.822 11.8253 5.93593 11.6822 6.11246C11.2001 6.70621 10.1201 7.76214 10.1201 10.3795C10.1201 11.7339 10.3435 12.2956 10.3435 12.931C10.3435 13.2199 10.2872 13.3691 10.1362 13.3691C9.79547 13.3691 9.2169 11.9393 9.2169 10.2254C9.2169 6.63721 11.4846 5.63745 11.8333 5.63745C11.9024 5.63745 11.9329 5.67597 11.9329 5.71769Z" fill="white"/>
<path d="M8.19962 6.35638C8.20406 6.51908 8.2565 6.67685 8.35039 6.8099C8.44427 6.94295 8.5754 7.04536 8.72735 7.10428C8.87929 7.1632 9.04527 7.17601 9.20448 7.14111C9.36369 7.1062 9.50903 7.02514 9.62227 6.90808C9.73552 6.79101 9.81163 6.64317 9.84105 6.48309C9.87048 6.323 9.85191 6.15781 9.78768 6.00822C9.72345 5.85863 9.61641 5.73131 9.47999 5.64223C9.34358 5.55314 9.18386 5.50627 9.02086 5.50747C8.91069 5.50893 8.80189 5.53206 8.70066 5.57551C8.59944 5.61897 8.50779 5.68191 8.43093 5.76074C8.35407 5.83957 8.29352 5.93275 8.25273 6.03495C8.21193 6.13715 8.1917 6.24637 8.19319 6.35638" fill="white"/>
<path d="M4.72819 5.01645C4.29588 4.82067 3.97124 4.42911 3.92463 4.0536C4.24606 3.84337 4.75391 3.82733 5.18622 4.0215C5.35719 4.08812 5.5031 4.20631 5.60363 4.35962C5.70416 4.51293 5.75432 4.69372 5.74711 4.87683C5.6144 5.00315 5.44551 5.08495 5.26401 5.11084C5.08251 5.13673 4.89745 5.10542 4.73462 5.02126L4.72819 5.01645ZM5.96729 2.73931C5.68925 2.31244 5.62336 1.77646 5.79693 1.39774C6.20835 1.39774 6.67763 1.67054 6.95567 2.09741C7.0712 2.25696 7.13432 2.44837 7.13633 2.64525C7.13835 2.84213 7.07916 3.03478 6.96692 3.19666C6.77334 3.23409 6.57288 3.21012 6.39362 3.12811C6.21437 3.04609 6.0653 2.91015 5.96729 2.73931ZM6.61013 5.0004C6.44787 4.87058 6.31932 4.70363 6.23539 4.51367C6.15147 4.32372 6.11463 4.11636 6.128 3.90917C6.33085 3.86311 6.5418 3.86632 6.74315 3.91854C6.9445 3.97075 7.13036 4.07045 7.28513 4.20926C7.42272 4.31341 7.52448 4.45771 7.57631 4.62217C7.62814 4.78663 7.62748 4.96311 7.57441 5.12717C7.41989 5.20833 7.24379 5.23913 7.07084 5.21524C6.8979 5.19135 6.73679 5.11398 6.61013 4.99398V5.0004ZM7.66119 3.90115C7.51334 3.41972 7.59691 2.89657 7.86048 2.59007C8.2494 2.69437 8.61582 3.08433 8.76529 3.55292C8.83215 3.73399 8.84068 3.93141 8.78968 4.11757C8.73867 4.30372 8.63069 4.46931 8.48083 4.59119C8.28834 4.57478 8.10582 4.49865 7.95884 4.37347C7.81186 4.24829 7.70778 4.08033 7.66119 3.89312V3.90115ZM5.85479 7.38185C5.69733 7.41751 5.53358 7.41469 5.37745 7.37362C5.22132 7.33255 5.07743 7.25445 4.95801 7.14595C5.02822 7.0005 5.13251 6.8741 5.26204 6.77744C5.39157 6.68079 5.54252 6.61673 5.70211 6.59071C5.83257 6.55733 5.97024 6.5657 6.09567 6.61465C6.22111 6.6636 6.32798 6.75065 6.40121 6.86351C6.37606 6.99605 6.30973 7.11731 6.21164 7.21007C6.11355 7.30282 5.98869 7.36237 5.85479 7.38024V7.38185ZM4.94998 6.36925C4.7694 6.3552 4.59488 6.29783 4.44127 6.20199C4.28766 6.10616 4.15949 5.97472 4.06767 5.81882C4.19076 5.68543 4.34438 5.58379 4.51538 5.52259C4.68639 5.46139 4.86969 5.44245 5.04962 5.46738C5.20074 5.47606 5.34543 5.53136 5.46374 5.62564C5.58205 5.71991 5.66815 5.84853 5.71015 5.99374C5.63832 6.12735 5.52635 6.23513 5.39 6.30191C5.25364 6.36869 5.09976 6.39112 4.94998 6.36604V6.36925ZM4.91623 3.47749C4.77277 3.36291 4.65882 3.21573 4.5839 3.04824C4.50898 2.88075 4.47524 2.6978 4.48552 2.51464C4.66577 2.47309 4.85341 2.47561 5.03249 2.52199C5.21156 2.56837 5.37677 2.65723 5.51408 2.78103C5.63724 2.87423 5.7282 3.00348 5.7743 3.15077C5.82039 3.29805 5.81931 3.45602 5.77122 3.60266C5.63419 3.67429 5.47821 3.70149 5.32498 3.6805C5.17174 3.6595 5.02887 3.59135 4.91623 3.48552V3.47749ZM7.00549 1.43304C6.94242 1.25112 6.9241 1.05671 6.95207 0.866235C6.98004 0.675756 7.05348 0.494789 7.1662 0.338602C7.34689 0.402799 7.50966 0.509069 7.64102 0.648606C7.77238 0.788143 7.86854 0.956929 7.92155 1.14098C7.9775 1.29174 7.9848 1.4562 7.94244 1.61131C7.90007 1.76643 7.81016 1.90442 7.6853 2.00594C7.525 1.99231 7.37298 1.92899 7.25051 1.82483C7.12804 1.72066 7.04124 1.58087 7.00227 1.42502L7.00549 1.43304ZM1.88198 11.7403C1.88198 11.75 1.88198 11.758 1.90287 11.758C1.92324 11.7541 1.94316 11.7482 1.96233 11.7403C3.75193 11.0958 5.62533 10.7126 7.52459 10.6026C7.53474 10.5292 7.54065 10.4552 7.54227 10.3811C7.5415 10.2449 7.53291 10.1088 7.51655 9.97352C4.91944 10.2094 3.1275 10.962 1.94948 11.6842C1.90126 11.7131 1.88037 11.7211 1.88037 11.7403H1.88198ZM12.3106 4.87202C12.3052 4.68923 12.357 4.5093 12.4586 4.35719C12.5603 4.20507 12.7068 4.08832 12.8779 4.02311C13.0755 3.92742 13.2931 3.8804 13.5126 3.88598C13.7321 3.89156 13.9471 3.94959 14.1395 4.0552C14.0922 4.26804 13.9945 4.46649 13.8547 4.63398C13.7149 4.80148 13.5371 4.93316 13.3359 5.01805C13.1729 5.10234 12.9875 5.13372 12.8058 5.10783C12.624 5.08195 12.4548 5.00007 12.3219 4.87362L12.3106 4.87202ZM11.086 3.19024C10.9743 3.02935 10.9154 2.8378 10.9174 2.64204C10.9194 2.44628 10.9822 2.25597 11.0972 2.09741C11.3753 1.67054 11.8429 1.39292 12.256 1.39774C12.4279 1.77164 12.3636 2.31244 12.0856 2.73931C11.9874 2.90998 11.8383 3.04578 11.6591 3.12777C11.4799 3.20976 11.2795 3.23385 11.086 3.19666V3.19024ZM10.4785 5.12717C10.4247 4.96218 10.4236 4.78455 10.4754 4.61893C10.5273 4.4533 10.6294 4.30789 10.7678 4.20284C10.9228 4.06401 11.109 3.96432 11.3106 3.91211C11.5122 3.85989 11.7234 3.85669 11.9265 3.90275C11.9396 4.10991 11.9026 4.31718 11.8187 4.50709C11.7348 4.697 11.6064 4.86399 11.4444 4.99398C11.3177 5.11398 11.1566 5.19135 10.9837 5.21524C10.8107 5.23913 10.6346 5.20833 10.4801 5.12717H10.4785ZM9.57206 4.59921C9.42248 4.47713 9.31481 4.31145 9.2641 4.12531C9.21339 3.93917 9.22217 3.74186 9.28921 3.56094C9.43546 3.07951 9.80349 2.69437 10.194 2.59809C10.456 2.9046 10.5396 3.43256 10.3917 3.90917C10.3453 4.09649 10.2413 4.26458 10.0943 4.3898C9.94726 4.51502 9.76462 4.59106 9.57206 4.60724V4.59921ZM11.6613 6.87314C11.7327 6.76008 11.8377 6.6721 11.9616 6.62146C12.0855 6.57083 12.2221 6.56008 12.3524 6.59071C12.5116 6.61655 12.6623 6.68037 12.7915 6.77676C12.9208 6.87314 13.0248 6.99924 13.0949 7.14435C12.9755 7.25296 12.8316 7.33114 12.6755 7.37222C12.5193 7.41329 12.3556 7.41605 12.1981 7.38024C12.0642 7.36237 11.9393 7.30282 11.8412 7.21007C11.7432 7.11731 11.6768 6.99605 11.6517 6.86351L11.6613 6.87314ZM12.3427 5.99695C12.3845 5.85102 12.4706 5.72165 12.5893 5.62677C12.7079 5.53189 12.8531 5.47619 13.0049 5.46738C13.1843 5.44232 13.3671 5.46089 13.5378 5.52152C13.7085 5.58215 13.862 5.68304 13.9852 5.81561C13.8932 5.97172 13.7648 6.1033 13.6109 6.19914C13.457 6.29498 13.2822 6.35224 13.1013 6.36604C12.9518 6.39101 12.7981 6.36852 12.662 6.30173C12.526 6.23494 12.4143 6.12722 12.3427 5.99374V5.99695ZM12.2817 3.59624C12.2336 3.4496 12.2325 3.29163 12.2786 3.14435C12.3247 2.99707 12.4157 2.86781 12.5388 2.77461C12.6764 2.6508 12.8419 2.56194 13.0213 2.51556C13.2006 2.46919 13.3885 2.46667 13.569 2.50822C13.5793 2.69155 13.5455 2.87467 13.4702 3.04222C13.395 3.20976 13.2806 3.35683 13.1367 3.47107C13.024 3.57691 12.8811 3.64506 12.7279 3.66605C12.5747 3.68705 12.4187 3.65984 12.2817 3.58822V3.59624ZM10.3708 2.01236C10.2459 1.91083 10.156 1.77285 10.1137 1.61773C10.0713 1.46262 10.0786 1.29816 10.1346 1.1474C10.1875 0.963578 10.2835 0.794964 10.4145 0.655457C10.5456 0.51595 10.708 0.409547 10.8883 0.345021C11.0014 0.501032 11.0751 0.682013 11.103 0.872565C11.131 1.06312 11.1125 1.2576 11.049 1.43946C11.0098 1.5952 10.923 1.73486 10.8005 1.83899C10.6781 1.94312 10.5262 2.00652 10.366 2.02038L10.3708 2.01236ZM16.097 11.6922C14.9206 10.9701 13.1286 10.2174 10.5331 9.97994C10.515 10.1151 10.5059 10.2512 10.5058 10.3875C10.5058 10.4726 10.5203 10.5865 10.5219 10.609C12.4235 10.7162 14.2997 11.0972 16.0922 11.7403C16.1113 11.7482 16.1313 11.7541 16.1516 11.758C16.1661 11.758 16.1725 11.758 16.1725 11.7403C16.1725 11.7227 16.1516 11.7131 16.1034 11.6842L16.097 11.6922ZM9.02082 2.4312C8.81379 2.34711 8.63816 2.20069 8.51833 2.01231C8.39851 1.82393 8.34046 1.60294 8.35226 1.38008C8.35226 0.80398 8.62547 0.25676 9.02082 0C9.41617 0.248736 9.68778 0.802375 9.68778 1.38008C9.69945 1.60271 9.64154 1.82346 9.52205 2.01177C9.40256 2.20008 9.2274 2.34665 9.02082 2.4312Z" fill="white"/>
<path d="M4.49026 14.8552C4.48803 14.9636 4.5182 15.0703 4.57694 15.1615C4.63568 15.2527 4.72031 15.3244 4.82004 15.3674C4.91976 15.4104 5.03005 15.4227 5.13682 15.4028C5.24359 15.3829 5.342 15.3317 5.41948 15.2557C5.49697 15.1797 5.55001 15.0823 5.57184 14.9761C5.59367 14.8699 5.5833 14.7595 5.54204 14.6592C5.50079 14.5589 5.43053 14.4731 5.34023 14.4128C5.24993 14.3526 5.14369 14.3205 5.03508 14.3208C4.96416 14.3202 4.89382 14.3335 4.82806 14.36C4.7623 14.3865 4.70242 14.4257 4.65183 14.4753C4.60123 14.525 4.56093 14.584 4.53321 14.6492C4.50549 14.7144 4.49089 14.7844 4.49026 14.8552ZM8.74432 17.6635C8.74432 18.506 8.42289 18.8575 7.94076 18.8575C7.45862 18.8575 7.18862 18.4498 7.18862 17.7341C7.18862 17.0184 7.60808 16.3974 8.38432 16.3974C8.50701 16.3961 8.62943 16.409 8.74914 16.4359L8.74432 17.6635ZM8.79093 19.0468V19.3212C8.79093 20.0722 8.32807 20.3659 7.75112 20.3659C7.40231 20.3623 7.05706 20.2954 6.7322 20.1685V20.9115C7.09757 21.0185 7.47643 21.0726 7.85719 21.072C8.9211 21.072 9.62502 20.6323 9.62502 19.1287V15.8887C9.22937 15.785 8.82229 15.7311 8.41325 15.7282C6.92023 15.7282 6.27738 16.7279 6.27738 17.8144C6.27738 18.8077 6.77881 19.5796 7.73826 19.5796C7.94102 19.5856 8.14207 19.5409 8.32312 19.4495C8.50416 19.3581 8.65945 19.223 8.77485 19.0564L8.79093 19.0468ZM3.71724 18.5927C3.4011 18.724 3.0616 18.7901 2.71921 18.7868C1.70833 18.7868 0.962627 18.0631 0.962627 16.9622C0.962627 15.8614 1.7019 15.136 2.71921 15.136C3.06066 15.1256 3.40055 15.1863 3.71724 15.3142V14.5262C3.3667 14.4098 2.99848 14.3555 2.62921 14.3658C1.05905 14.3658 0.00317383 15.449 0.00317383 16.9574C0.00317383 18.3841 0.975484 19.5491 2.62921 19.5491C2.99847 19.5592 3.36666 19.5049 3.71724 19.3886V18.5927ZM17.0564 17.6683C17.0564 18.5108 16.7269 18.8623 16.2528 18.8623C15.7787 18.8623 15.4991 18.4547 15.4991 17.7389C15.4991 17.0232 15.9201 16.4022 16.6948 16.4022C16.818 16.4011 16.9409 16.414 17.0612 16.4407L17.0564 17.6683ZM18.048 19.4929C17.9852 19.0908 17.9481 18.685 17.9371 18.2781V15.8887C17.5419 15.7852 17.1354 15.7313 16.7269 15.7282C15.2323 15.7282 14.591 16.7279 14.591 17.8144C14.591 18.8077 15.0908 19.5796 16.0503 19.5796C16.2852 19.5857 16.5168 19.5232 16.7166 19.3998C16.9165 19.2763 17.0759 19.0973 17.1753 18.8847H17.1994C17.1994 19.0003 17.2396 19.3886 17.2492 19.4977L18.048 19.4929ZM5.48507 15.8148H4.59473V19.4929H5.48507V15.8148ZM10.6279 19.4929V16.9494C10.6279 16.6076 10.5973 15.9529 10.5877 15.8036H11.38L11.417 16.3219H11.4314C11.5411 16.1348 11.6989 15.9805 11.8886 15.8749C12.0782 15.7693 12.2928 15.7165 12.5098 15.7218C13.3439 15.7218 13.8068 16.3332 13.8068 17.0954V19.4929H12.9244V17.2704C12.9244 16.8002 12.6641 16.4471 12.2141 16.4471C11.7641 16.4471 11.5054 16.821 11.5054 17.2704V19.4929H10.6279Z" fill="white"/>
<path d="M19.3303 18.8606C19.296 18.8455 19.2585 18.8389 19.221 18.8414H19.1455V19.0259H19.2275C19.2563 19.0274 19.2852 19.0236 19.3126 19.0147C19.329 19.0088 19.343 18.9978 19.3525 18.9834C19.3621 18.9689 19.3667 18.9517 19.3657 18.9344C19.3673 18.9202 19.365 18.9058 19.3591 18.8928C19.3531 18.8798 19.3437 18.8687 19.3319 18.8606H19.3303ZM19.2339 18.7804C19.2812 18.7784 19.3284 18.7843 19.3737 18.798C19.3989 18.8082 19.4201 18.8262 19.4342 18.8493C19.4484 18.8724 19.4548 18.8994 19.4525 18.9264C19.4542 18.9462 19.4504 18.9661 19.4416 18.9839C19.4328 19.0017 19.4194 19.0168 19.4026 19.0275C19.3801 19.0411 19.3549 19.0499 19.3287 19.0532C19.3462 19.0546 19.3631 19.0597 19.3784 19.0683C19.3937 19.0769 19.4069 19.0887 19.4171 19.1029C19.4337 19.1259 19.4431 19.1533 19.4444 19.1816V19.2185C19.4436 19.2313 19.4436 19.2442 19.4444 19.257C19.4438 19.2655 19.4438 19.2741 19.4444 19.2827H19.3609V19.2217C19.3609 19.1623 19.3448 19.1222 19.311 19.1045C19.2798 19.0905 19.2456 19.0845 19.2114 19.0869H19.1455V19.2875H19.0555V18.7868L19.2339 18.7804ZM18.9607 18.7547C18.9234 18.7918 18.8939 18.8358 18.8737 18.8843C18.8535 18.9328 18.843 18.9848 18.8429 19.0374C18.8429 19.0899 18.8532 19.1419 18.8732 19.1905C18.8933 19.239 18.9227 19.2832 18.9599 19.3204C18.997 19.3576 19.0411 19.3871 19.0897 19.4073C19.1383 19.4274 19.1904 19.4379 19.243 19.4379C19.2956 19.438 19.3477 19.4277 19.3963 19.4077C19.4449 19.3877 19.4891 19.3583 19.5264 19.3212C19.6015 19.246 19.6436 19.1441 19.6436 19.0379C19.6436 18.9318 19.6015 18.8299 19.5264 18.7547C19.4896 18.717 19.4456 18.6871 19.397 18.6667C19.3484 18.6463 19.2962 18.6357 19.2435 18.6357C19.1908 18.6357 19.1387 18.6463 19.0901 18.6667C19.0415 18.6871 18.9975 18.717 18.9607 18.7547ZM19.573 19.3661C19.4856 19.4533 19.3671 19.5023 19.2435 19.5023C19.12 19.5023 19.0015 19.4533 18.9141 19.3661C18.8708 19.323 18.8366 19.2717 18.8134 19.2152C18.7902 19.1587 18.7785 19.0982 18.7791 19.0371C18.7785 18.9759 18.7903 18.9153 18.8137 18.8587C18.8372 18.8022 18.8719 18.751 18.9157 18.7082C19.0046 18.6289 19.1205 18.5866 19.2396 18.59C19.3587 18.5935 19.472 18.6423 19.5561 18.7266C19.6403 18.8108 19.6889 18.924 19.6921 19.043C19.6952 19.1619 19.6526 19.2776 19.573 19.3661Z" fill="white"/>
<path d="M46.3189 19.4928V7.72842C46.3189 7.37858 46.1695 7.27588 45.8143 7.27588H44.6331V19.4928H46.3189Z" fill="white"/>
<path d="M57.7392 19.4928V11.9168H59.5794V10.564H57.7392V7.72842C57.7392 7.37858 57.5914 7.27588 57.2362 7.27588H56.0549V13.544C55.3049 13.6862 54.5427 13.755 53.7793 13.7494H50.6454C50.6098 13.7518 50.5741 13.7465 50.5407 13.7341C50.5073 13.7216 50.477 13.7023 50.4516 13.6772C50.4262 13.6522 50.4065 13.6221 50.3936 13.5889C50.3808 13.5557 50.3751 13.5202 50.377 13.4847V7.61288H48.7056V13.9548C48.7089 14.1109 48.7433 14.2646 48.8068 14.4072C48.8704 14.5498 48.9618 14.6782 49.0757 14.7851C49.1896 14.8919 49.3237 14.975 49.4701 15.0295C49.6166 15.0839 49.7724 15.1087 49.9286 15.1022H53.7857C54.5537 15.0979 55.3183 14.9977 56.0614 14.8038V19.4928H57.7392Z" fill="white"/>
<path d="M41.4333 11.742C41.4333 13.0146 40.6121 13.9036 39.4372 13.9036C38.2624 13.9036 37.4428 13.0098 37.4428 11.742C37.4428 9.99444 38.8619 8.83582 39.4372 8.83582C40.0126 8.83582 41.4333 9.99444 41.4333 11.742ZM39.4356 7.49585C38.1499 7.49585 35.6814 9.14874 35.6814 11.7388C35.6814 13.8025 37.2258 15.2436 39.4356 15.2436C41.6454 15.2436 43.1915 13.7993 43.1915 11.7388C43.1915 9.14874 40.7262 7.49585 39.4356 7.49585Z" fill="white"/>
<path d="M79.9062 15.3976C80.5893 15.3976 81.936 16.0026 81.936 17.1773C81.936 18.0342 81.1212 18.6103 79.9062 18.6103C78.6912 18.6103 77.8764 18.0342 77.8764 17.1773C77.8764 16.0026 79.2425 15.3976 79.9062 15.3976ZM79.9062 14.0881C78.7025 14.0881 76.123 15.1585 76.123 17.2302C76.123 18.835 77.6434 19.9198 79.9062 19.9198C82.1691 19.9198 83.6894 18.8398 83.6894 17.2302C83.6894 15.1585 81.1035 14.0881 79.9062 14.0881Z" fill="white"/>
<path d="M32.5957 19.4928V11.9168H34.4342V10.564H32.5957V7.72842C32.5957 7.37858 32.4478 7.27588 32.0926 7.27588H30.9098V14.226C30.228 14.3309 29.5393 14.3845 28.8495 14.3865H24.9924C24.9577 14.3885 24.9229 14.383 24.8906 14.3704C24.8582 14.3577 24.8289 14.3382 24.8048 14.3132C24.7807 14.2882 24.7623 14.2583 24.7508 14.2255C24.7394 14.1928 24.7351 14.1579 24.7384 14.1233V12.3581H28.9491V7.61288H23.0461V8.96568H27.2664V11.0005H23.0461V14.5839C23.0494 14.7399 23.0839 14.8937 23.1474 15.0363C23.211 15.1788 23.3024 15.3073 23.4163 15.4142C23.5301 15.521 23.6642 15.6041 23.8107 15.6585C23.9572 15.713 24.113 15.7377 24.2692 15.7313H28.6823C29.4308 15.7313 30.1773 15.6538 30.9098 15.5002V19.4928H32.5957Z" fill="white"/>
<path d="M67.6808 15.3976C68.3622 15.3976 69.709 16.0025 69.709 17.1772C69.709 18.0342 68.8942 18.6103 67.6808 18.6103C66.4674 18.6103 65.6558 18.0342 65.6558 17.182C65.6558 16.0074 67.0219 15.4024 67.6872 15.4024L67.6808 15.3976ZM67.6872 14.0929C66.4835 14.0929 63.9041 15.1633 63.9041 17.235C63.9041 18.8397 65.4244 19.9246 67.6872 19.9246C69.95 19.9246 71.4704 18.8446 71.4704 17.235C71.4704 15.1633 68.8845 14.0929 67.6872 14.0929Z" fill="white"/>
<path d="M80.0154 9.71348H82.1642V11.0374H80.0154V9.71348ZM78.344 12.1013H75.7164C75.681 12.1036 75.6454 12.0984 75.6122 12.0861C75.5789 12.0738 75.5486 12.0545 75.5233 12.0297C75.4979 12.0049 75.4781 11.975 75.4652 11.9419C75.4522 11.9089 75.4463 11.8736 75.448 11.8382V8.85494H78.3408L78.344 12.1013ZM83.3261 7.27586H82.1545V8.35586H80.0154V7.50053H73.7878V12.3052C73.7911 12.4612 73.8256 12.6151 73.8891 12.7577C73.9526 12.9004 74.044 13.029 74.1579 13.1359C74.2717 13.2429 74.4058 13.3262 74.5523 13.3808C74.6987 13.4354 74.8546 13.4604 75.0109 13.4542H80.0235V12.3902H82.1706V13.6515H83.8324V7.71396C83.8324 7.36894 83.6845 7.26624 83.3342 7.26624" fill="white"/>
<path d="M71.3031 7.27586H70.1331V9.6541H68.9663V7.7284C68.9663 7.38338 68.8185 7.28068 68.4681 7.28068H67.2949V13.6515H68.9663V11.0085H70.1363V13.6515H71.8045V7.71396C71.8045 7.36894 71.6567 7.26624 71.3063 7.26624" fill="white"/>
<path d="M63.9555 8.73307C64.1162 8.73307 64.1612 8.8438 64.2078 9.03316L65.3971 13.658H67.1264L65.8696 8.88873C65.6044 7.87132 65.0837 7.37866 63.9619 7.37866H63.9491C62.8241 7.37866 62.3066 7.87132 62.0414 8.88873L60.7847 13.6516H62.5155L63.7032 9.02674C63.7498 8.83738 63.8028 8.72665 63.9555 8.72665" fill="white"/>
</g>
<defs>
<clipPath id="clip0_316_35">
<rect width="83.8324" height="21.0752" fill="white"/>
</clipPath>
</defs>
</svg>
