<svg width="164" height="40" viewBox="0 0 164 40" fill="none" xmlns="http://www.w3.org/2000/svg">
<path d="M85 17L94 26" stroke="#019AF9" stroke-width="2" stroke-linecap="round" stroke-linejoin="round"/>
<path d="M94 17L85 26" stroke="#019AF9" stroke-width="2" stroke-linecap="round" stroke-linejoin="round"/>
<path d="M6.04421 15.5481C6.3271 15.5481 8.16525 16.3547 8.16525 19.2495C8.16525 20.6322 7.69724 21.7857 7.41956 21.7857C7.29702 21.7857 7.25139 21.6653 7.25139 21.4323C7.25139 20.9144 7.4326 20.4665 7.4326 19.3738C7.4326 17.2622 6.55785 16.4103 6.16545 15.9313C6.04942 15.7889 5.96338 15.697 5.96338 15.6128C5.96338 15.5792 5.98685 15.5481 6.04421 15.5481V15.5481ZM10.6774 15.6128C10.6774 15.697 10.5901 15.7889 10.474 15.9313C10.0829 16.4103 9.20687 17.2622 9.20687 19.3738C9.20687 20.4665 9.38808 20.9196 9.38808 21.4323C9.38808 21.6653 9.34246 21.7857 9.21991 21.7857C8.94354 21.7857 8.47422 20.6322 8.47422 19.2495C8.47422 16.3547 10.3137 15.5481 10.5966 15.5481C10.6526 15.5481 10.6774 15.5792 10.6774 15.6128" fill="#007BC6"/>
<path d="M7.64883 16.1282C7.65243 16.2595 7.69497 16.3868 7.77113 16.4941C7.84728 16.6015 7.95366 16.6841 8.07691 16.7316C8.20016 16.7792 8.3348 16.7895 8.46395 16.7613C8.59309 16.7332 8.71099 16.6678 8.80285 16.5733C8.89471 16.4789 8.95645 16.3596 8.98032 16.2305C9.00419 16.1013 8.98913 15.968 8.93702 15.8474C8.88492 15.7267 8.79809 15.624 8.68744 15.5521C8.57678 15.4802 8.44722 15.4424 8.315 15.4434C8.22563 15.4446 8.13737 15.4632 8.05527 15.4983C7.97316 15.5333 7.89881 15.5841 7.83646 15.6477C7.77412 15.7113 7.725 15.7865 7.69191 15.8689C7.65882 15.9514 7.64241 16.0395 7.64362 16.1282" fill="#F49C00"/>
<path d="M4.83254 15.0471C4.48186 14.8891 4.21852 14.5732 4.18071 14.2703C4.44144 14.1007 4.8534 14.0877 5.20408 14.2444C5.34276 14.2981 5.46112 14.3935 5.54267 14.5172C5.62422 14.6409 5.6649 14.7867 5.65906 14.9344C5.5514 15.0363 5.41441 15.1023 5.26718 15.1232C5.11995 15.1441 4.96983 15.1188 4.83775 15.051L4.83254 15.0471ZM5.83766 13.21C5.61212 12.8656 5.55867 12.4332 5.69947 12.1276C6.03321 12.1276 6.41387 12.3477 6.63941 12.6921C6.73312 12.8208 6.78432 12.9752 6.78596 13.1341C6.78759 13.2929 6.73958 13.4483 6.64853 13.5789C6.4915 13.6091 6.3289 13.5898 6.18349 13.5236C6.03808 13.4575 5.91716 13.3478 5.83766 13.21V13.21ZM6.35912 15.0341C6.22749 14.9294 6.12322 14.7947 6.05514 14.6415C5.98706 14.4882 5.95718 14.3209 5.96802 14.1538C6.13257 14.1166 6.30369 14.1192 6.46702 14.1613C6.63035 14.2034 6.78111 14.2839 6.90665 14.3959C7.01827 14.4799 7.10081 14.5963 7.14286 14.729C7.1849 14.8617 7.18436 15.004 7.14131 15.1364C7.01597 15.2019 6.87312 15.2267 6.73283 15.2075C6.59255 15.1882 6.46186 15.1258 6.35912 15.0289V15.0341ZM7.21171 14.1473C7.09177 13.7589 7.15956 13.3368 7.37336 13.0896C7.68885 13.1737 7.98608 13.4883 8.10732 13.8664C8.16156 14.0124 8.16848 14.1717 8.1271 14.3219C8.08573 14.4721 7.99814 14.6057 7.87657 14.704C7.72044 14.6908 7.57238 14.6293 7.45315 14.5283C7.33393 14.4274 7.2495 14.2918 7.21171 14.1408V14.1473ZM5.7464 16.9554C5.61868 16.9842 5.48585 16.9819 5.3592 16.9487C5.23255 16.9156 5.11583 16.8526 5.01896 16.7651C5.07592 16.6477 5.16051 16.5458 5.26558 16.4678C5.37065 16.3898 5.4931 16.3381 5.62255 16.3171C5.72838 16.2902 5.84005 16.2969 5.9418 16.3364C6.04355 16.3759 6.13025 16.4462 6.18964 16.5372C6.16924 16.6441 6.11544 16.742 6.03587 16.8168C5.9563 16.8916 5.85502 16.9397 5.7464 16.9541V16.9554ZM5.01244 16.1385C4.86596 16.1271 4.7244 16.0808 4.5998 16.0035C4.47519 15.9262 4.37122 15.8202 4.29674 15.6944C4.39659 15.5868 4.5212 15.5048 4.65991 15.4554C4.79863 15.406 4.94731 15.3908 5.09327 15.4109C5.21585 15.4179 5.33323 15.4625 5.4292 15.5385C5.52517 15.6146 5.595 15.7184 5.62907 15.8355C5.57081 15.9433 5.47998 16.0303 5.36938 16.0841C5.25877 16.138 5.13394 16.1561 5.01244 16.1359V16.1385ZM4.98507 13.8055C4.86869 13.7131 4.77627 13.5943 4.71549 13.4592C4.65472 13.3241 4.62735 13.1765 4.63569 13.0287C4.78191 12.9952 4.93411 12.9972 5.07937 13.0346C5.22463 13.0721 5.35865 13.1438 5.47003 13.2436C5.56993 13.3188 5.64372 13.4231 5.68111 13.5419C5.7185 13.6607 5.71763 13.7882 5.67861 13.9065C5.56746 13.9643 5.44093 13.9862 5.31663 13.9693C5.19233 13.9523 5.07644 13.8974 4.98507 13.812V13.8055ZM6.67982 12.1561C6.62866 12.0094 6.6138 11.8525 6.63648 11.6988C6.65917 11.5452 6.71875 11.3992 6.81018 11.2732C6.95676 11.325 7.08879 11.4107 7.19535 11.5233C7.3019 11.6358 7.37991 11.772 7.4229 11.9205C7.46829 12.0421 7.47421 12.1748 7.43985 12.2999C7.40548 12.4251 7.33255 12.5364 7.23126 12.6183C7.10124 12.6073 6.97792 12.5562 6.87857 12.4722C6.77923 12.3882 6.70882 12.2754 6.67721 12.1496L6.67982 12.1561ZM2.52376 20.4717C2.52376 20.4794 2.52376 20.4859 2.54071 20.4859C2.55723 20.4828 2.57339 20.478 2.58895 20.4717C4.04062 19.9517 5.56027 19.6425 7.1009 19.5537C7.10914 19.4945 7.11393 19.4349 7.11524 19.3751C7.11462 19.2652 7.10765 19.1554 7.09438 19.0462C4.98767 19.2366 3.5341 19.8437 2.57852 20.4263C2.53941 20.4496 2.52246 20.4561 2.52246 20.4717H2.52376ZM10.9832 14.9306C10.9788 14.7831 11.0208 14.6379 11.1033 14.5152C11.1857 14.3925 11.3046 14.2983 11.4434 14.2457C11.6036 14.1685 11.7802 14.1306 11.9582 14.1351C12.1363 14.1396 12.3107 14.1864 12.4667 14.2716C12.4283 14.4433 12.3491 14.6034 12.2357 14.7385C12.1223 14.8736 11.9781 14.9799 11.8149 15.0484C11.6826 15.1164 11.5323 15.1417 11.3848 15.1208C11.2374 15.0999 11.1002 15.0339 10.9923 14.9318L10.9832 14.9306ZM9.9898 13.5738C9.89919 13.444 9.85141 13.2894 9.85304 13.1315C9.85468 12.9736 9.90565 12.82 9.99893 12.6921C10.2245 12.3477 10.6038 12.1238 10.9389 12.1276C11.0784 12.4293 11.0262 12.8656 10.8007 13.21C10.721 13.3477 10.6001 13.4572 10.4547 13.5234C10.3094 13.5895 10.1468 13.6089 9.9898 13.5789V13.5738ZM9.49702 15.1364C9.45337 15.0033 9.45251 14.86 9.49456 14.7264C9.53661 14.5927 9.61948 14.4754 9.73168 14.3907C9.85747 14.2787 10.0085 14.1983 10.172 14.1561C10.3355 14.114 10.5069 14.1114 10.6716 14.1486C10.6822 14.3157 10.6523 14.4829 10.5842 14.6361C10.5161 14.7894 10.412 14.9241 10.2805 15.0289C10.1778 15.1258 10.0471 15.1882 9.9068 15.2075C9.76651 15.2267 9.62366 15.2019 9.49832 15.1364H9.49702ZM8.76176 14.7105C8.64042 14.612 8.55308 14.4783 8.51194 14.3281C8.47081 14.178 8.47793 14.0188 8.53231 13.8728C8.65095 13.4844 8.94948 13.1737 9.26627 13.096C9.47877 13.3433 9.54656 13.7693 9.42662 14.1538C9.38901 14.3049 9.30463 14.4405 9.18537 14.5415C9.06611 14.6425 8.91796 14.7039 8.76176 14.7169V14.7105ZM10.4565 16.545C10.5144 16.4538 10.5996 16.3828 10.7001 16.3419C10.8006 16.3011 10.9114 16.2924 11.0171 16.3171C11.1462 16.338 11.2684 16.3895 11.3733 16.4672C11.4781 16.545 11.5626 16.6467 11.6194 16.7638C11.5226 16.8514 11.4058 16.9145 11.2792 16.9476C11.1525 16.9808 11.0196 16.983 10.8919 16.9541C10.7833 16.9397 10.682 16.8916 10.6025 16.8168C10.5229 16.742 10.4691 16.6441 10.4487 16.5372L10.4565 16.545ZM11.0093 15.8381C11.0431 15.7204 11.113 15.616 11.2092 15.5395C11.3055 15.4629 11.4233 15.418 11.5464 15.4109C11.6919 15.3906 11.8402 15.4056 11.9787 15.4545C12.1171 15.5035 12.2416 15.5849 12.3416 15.6918C12.267 15.8177 12.1628 15.9239 12.038 16.0012C11.9131 16.0785 11.7713 16.1247 11.6246 16.1359C11.5033 16.156 11.3787 16.1379 11.2683 16.084C11.1579 16.0301 11.0673 15.9432 11.0093 15.8355V15.8381ZM10.9597 13.9013C10.9207 13.783 10.9198 13.6556 10.9572 13.5367C10.9946 13.4179 11.0684 13.3136 11.1683 13.2384C11.2799 13.1386 11.4142 13.0669 11.5596 13.0295C11.7051 12.992 11.8575 12.99 12.0039 13.0235C12.0123 13.1714 11.9849 13.3192 11.9239 13.4543C11.8628 13.5895 11.77 13.7082 11.6533 13.8003C11.5619 13.8857 11.446 13.9407 11.3217 13.9576C11.1974 13.9746 11.0709 13.9526 10.9597 13.8948V13.9013ZM9.40967 12.6235C9.30839 12.5416 9.23546 12.4303 9.20109 12.3051C9.16672 12.18 9.17265 12.0473 9.21804 11.9257C9.261 11.7774 9.33884 11.6413 9.44515 11.5288C9.55145 11.4162 9.68317 11.3304 9.82945 11.2783C9.92119 11.4042 9.98094 11.5502 10.0036 11.704C10.0263 11.8577 10.0113 12.0146 9.95982 12.1613C9.92803 12.2869 9.85757 12.3996 9.75826 12.4836C9.65895 12.5676 9.53573 12.6188 9.40576 12.63L9.40967 12.6235ZM14.0546 20.4328C13.1003 19.8502 11.6467 19.243 9.54134 19.0514C9.52668 19.1604 9.51927 19.2703 9.51918 19.3803C9.51918 19.4489 9.53091 19.5408 9.53222 19.5589C11.0748 19.6454 12.5967 19.9528 14.0507 20.4717C14.0662 20.478 14.0824 20.4828 14.0989 20.4859C14.1107 20.4859 14.1159 20.4859 14.1159 20.4717C14.1159 20.4574 14.0989 20.4496 14.0598 20.4263L14.0546 20.4328ZM8.3146 12.9614C8.14667 12.8936 8.0042 12.7754 7.907 12.6235C7.8098 12.4715 7.76271 12.2932 7.77228 12.1134C7.77228 11.6486 7.9939 11.2071 8.3146 11C8.6353 11.2007 8.85562 11.6473 8.85562 12.1134C8.86509 12.293 8.81812 12.4711 8.72119 12.623C8.62426 12.7749 8.48218 12.8932 8.3146 12.9614" fill="#4AB134"/>
<path d="M4.63981 22.9846C4.63799 23.0721 4.66247 23.1581 4.71012 23.2317C4.75777 23.3053 4.82642 23.3631 4.90731 23.3978C4.9882 23.4325 5.07766 23.4424 5.16427 23.4264C5.25088 23.4103 5.33071 23.369 5.39356 23.3077C5.45642 23.2464 5.49945 23.1678 5.51715 23.0821C5.53486 22.9964 5.52645 22.9074 5.49298 22.8265C5.45952 22.7455 5.40252 22.6763 5.32928 22.6277C5.25603 22.5791 5.16985 22.5532 5.08175 22.5535C5.02422 22.553 4.96716 22.5637 4.91382 22.5851C4.86048 22.6065 4.8119 22.6381 4.77086 22.6781C4.72982 22.7182 4.69713 22.7658 4.67464 22.8184C4.65215 22.871 4.64032 22.9275 4.63981 22.9846V22.9846ZM8.09058 25.2502C8.09058 25.9299 7.82985 26.2135 7.43876 26.2135C7.04766 26.2135 6.82864 25.8846 6.82864 25.3072C6.82864 24.7298 7.1689 24.2288 7.79856 24.2288C7.89809 24.2277 7.99739 24.2381 8.09449 24.2598L8.09058 25.2502ZM8.12839 26.3662V26.5876C8.12839 27.1935 7.75294 27.4304 7.28492 27.4304C7.00198 27.4275 6.72193 27.3735 6.45841 27.2712V27.8706C6.75478 27.9569 7.06211 28.0005 7.37097 28.0001C8.23399 28.0001 8.80499 27.6453 8.80499 26.4322V23.8184C8.48405 23.7347 8.15383 23.6912 7.82203 23.6889C6.61093 23.6889 6.08947 24.4955 6.08947 25.3719C6.08947 26.1733 6.49621 26.796 7.27449 26.796C7.43897 26.8009 7.60206 26.7648 7.74892 26.6911C7.89577 26.6174 8.02174 26.5084 8.11535 26.374L8.12839 26.3662ZM4.01275 25.9998C3.75631 26.1058 3.48092 26.1591 3.20318 26.1565C2.38318 26.1565 1.77828 25.5726 1.77828 24.6845C1.77828 23.7963 2.37796 23.2112 3.20318 23.2112C3.48015 23.2027 3.75586 23.2517 4.01275 23.3549V22.7192C3.7284 22.6253 3.42971 22.5815 3.13017 22.5897C1.8565 22.5897 1 23.4636 1 24.6806C1 25.8315 1.78871 26.7714 3.13017 26.7714C3.42971 26.7796 3.72837 26.7358 4.01275 26.642V25.9998ZM14.8331 25.2541C14.8331 25.9338 14.5658 26.2173 14.1813 26.2173C13.7967 26.2173 13.5698 25.8885 13.5698 25.3111C13.5698 24.7337 13.9114 24.2326 14.5398 24.2326C14.6397 24.2318 14.7394 24.2422 14.837 24.2637L14.8331 25.2541ZM15.6374 26.7261C15.5865 26.4017 15.5565 26.0743 15.5475 25.7461V23.8184C15.227 23.7349 14.8972 23.6914 14.5658 23.6889C13.3534 23.6889 12.8333 24.4955 12.8333 25.3719C12.8333 26.1733 13.2387 26.796 14.017 26.796C14.2075 26.801 14.3954 26.7505 14.5575 26.651C14.7196 26.5514 14.8489 26.407 14.9296 26.2355H14.9491C14.9491 26.3287 14.9817 26.642 14.9895 26.73L15.6374 26.7261ZM5.44677 23.7588H4.72454V26.7261H5.44677V23.7588ZM9.61847 26.7261V24.6741C9.61847 24.3984 9.5937 23.8701 9.58588 23.7497H10.2286L10.2586 24.1679H10.2703C10.3592 24.0169 10.4873 23.8924 10.6411 23.8073C10.795 23.7221 10.969 23.6794 11.145 23.6837C11.8216 23.6837 12.1971 24.177 12.1971 24.7919V26.7261H11.4814V24.933C11.4814 24.5537 11.2702 24.2689 10.9052 24.2689C10.5402 24.2689 10.3303 24.5705 10.3303 24.933V26.7261H9.61847Z" fill="#007BC6"/>
<path d="M16.6776 26.216C16.6498 26.2038 16.6194 26.1985 16.589 26.2005H16.5277V26.3494H16.5942C16.6176 26.3506 16.641 26.3475 16.6633 26.3403C16.6765 26.3356 16.6879 26.3267 16.6957 26.315C16.7034 26.3034 16.7071 26.2895 16.7063 26.2756C16.7076 26.2641 16.7058 26.2525 16.701 26.242C16.6961 26.2315 16.6885 26.2225 16.6789 26.216H16.6776ZM16.5994 26.1513C16.6378 26.1497 16.6761 26.1545 16.7128 26.1655C16.7332 26.1737 16.7504 26.1882 16.7619 26.2069C16.7734 26.2255 16.7786 26.2473 16.7767 26.2691C16.7781 26.285 16.7751 26.3011 16.7679 26.3154C16.7608 26.3298 16.7499 26.342 16.7363 26.3506C16.718 26.3617 16.6976 26.3687 16.6763 26.3714C16.6905 26.3725 16.7043 26.3766 16.7166 26.3836C16.729 26.3905 16.7397 26.4 16.748 26.4115C16.7615 26.4301 16.7692 26.4521 16.7702 26.4749V26.5047C16.7696 26.5151 16.7696 26.5254 16.7702 26.5358C16.7697 26.5427 16.7697 26.5496 16.7702 26.5565V26.5565H16.7024V26.5073C16.7024 26.4594 16.6894 26.427 16.662 26.4128C16.6367 26.4015 16.6089 26.3966 16.5812 26.3985H16.5277V26.5604H16.4547V26.1564L16.5994 26.1513ZM16.3778 26.1306C16.3476 26.1605 16.3236 26.196 16.3072 26.2351C16.2908 26.2743 16.2824 26.3162 16.2823 26.3586C16.2822 26.401 16.2906 26.443 16.3069 26.4821C16.3231 26.5213 16.347 26.5569 16.3771 26.5869C16.4073 26.6169 16.4431 26.6407 16.4825 26.657C16.5219 26.6733 16.5641 26.6817 16.6068 26.6818C16.6495 26.6818 16.6917 26.6735 16.7312 26.6574C16.7706 26.6412 16.8065 26.6175 16.8367 26.5876C16.8976 26.5269 16.9318 26.4447 16.9318 26.3591C16.9318 26.2734 16.8976 26.1912 16.8367 26.1306C16.8068 26.1002 16.7711 26.076 16.7317 26.0596C16.6923 26.0431 16.65 26.0346 16.6072 26.0346C16.5645 26.0346 16.5222 26.0431 16.4828 26.0596C16.4434 26.076 16.4077 26.1002 16.3778 26.1306V26.1306ZM16.8745 26.6238C16.8036 26.6942 16.7075 26.7337 16.6072 26.7337C16.507 26.7337 16.4109 26.6942 16.34 26.6238C16.3049 26.589 16.2771 26.5476 16.2583 26.5021C16.2395 26.4565 16.23 26.4077 16.2305 26.3584C16.23 26.309 16.2396 26.2601 16.2586 26.2145C16.2776 26.1689 16.3058 26.1276 16.3413 26.093C16.4134 26.0291 16.5074 25.995 16.604 25.9977C16.7007 26.0005 16.7925 26.0399 16.8608 26.1078C16.9291 26.1758 16.9685 26.2672 16.9711 26.3631C16.9736 26.4591 16.9391 26.5524 16.8745 26.6238" fill="#007BC6"/>
<path d="M38.5697 26.726V17.235C38.5697 16.9527 38.4484 16.8699 38.1603 16.8699H37.2021V26.726H38.5697Z" fill="#007BC6"/>
<path d="M47.8337 26.726V20.614H49.3264V19.5226H47.8337V17.235C47.8337 16.9527 47.7138 16.8699 47.4257 16.8699H46.4675V21.9268C45.859 22.0415 45.2408 22.097 44.6215 22.0925H42.0794C42.0505 22.0944 42.0216 22.0901 41.9945 22.0801C41.9674 22.0701 41.9428 22.0544 41.9222 22.0342C41.9016 22.0141 41.8856 21.9898 41.8752 21.963C41.8647 21.9362 41.8601 21.9075 41.8617 21.8789V17.1417H40.5059V22.2582C40.5085 22.3841 40.5365 22.5081 40.588 22.6232C40.6396 22.7382 40.7137 22.8418 40.8061 22.928C40.8985 23.0142 41.0073 23.0812 41.1261 23.1252C41.2448 23.1691 41.3713 23.1891 41.4979 23.1839H44.6267C45.2498 23.1804 45.8699 23.0995 46.4727 22.9431V26.726H47.8337Z" fill="#007BC6"/>
<path d="M34.6072 20.473C34.6072 21.4997 33.941 22.2169 32.9881 22.2169C32.0351 22.2169 31.3702 21.4958 31.3702 20.473C31.3702 19.0631 32.5213 18.1284 32.9881 18.1284C33.4548 18.1284 34.6072 19.0631 34.6072 20.473ZM32.9868 17.0474C31.9438 17.0474 29.9414 18.3809 29.9414 20.4704C29.9414 22.1353 31.1942 23.2979 32.9868 23.2979C34.7793 23.2979 36.0334 22.1327 36.0334 20.4704C36.0334 18.3809 34.0336 17.0474 32.9868 17.0474Z" fill="#007BC6"/>
<path d="M65.8149 23.4219C66.369 23.4219 67.4614 23.91 67.4614 24.8577C67.4614 25.549 66.8005 26.0138 65.8149 26.0138C64.8293 26.0138 64.1684 25.549 64.1684 24.8577C64.1684 23.91 65.2765 23.4219 65.8149 23.4219ZM65.8149 22.3655C64.8385 22.3655 62.7461 23.229 62.7461 24.9004C62.7461 26.1951 63.9794 27.0702 65.8149 27.0702C67.6505 27.0702 68.8837 26.1989 68.8837 24.9004C68.8837 23.229 66.7861 22.3655 65.8149 22.3655Z" fill="#007BC6"/>
<path d="M27.4382 26.726V20.614H28.9296V19.5226H27.4382V17.235C27.4382 16.9527 27.3183 16.8699 27.0302 16.8699H26.0707V22.477C25.5176 22.5616 24.959 22.6049 24.3994 22.6065H21.2706C21.2425 22.6081 21.2143 22.6036 21.188 22.5934C21.1618 22.5832 21.138 22.5675 21.1185 22.5473C21.0989 22.5272 21.084 22.503 21.0747 22.4766C21.0654 22.4501 21.062 22.422 21.0646 22.3941V20.97H24.4802V17.1417H19.6919V18.2331H23.1153V19.8748H19.6919V22.7657C19.6946 22.8916 19.7225 23.0156 19.774 23.1307C19.8256 23.2457 19.8997 23.3493 19.9921 23.4355C20.0845 23.5217 20.1933 23.5887 20.3121 23.6327C20.4309 23.6766 20.5573 23.6966 20.684 23.6914H24.2638C24.871 23.6914 25.4765 23.6289 26.0707 23.5049V26.726H27.4382V26.726Z" fill="#007BC6"/>
<path d="M55.8981 23.4219C56.4508 23.4219 57.5433 23.91 57.5433 24.8577C57.5433 25.549 56.8823 26.0138 55.8981 26.0138C54.9138 26.0138 54.2555 25.549 54.2555 24.8616C54.2555 23.9139 55.3636 23.4258 55.9033 23.4258L55.8981 23.4219ZM55.9033 22.3694C54.9268 22.3694 52.8345 23.2329 52.8345 24.9043C52.8345 26.199 54.0677 27.0741 55.9033 27.0741C57.7388 27.0741 58.9721 26.2028 58.9721 24.9043C58.9721 23.2329 56.8745 22.3694 55.9033 22.3694Z" fill="#007BC6"/>
<path d="M65.9037 18.8366H67.6467V19.9047H65.9037V18.8366ZM64.5479 20.7631H62.4164C62.3877 20.7649 62.3589 20.7607 62.3319 20.7508C62.3049 20.7408 62.2803 20.7253 62.2598 20.7053C62.2392 20.6852 62.2232 20.6611 62.2126 20.6345C62.2021 20.6079 62.1974 20.5793 62.1987 20.5508V18.144H64.5453L64.5479 20.7631ZM68.5892 16.8701H67.6389V17.7414H65.9037V17.0513H60.8521V20.9275C60.8547 21.0534 60.8826 21.1776 60.9342 21.2926C60.9857 21.4077 61.0598 21.5114 61.1522 21.5977C61.2446 21.6841 61.3533 21.7512 61.4721 21.7953C61.5909 21.8394 61.7174 21.8595 61.8441 21.8545H65.9102V20.9961H67.6519V22.0137H68.9999V17.2235C68.9999 16.9452 68.88 16.8623 68.5958 16.8623" fill="#007BC6"/>
<path d="M58.8368 16.8701H57.8877V18.7887H56.9413V17.2352C56.9413 16.9568 56.8213 16.874 56.5371 16.874H55.5854V22.0137H56.9413V19.8814H57.8903V22.0137H59.2435V17.2235C59.2435 16.9452 59.1236 16.8623 58.8394 16.8623" fill="#007BC6"/>
<path d="M52.8763 18.0453C53.0067 18.0453 53.0432 18.1347 53.081 18.2874L54.0457 22.0186H55.4484L54.429 18.1709C54.2139 17.3501 53.7915 16.9526 52.8815 16.9526H52.8711C51.9585 16.9526 51.5388 17.3501 51.3237 18.1709L50.3042 22.0134H51.7082L52.6716 18.2822C52.7094 18.1295 52.7525 18.0401 52.8763 18.0401" fill="#007BC6"/>
<path d="M116.962 22.7598C116.862 23.8216 116.47 24.651 115.786 25.248C115.103 25.8405 114.193 26.1367 113.059 26.1367C112.266 26.1367 111.566 25.9499 110.96 25.5762C110.358 25.1979 109.894 24.6624 109.565 23.9697C109.237 23.277 109.066 22.4727 109.053 21.5566V20.627C109.053 19.6882 109.219 18.861 109.552 18.1455C109.884 17.43 110.361 16.8786 110.98 16.4912C111.605 16.1038 112.325 15.9102 113.141 15.9102C114.239 15.9102 115.123 16.2087 115.793 16.8057C116.463 17.4027 116.853 18.2458 116.962 19.335H115.239C115.157 18.6195 114.948 18.1045 114.61 17.79C114.278 17.471 113.788 17.3115 113.141 17.3115C112.389 17.3115 111.81 17.5872 111.404 18.1387C111.003 18.6855 110.798 19.4899 110.789 20.5518V21.4336C110.789 22.5091 110.98 23.3294 111.363 23.8945C111.751 24.4596 112.316 24.7422 113.059 24.7422C113.738 24.7422 114.248 24.5895 114.59 24.2842C114.932 23.9788 115.148 23.4707 115.239 22.7598H116.962ZM122.772 26C122.7 25.8587 122.636 25.6286 122.581 25.3096C122.052 25.861 121.405 26.1367 120.64 26.1367C119.897 26.1367 119.291 25.9248 118.821 25.501C118.352 25.0771 118.117 24.5531 118.117 23.9287C118.117 23.1403 118.409 22.5365 118.992 22.1172C119.58 21.6934 120.419 21.4814 121.508 21.4814H122.526V20.9961C122.526 20.6133 122.419 20.3079 122.205 20.0801C121.991 19.8477 121.665 19.7314 121.228 19.7314C120.849 19.7314 120.539 19.8271 120.298 20.0186C120.056 20.2054 119.936 20.4447 119.936 20.7363H118.274C118.274 20.3307 118.409 19.9525 118.678 19.6016C118.947 19.2461 119.311 18.9681 119.771 18.7676C120.236 18.5671 120.754 18.4668 121.323 18.4668C122.189 18.4668 122.88 18.6855 123.395 19.123C123.91 19.556 124.174 20.1667 124.188 20.9551V24.291C124.188 24.9564 124.281 25.4873 124.468 25.8838V26H122.772ZM120.947 24.8037C121.275 24.8037 121.583 24.724 121.87 24.5645C122.162 24.4049 122.381 24.1908 122.526 23.9219V22.5273H121.631C121.016 22.5273 120.553 22.6344 120.243 22.8486C119.933 23.0628 119.778 23.3659 119.778 23.7578C119.778 24.0768 119.883 24.332 120.093 24.5234C120.307 24.7103 120.592 24.8037 120.947 24.8037ZM129.8 20.1211C129.581 20.0846 129.355 20.0664 129.123 20.0664C128.362 20.0664 127.849 20.3581 127.585 20.9414V26H125.924V18.6035H127.51L127.551 19.4307C127.952 18.7881 128.508 18.4668 129.219 18.4668C129.456 18.4668 129.652 18.4987 129.807 18.5625L129.8 20.1211ZM133.97 26.1367C132.917 26.1367 132.062 25.8063 131.406 25.1455C130.755 24.4801 130.429 23.596 130.429 22.4932V22.2881C130.429 21.5498 130.57 20.8913 130.853 20.3125C131.14 19.7292 131.541 19.2757 132.056 18.9521C132.571 18.6286 133.145 18.4668 133.778 18.4668C134.785 18.4668 135.562 18.7881 136.109 19.4307C136.661 20.0732 136.937 20.9824 136.937 22.1582V22.8281H132.104C132.154 23.4388 132.356 23.9219 132.712 24.2773C133.072 24.6328 133.523 24.8105 134.065 24.8105C134.826 24.8105 135.446 24.5029 135.925 23.8877L136.82 24.7422C136.524 25.1842 136.128 25.5283 135.631 25.7744C135.139 26.016 134.585 26.1367 133.97 26.1367ZM133.771 19.7998C133.316 19.7998 132.947 19.9593 132.664 20.2783C132.386 20.5973 132.208 21.0417 132.131 21.6113H135.296V21.4883C135.259 20.9323 135.111 20.513 134.852 20.2305C134.592 19.9434 134.232 19.7998 133.771 19.7998ZM140.122 24.6191H144.641V26H138.393V16.0469H140.122V24.6191ZM147.573 26H145.912V18.6035H147.573V26ZM145.81 16.6826C145.81 16.4274 145.889 16.2155 146.049 16.0469C146.213 15.8783 146.445 15.7939 146.746 15.7939C147.047 15.7939 147.279 15.8783 147.443 16.0469C147.607 16.2155 147.689 16.4274 147.689 16.6826C147.689 16.9333 147.607 17.1429 147.443 17.3115C147.279 17.4756 147.047 17.5576 146.746 17.5576C146.445 17.5576 146.213 17.4756 146.049 17.3115C145.889 17.1429 145.81 16.9333 145.81 16.6826ZM150.93 18.6035L150.978 19.458C151.524 18.7972 152.242 18.4668 153.131 18.4668C154.671 18.4668 155.455 19.3486 155.482 21.1123V26H153.821V21.208C153.821 20.7386 153.719 20.3923 153.514 20.1689C153.313 19.9411 152.983 19.8271 152.522 19.8271C151.853 19.8271 151.354 20.1302 151.025 20.7363V26H149.364V18.6035H150.93ZM159.584 22.8281L158.846 23.5869V26H157.185V15.5H158.846V21.5566L159.365 20.9072L161.409 18.6035H163.405L160.657 21.6865L163.699 26H161.778L159.584 22.8281Z" fill="#019AF9"/>
</svg>
