<svg width="95" height="24" viewBox="0 0 95 24" fill="none" xmlns="http://www.w3.org/2000/svg">
<path d="M6.98473 6.4209C7.37647 6.4209 9.92188 7.55957 9.92188 11.6464C9.92188 13.5984 9.27379 15.2269 8.88927 15.2269C8.71958 15.2269 8.6564 15.0569 8.6564 14.7279C8.6564 13.9968 8.90733 13.3644 8.90733 11.8218C8.90733 8.84081 7.696 7.63816 7.15262 6.96191C6.99195 6.76086 6.8728 6.63109 6.8728 6.51228C6.8728 6.46476 6.9053 6.4209 6.98473 6.4209ZM13.4006 6.51228C13.4006 6.63109 13.2797 6.76086 13.119 6.96191C12.5774 7.63816 11.3643 8.84081 11.3643 11.8218C11.3643 13.3644 11.6152 14.0041 11.6152 14.7279C11.6152 15.0569 11.552 15.2269 11.3823 15.2269C10.9996 15.2269 10.3497 13.5984 10.3497 11.6464C10.3497 7.55957 12.8969 6.4209 13.2887 6.4209C13.3663 6.4209 13.4006 6.46476 13.4006 6.51228Z" fill="#D3DADF"/>
<path d="M9.20701 7.23984C9.212 7.42515 9.27091 7.60484 9.37637 7.75637C9.48182 7.90791 9.62913 8.02455 9.7998 8.09166C9.97048 8.15877 10.1569 8.17336 10.3358 8.13361C10.5146 8.09385 10.6779 8.00152 10.8051 7.86819C10.9323 7.73487 11.0178 7.56648 11.0508 7.38415C11.0839 7.20183 11.063 7.01368 10.9909 6.8433C10.9187 6.67293 10.7985 6.52792 10.6452 6.42646C10.492 6.325 10.3126 6.2716 10.1295 6.27297C10.0057 6.27464 9.88353 6.30098 9.76983 6.35047C9.65613 6.39997 9.55317 6.47165 9.46684 6.56144C9.38051 6.65122 9.31249 6.75735 9.26667 6.87375C9.22085 6.99015 9.19812 7.11455 9.19979 7.23984" fill="#D3DADF"/>
<path d="M5.30756 5.71347C4.82194 5.49048 4.45728 5.04452 4.40493 4.61683C4.76598 4.3774 5.33644 4.35912 5.82206 4.58028C6.0141 4.65615 6.17799 4.79076 6.29092 4.96537C6.40385 5.13999 6.46019 5.3459 6.45209 5.55445C6.30302 5.69832 6.11331 5.79149 5.90944 5.82098C5.70556 5.85046 5.49768 5.8148 5.31478 5.71895L5.30756 5.71347ZM6.69941 3.11993C6.3871 2.63375 6.31308 2.02329 6.50805 1.59195C6.9702 1.59195 7.49733 1.90266 7.80964 2.38884C7.93942 2.57056 8.01032 2.78856 8.01258 3.0128C8.01485 3.23703 7.94836 3.45646 7.82228 3.64083C7.60483 3.68346 7.37966 3.65616 7.17831 3.56275C6.97695 3.46934 6.8095 3.3145 6.69941 3.11993ZM7.42151 5.69519C7.23924 5.54734 7.09485 5.35718 7.00057 5.14083C6.9063 4.92448 6.86492 4.68832 6.87994 4.45234C7.10779 4.39987 7.34476 4.40353 7.57093 4.463C7.7971 4.52248 8.00588 4.63603 8.17972 4.79412C8.33428 4.91275 8.44858 5.0771 8.5068 5.26441C8.56502 5.45171 8.56428 5.65272 8.50467 5.83958C8.3311 5.93202 8.13329 5.96709 7.93902 5.93988C7.74475 5.91268 7.56378 5.82455 7.42151 5.68788V5.69519ZM8.60215 4.4432C8.43607 3.89488 8.52994 3.29904 8.826 2.94995C9.26287 3.06875 9.67447 3.51289 9.84236 4.04658C9.91747 4.25282 9.92705 4.47767 9.86976 4.68969C9.81247 4.90171 9.69117 5.09031 9.52283 5.22912C9.30662 5.21043 9.10159 5.12372 8.93649 4.98115C8.77139 4.83857 8.65448 4.64728 8.60215 4.43406V4.4432ZM6.57304 8.40753C6.39617 8.44816 6.21223 8.44494 6.03686 8.39816C5.86148 8.35139 5.69985 8.26243 5.56571 8.13886C5.64458 7.9732 5.76172 7.82923 5.90722 7.71915C6.05272 7.60906 6.22228 7.53611 6.40154 7.50646C6.54809 7.46845 6.70273 7.47799 6.84363 7.53374C6.98453 7.58949 7.10458 7.68863 7.18683 7.81718C7.15858 7.96813 7.08407 8.10624 6.97389 8.21188C6.86371 8.31753 6.72345 8.38535 6.57304 8.4057V8.40753ZM5.55668 7.25424C5.35384 7.23824 5.15781 7.17289 4.98526 7.06374C4.81271 6.9546 4.66875 6.80488 4.5656 6.62733C4.70387 6.47541 4.87643 6.35964 5.06851 6.28994C5.2606 6.22023 5.4665 6.19866 5.66861 6.22706C5.83836 6.23695 6.00089 6.29992 6.13379 6.4073C6.26668 6.51468 6.36339 6.66117 6.41057 6.82655C6.32988 6.97873 6.20412 7.10148 6.05095 7.17754C5.89779 7.2536 5.72493 7.27915 5.55668 7.25058V7.25424ZM5.51877 3.96068C5.35763 3.83017 5.22963 3.66254 5.14547 3.47178C5.06131 3.28102 5.02342 3.07265 5.03496 2.86404C5.23744 2.81672 5.44822 2.81959 5.64936 2.87241C5.85051 2.92524 6.03609 3.02645 6.19033 3.16745C6.32867 3.2736 6.43085 3.42081 6.48263 3.58856C6.53441 3.7563 6.5332 3.93622 6.47917 4.10324C6.32524 4.18482 6.15004 4.2158 5.97791 4.19189C5.80579 4.16798 5.6453 4.09036 5.51877 3.96982V3.96068ZM7.86561 1.63216C7.79476 1.42496 7.77418 1.20354 7.8056 0.986596C7.83702 0.76965 7.91952 0.563538 8.04613 0.38565C8.2491 0.458767 8.43194 0.579803 8.57949 0.738728C8.72704 0.897653 8.83506 1.08989 8.8946 1.29951C8.95745 1.47122 8.96566 1.65853 8.91807 1.8352C8.87048 2.01187 8.76948 2.16903 8.62923 2.28466C8.44917 2.26914 8.27841 2.19702 8.14083 2.07838C8.00326 1.95974 7.90577 1.80053 7.86199 1.62302L7.86561 1.63216ZM2.11045 13.3716C2.11045 13.3826 2.11045 13.3917 2.13392 13.3917C2.15679 13.3873 2.17917 13.3806 2.20071 13.3716C4.21093 12.6375 6.3153 12.2011 8.4487 12.0758C8.46011 11.9922 8.46674 11.9079 8.46856 11.8236C8.4677 11.6684 8.45805 11.5134 8.43968 11.3593C5.52238 11.628 3.50952 12.4852 2.18627 13.3077C2.13211 13.3406 2.10864 13.3497 2.10864 13.3716H2.11045ZM13.8248 5.54897C13.8187 5.34078 13.8768 5.13585 13.991 4.9626C14.1052 4.78935 14.2698 4.65637 14.462 4.58211C14.6839 4.47312 14.9284 4.41957 15.175 4.42593C15.4215 4.43229 15.663 4.49838 15.8791 4.61866C15.8259 4.86107 15.7163 5.08709 15.5592 5.27786C15.4022 5.46863 15.2024 5.61861 14.9765 5.71529C14.7933 5.81129 14.5852 5.84704 14.381 5.81755C14.1768 5.78807 13.9868 5.69482 13.8374 5.5508L13.8248 5.54897ZM12.4492 3.63352C12.3237 3.45027 12.2575 3.2321 12.2598 3.00914C12.262 2.78618 12.3326 2.56943 12.4618 2.38884C12.7741 1.90266 13.2994 1.58646 13.7634 1.59195C13.9565 2.01781 13.8843 2.63375 13.572 3.11993C13.4617 3.31431 13.2942 3.46899 13.0929 3.56237C12.8917 3.65575 12.6666 3.68318 12.4492 3.64083V3.63352ZM11.7668 5.83958C11.7063 5.65166 11.7051 5.44935 11.7634 5.26071C11.8216 5.07208 11.9363 4.90645 12.0917 4.78681C12.2659 4.6287 12.475 4.51515 12.7015 4.45568C12.9279 4.39622 13.1652 4.39256 13.3933 4.44503C13.408 4.68097 13.3665 4.91704 13.2722 5.13333C13.178 5.34963 13.0338 5.53982 12.8517 5.68788C12.7095 5.82455 12.5285 5.91268 12.3342 5.93988C12.1399 5.96709 11.9421 5.93202 11.7686 5.83958H11.7668ZM10.7486 5.23826C10.5806 5.09922 10.4596 4.91052 10.4027 4.69851C10.3457 4.4865 10.3556 4.26178 10.4309 4.05572C10.5952 3.5074 11.0086 3.06875 11.4472 2.95909C11.7415 3.30818 11.8354 3.9095 11.6693 4.45234C11.6172 4.66568 11.5004 4.85713 11.3352 4.99975C11.1701 5.14236 10.9649 5.22897 10.7486 5.2474V5.23826ZM13.0954 7.82814C13.1756 7.69937 13.2935 7.59916 13.4327 7.5415C13.5719 7.48383 13.7253 7.47158 13.8717 7.50646C14.0506 7.5359 14.2198 7.60859 14.365 7.71837C14.5102 7.82814 14.627 7.97176 14.7057 8.13703C14.5717 8.26074 14.41 8.34978 14.2346 8.39656C14.0592 8.44335 13.8752 8.44648 13.6984 8.4057C13.548 8.38535 13.4077 8.31753 13.2975 8.21188C13.1874 8.10624 13.1129 7.96813 13.0846 7.81718L13.0954 7.82814ZM13.8609 6.83021C13.9078 6.664 14.0045 6.51666 14.1378 6.40859C14.271 6.30053 14.4342 6.23709 14.6046 6.22706C14.8062 6.19851 15.0115 6.21967 15.2032 6.28872C15.395 6.35777 15.5674 6.47268 15.7058 6.62367C15.6025 6.80147 15.4583 6.95133 15.2854 7.06049C15.1125 7.16965 14.9161 7.23487 14.7129 7.25058C14.545 7.27902 14.3724 7.2534 14.2195 7.17734C14.0667 7.10127 13.9412 6.97858 13.8609 6.82655V6.83021ZM13.7923 4.09593C13.7382 3.92891 13.737 3.74899 13.7888 3.58124C13.8406 3.4135 13.9428 3.26629 14.0811 3.16014C14.2357 3.01912 14.4216 2.91791 14.623 2.86509C14.8245 2.81228 15.0355 2.80941 15.2383 2.85673C15.2499 3.06553 15.2119 3.2741 15.1274 3.46492C15.0429 3.65575 14.9144 3.82325 14.7527 3.95337C14.6261 4.07391 14.4656 4.15153 14.2935 4.17544C14.1214 4.19935 13.9462 4.16837 13.7923 4.08679V4.09593ZM11.6458 2.29197C11.5056 2.17634 11.4046 2.01918 11.357 1.84251C11.3094 1.66585 11.3176 1.47853 11.3804 1.30682C11.4399 1.09746 11.5477 0.905422 11.6949 0.746531C11.8421 0.58764 12.0245 0.466452 12.2271 0.392961C12.3541 0.570648 12.4369 0.776777 12.4683 0.993806C12.4998 1.21083 12.4789 1.43234 12.4076 1.63947C12.3636 1.81685 12.266 1.97592 12.1285 2.09451C11.991 2.21311 11.8204 2.28532 11.6404 2.30111L11.6458 2.29197ZM18.0779 13.3168C16.7565 12.4943 14.7436 11.6371 11.8281 11.3666C11.8078 11.5205 11.7976 11.6756 11.7975 11.8309C11.7975 11.9277 11.8137 12.0575 11.8155 12.0831C13.9516 12.2052 16.0591 12.6392 18.0725 13.3716C18.0941 13.3806 18.1164 13.3873 18.1393 13.3917C18.1556 13.3917 18.1628 13.3917 18.1628 13.3716C18.1628 13.3515 18.1393 13.3406 18.0852 13.3077L18.0779 13.3168ZM10.1294 2.769C9.89685 2.67323 9.69956 2.50647 9.56496 2.29191C9.43037 2.07736 9.36516 1.82566 9.37841 1.57184C9.37841 0.91569 9.6853 0.292436 10.1294 0C10.5735 0.283297 10.8786 0.913862 10.8786 1.57184C10.8917 1.8254 10.8266 2.07682 10.6924 2.2913C10.5582 2.50578 10.3614 2.67271 10.1294 2.769Z" fill="#D3DADF"/>
<path d="M5.04028 16.9194C5.03777 17.0429 5.07166 17.1644 5.13764 17.2683C5.20362 17.3722 5.29869 17.4538 5.41071 17.5028C5.52272 17.5517 5.64661 17.5658 5.76654 17.5431C5.88648 17.5205 5.99702 17.4621 6.08405 17.3756C6.17109 17.289 6.23068 17.1781 6.2552 17.0571C6.27972 16.9361 6.26806 16.8105 6.22172 16.6962C6.17539 16.5819 6.09646 16.4843 5.99503 16.4156C5.8936 16.347 5.77426 16.3105 5.65226 16.3108C5.5726 16.3101 5.49359 16.3253 5.41972 16.3555C5.34585 16.3857 5.27859 16.4303 5.22176 16.4868C5.16493 16.5433 5.11965 16.6106 5.08852 16.6848C5.05738 16.7591 5.04099 16.8388 5.04028 16.9194ZM9.81879 20.118C9.81879 21.0775 9.45774 21.4778 8.91616 21.4778C8.37459 21.4778 8.0713 21.0135 8.0713 20.1984C8.0713 19.3832 8.54248 18.6759 9.41441 18.6759C9.55223 18.6744 9.68974 18.6891 9.82421 18.7198L9.81879 20.118ZM9.87114 21.6935V22.006C9.87114 22.8614 9.35123 23.1958 8.70314 23.1958C8.31133 23.1917 7.92353 23.1155 7.55861 22.971V23.8173C7.96903 23.9391 8.39459 24.0007 8.82229 24C10.0174 24 10.8081 23.4993 10.8081 21.7867V18.0965C10.3636 17.9784 9.90638 17.917 9.44691 17.9137C7.76983 17.9137 7.04772 19.0524 7.04772 20.2898C7.04772 21.4211 7.61096 22.3003 8.6887 22.3003C8.91646 22.3071 9.1423 22.2562 9.34566 22.1521C9.54902 22.048 9.72346 21.8942 9.85309 21.7044L9.87114 21.6935ZM4.17195 21.1762C3.81684 21.3258 3.43549 21.401 3.05088 21.3974C1.91538 21.3974 1.07774 20.5731 1.07774 19.3192C1.07774 18.0654 1.90816 17.2393 3.05088 17.2393C3.43443 17.2274 3.81622 17.2965 4.17195 17.4422V16.5448C3.7782 16.4122 3.36458 16.3503 2.94979 16.362C1.18605 16.362 0 17.5957 0 19.3138C0 20.9386 1.09218 22.2655 2.94979 22.2655C3.36457 22.277 3.77815 22.2152 4.17195 22.0828V21.1762ZM19.1556 20.1234C19.1556 21.083 18.7855 21.4833 18.253 21.4833C17.7204 21.4833 17.4063 21.019 17.4063 20.2039C17.4063 19.3887 17.8793 18.6814 18.7494 18.6814C18.8878 18.6801 19.0259 18.6949 19.161 18.7252L19.1556 20.1234ZM20.2694 22.2016C20.1989 21.7435 20.1573 21.2814 20.1449 20.818V18.0965C19.701 17.9787 19.2444 17.9173 18.7855 17.9137C17.1066 17.9137 16.3863 19.0524 16.3863 20.2898C16.3863 21.4211 16.9478 22.3003 18.0255 22.3003C18.2894 22.3072 18.5495 22.236 18.774 22.0954C18.9984 21.9549 19.1775 21.751 19.2892 21.5089H19.3162C19.3162 21.6405 19.3614 22.0828 19.3722 22.207L20.2694 22.2016ZM6.15773 18.0124H5.15762V22.2016H6.15773V18.0124ZM11.9346 22.2016V19.3046C11.9346 18.9153 11.9003 18.1696 11.8894 17.9996H12.7794L12.8209 18.59H12.8372C12.9603 18.3769 13.1377 18.201 13.3507 18.0808C13.5637 17.9606 13.8047 17.9004 14.0485 17.9064C14.9854 17.9064 15.5054 18.6028 15.5054 19.4709V22.2016H14.5143V19.6702C14.5143 19.1346 14.2218 18.7325 13.7163 18.7325C13.2109 18.7325 12.9202 19.1584 12.9202 19.6702V22.2016H11.9346Z" fill="#D3DADF"/>
<path d="M21.71 21.481C21.6715 21.4638 21.6294 21.4563 21.5873 21.4591H21.5024V21.6693H21.5945C21.6269 21.6709 21.6593 21.6666 21.6902 21.6565C21.7085 21.6498 21.7243 21.6373 21.735 21.6208C21.7457 21.6043 21.7509 21.5848 21.7498 21.5651C21.7516 21.5489 21.749 21.5325 21.7423 21.5177C21.7357 21.5029 21.7251 21.4902 21.7119 21.481H21.71ZM21.6017 21.3896C21.6548 21.3873 21.7079 21.3941 21.7588 21.4097C21.787 21.4213 21.8109 21.4418 21.8268 21.4681C21.8427 21.4944 21.8499 21.5252 21.8472 21.5559C21.8491 21.5785 21.8449 21.6011 21.8351 21.6214C21.8252 21.6417 21.8101 21.6589 21.7913 21.6711C21.7659 21.6866 21.7376 21.6966 21.7082 21.7003C21.7279 21.7019 21.7469 21.7078 21.7641 21.7176C21.7812 21.7273 21.796 21.7408 21.8075 21.757C21.8261 21.7832 21.8368 21.8143 21.8382 21.8465V21.8886C21.8373 21.9032 21.8373 21.9178 21.8382 21.9324C21.8375 21.9422 21.8375 21.952 21.8382 21.9617H21.7443V21.8922C21.7443 21.8246 21.7263 21.7789 21.6884 21.7588C21.6533 21.7429 21.6148 21.7359 21.5765 21.7387H21.5024V21.9672H21.4013V21.3969L21.6017 21.3896ZM21.2948 21.3604C21.253 21.4026 21.2198 21.4528 21.1971 21.508C21.1744 21.5633 21.1627 21.6225 21.1626 21.6823C21.1625 21.7421 21.1741 21.8014 21.1966 21.8567C21.2191 21.912 21.2522 21.9623 21.2939 22.0046C21.3357 22.047 21.3852 22.0806 21.4398 22.1036C21.4943 22.1266 21.5528 22.1384 21.6119 22.1385C21.671 22.1386 21.7295 22.1269 21.7842 22.1041C21.8388 22.0813 21.8884 22.0478 21.9303 22.0056C22.0146 21.9199 22.062 21.8039 22.062 21.683C22.062 21.562 22.0146 21.446 21.9303 21.3604C21.8889 21.3175 21.8395 21.2834 21.7849 21.2601C21.7304 21.2369 21.6718 21.2249 21.6126 21.2249C21.5534 21.2249 21.4947 21.2369 21.4402 21.2601C21.3856 21.2834 21.3362 21.3175 21.2948 21.3604ZM21.9826 22.0567C21.8845 22.1561 21.7514 22.2119 21.6126 22.2119C21.4738 22.2119 21.3407 22.1561 21.2425 22.0567C21.1939 22.0076 21.1554 21.9492 21.1294 21.8849C21.1033 21.8205 21.0902 21.7516 21.0908 21.682C21.0902 21.6123 21.1034 21.5432 21.1298 21.4788C21.1561 21.4145 21.1951 21.3561 21.2443 21.3074C21.3441 21.2171 21.4743 21.1689 21.6081 21.1728C21.7419 21.1767 21.8692 21.2324 21.9637 21.3283C22.0582 21.4243 22.1129 21.5532 22.1164 21.6887C22.1199 21.8242 22.0721 21.9559 21.9826 22.0567Z" fill="#D3DADF"/>
<path d="M52.0258 22.2011V8.80204C52.0258 8.40359 51.8579 8.28662 51.4589 8.28662H50.1321V22.2011H52.0258Z" fill="#D3DADF"/>
<path d="M64.8537 22.2011V13.5724H66.9207V12.0316H64.8537V8.80204C64.8537 8.40359 64.6876 8.28662 64.2886 8.28662H62.9617V15.4257C62.1192 15.5876 61.2631 15.666 60.4055 15.6597H56.8852C56.8453 15.6623 56.8052 15.6563 56.7677 15.6422C56.7302 15.628 56.6961 15.6059 56.6676 15.5774C56.6391 15.549 56.6169 15.5147 56.6025 15.4769C56.588 15.4391 56.5816 15.3986 56.5838 15.3581V8.67044H54.7063V15.8936C54.71 16.0713 54.7487 16.2465 54.8201 16.4088C54.8914 16.5712 54.9941 16.7175 55.122 16.8392C55.25 16.9609 55.4006 17.0555 55.5651 17.1176C55.7296 17.1796 55.9047 17.2078 56.0801 17.2004H60.4127C61.2755 17.1955 62.1342 17.0813 62.969 16.8605V22.2011H64.8537Z" fill="#D3DADF"/>
<path d="M46.5377 13.373C46.5377 14.8224 45.6152 15.835 44.2956 15.835C42.9759 15.835 42.0552 14.8169 42.0552 13.373C42.0552 11.3826 43.6493 10.063 44.2956 10.063C44.9418 10.063 46.5377 11.3826 46.5377 13.373ZM44.2937 8.53687C42.8495 8.53687 40.0767 10.4194 40.0767 13.3694C40.0767 15.7198 41.8115 17.3611 44.2937 17.3611C46.776 17.3611 48.5126 15.7162 48.5126 13.3694C48.5126 10.4194 45.7434 8.53687 44.2937 8.53687Z" fill="#D3DADF"/>
<path d="M89.754 17.5368C90.5212 17.5368 92.034 18.2259 92.034 19.5638C92.034 20.5398 91.1188 21.1959 89.754 21.1959C88.3892 21.1959 87.4739 20.5398 87.4739 19.5638C87.4739 18.2259 89.0084 17.5368 89.754 17.5368ZM89.754 16.0454C88.4018 16.0454 85.5044 17.2645 85.5044 19.6241C85.5044 21.4518 87.2122 22.6874 89.754 22.6874C92.2958 22.6874 94.0036 21.4573 94.0036 19.6241C94.0036 17.2645 91.0989 16.0454 89.754 16.0454Z" fill="#D3DADF"/>
<path d="M36.6106 22.2011V13.5724H38.6758V12.0316H36.6106V8.80204C36.6106 8.40359 36.4445 8.28662 36.0456 8.28662H34.7169V16.2025C33.9511 16.3219 33.1774 16.383 32.4026 16.3853H28.07C28.031 16.3876 27.992 16.3813 27.9556 16.3669C27.9192 16.3525 27.8864 16.3303 27.8593 16.3018C27.8322 16.2733 27.8115 16.2392 27.7986 16.2019C27.7858 16.1646 27.781 16.1249 27.7847 16.0855V14.075H32.5145V8.67044H25.8838V10.2112H30.6244V12.5288H25.8838V16.6101C25.8875 16.7878 25.9262 16.9629 25.9975 17.1253C26.0689 17.2877 26.1716 17.434 26.2995 17.5557C26.4275 17.6774 26.5781 17.772 26.7426 17.834C26.9071 17.8961 27.0822 17.9242 27.2576 17.9169H32.2148C33.0556 17.9169 33.8941 17.8287 34.7169 17.6537V22.2011H36.6106Z" fill="#D3DADF"/>
<path d="M76.0212 17.537C76.7866 17.537 78.2994 18.226 78.2994 19.5639C78.2994 20.5399 77.3841 21.1961 76.0212 21.1961C74.6582 21.1961 73.7465 20.5399 73.7465 19.5694C73.7465 18.2315 75.281 17.5424 76.0284 17.5424L76.0212 17.537ZM76.0284 16.051C74.6762 16.051 71.7788 17.2701 71.7788 19.6297C71.7788 21.4574 73.4866 22.693 76.0284 22.693C78.5702 22.693 80.278 21.4629 80.278 19.6297C80.278 17.2701 77.3733 16.051 76.0284 16.051Z" fill="#D3DADF"/>
<path d="M89.8765 11.0632H92.2901V12.571H89.8765V11.0632ZM87.999 13.7828H85.0474C85.0076 13.7854 84.9677 13.7795 84.9303 13.7654C84.893 13.7514 84.8589 13.7295 84.8305 13.7012C84.802 13.6729 84.7798 13.6389 84.7652 13.6013C84.7506 13.5637 84.7441 13.5234 84.7459 13.4831V10.0853H87.9954L87.999 13.7828ZM93.5953 8.28685H92.2793V9.5169H89.8765V8.54273H82.8811V14.0149C82.8848 14.1927 82.9235 14.3679 82.9948 14.5304C83.0662 14.6929 83.1688 14.8393 83.2967 14.9612C83.4246 15.083 83.5753 15.1778 83.7398 15.24C83.9043 15.3023 84.0794 15.3307 84.2549 15.3236H89.8855V14.1118H92.2973V15.5484H94.164V8.78581C94.164 8.39285 93.9979 8.27588 93.6043 8.27588" fill="#D3DADF"/>
<path d="M80.0904 8.28685H78.7762V10.9955H77.4656V8.80226C77.4656 8.4093 77.2995 8.29233 76.906 8.29233H75.5881V15.5484H77.4656V12.5381H78.7798V15.5484H80.6537V8.78581C80.6537 8.39285 80.4876 8.27588 80.0941 8.27588" fill="#D3DADF"/>
<path d="M71.8367 9.94592C72.0172 9.94592 72.0677 10.072 72.1201 10.2877L73.456 15.5552H75.3984L73.9867 10.1232C73.6889 8.96443 73.104 8.40332 71.8439 8.40332H71.8295C70.5658 8.40332 69.9845 8.96443 69.6866 10.1232L68.2749 15.5479H70.2192L71.5532 10.2804C71.6056 10.0647 71.6652 9.93861 71.8367 9.93861" fill="#D3DADF"/>
</svg>
